Oxanium-Bold.ufo
<glyph name="exclam" format="2">
  <advance width="277.9672131147541"/>
  <unicode hex="0021"/>
  <outline>
    <contour>
      <point x="64.55737704918033" y="0.0" type="line"/>
      <point x="64.55737704918033" y="143.172131147541" type="line"/>
      <point x="213.64754098360655" y="143.172131147541" type="line"/>
      <point x="213.64754098360655" y="0.0" type="line"/>
    </contour>
    <contour>
      <point x="66.69672131147541" y="222.05737704918033" type="line"/>
      <point x="66.69672131147541" y="690.0" type="line"/>
      <point x="210.74590163934425" y="690.0" type="line"/>
      <point x="210.74590163934425" y="222.05737704918033" type="line"/>
    </contour>
  </outline>
</glyph>
<glyph name="numbersign" format="2">
  <advance width="677.9590163934427"/>
  <unicode hex="0023"/>
  <outline>
    <contour>
      <point x="50.0" y="165.88524590163934" type="line"/>
      <point x="50.0" y="284.11475409836066" type="line"/>
      <point x="162.69672131147541" y="284.11475409836066" type="line"/>
      <point x="162.69672131147541" y="405.88524590163934" type="line"/>
      <point x="50.0" y="405.88524590163934" type="line"/>
      <point x="50.0" y="524.1147540983607" type="line"/>
      <point x="162.69672131147541" y="524.1147540983607" type="line"/>
      <point x="162.69672131147541" y="690.0" type="line"/>
      <point x="287.5" y="690.0" type="line"/>
      <point x="287.5" y="524.1147540983607" type="line"/>
      <point x="390.6967213114754" y="524.1147540983607" type="line"/>
      <point x="390.6967213114754" y="690.0" type="line"/>
      <point x="515.5" y="690.0" type="line"/>
      <point x="515.5" y="524.1147540983607" type="line"/>
      <point x="627.9590163934427" y="524.1147540983607" type="line"/>
      <point x="627.9590163934427" y="405.88524590163934" type="line"/>
      <point x="515.5" y="405.88524590163934" type="line"/>
      <point x="515.5" y="284.11475409836066" type="line"/>
      <point x="627.9590163934427" y="284.11475409836066" type="line"/>
      <point x="627.9590163934427" y="165.88524590163934" type="line"/>
      <point x="515.5" y="165.88524590163934" type="line"/>
      <point x="515.5" y="0.0" type="line"/>
      <point x="390.6967213114754" y="0.0" type="line"/>
      <point x="390.6967213114754" y="165.88524590163934" type="line"/>
      <point x="287.5" y="165.88524590163934" type="line"/>
      <point x="287.5" y="0.0" type="line"/>
      <point x="162.69672131147541" y="0.0" type="line"/>
      <point x="162.69672131147541" y="165.88524590163934" type="line"/>
    </contour>
    <contour>
      <point x="287.5" y="284.11475409836066" type="line"/>
      <point x="390.6967213114754" y="284.11475409836066" type="line"/>
      <point x="390.6967213114754" y="405.88524590163934" type="line"/>
      <point x="287.5" y="405.88524590163934" type="line"/>
    </contour>
  </outline>
</glyph>
<glyph name="dollar" format="2">
  <advance width="578.0"/>
  <unicode hex="0024"/>
  <outline>
    <contour>
      <point x="56.94262295081967" y="51.68032786885246" type="line"/>
      <point x="56.94262295081967" y="130.13934426229508" type="line"/>
      <point x="346.9918032786885" y="130.13934426229508" type="line" smooth="yes"/>
      <point x="377.0081967213115" y="130.13934426229508"/>
      <point x="377.0081967213115" y="159.91803278688525" type="qcurve" smooth="yes"/>
      <point x="377.0081967213115" y="218.4344262295082" type="line" smooth="yes"/>
      <point x="377.0081967213115" y="246.69672131147541"/>
      <point x="351.9344262295082" y="251.31147540983608" type="qcurve" smooth="yes"/>
      <point x="176.95081967213116" y="285.6885245901639" type="line" smooth="yes"/>
      <point x="56.94262295081967" y="308.7377049180328"/>
      <point x="56.94262295081967" y="447.0327868852459" type="qcurve" smooth="yes"/>
      <point x="56.94262295081967" y="483.9836065573771" type="line" smooth="yes"/>
      <point x="56.94262295081967" y="660.0"/>
      <point x="213.9016393442623" y="660.0" type="qcurve" smooth="yes"/>
      <point x="228.5983606557377" y="660.0" type="line"/>
      <point x="228.5983606557377" y="780.0" type="line"/>
      <point x="349.4016393442623" y="780.0" type="line"/>
      <point x="349.4016393442623" y="660.0" type="line"/>
      <point x="433.9918032786885" y="660.0" type="line"/>
      <point x="501.05737704918033" y="608.3196721311475" type="line"/>
      <point x="501.05737704918033" y="529.860655737705" type="line"/>
      <point x="231.00819672131146" y="529.860655737705" type="line" smooth="yes"/>
      <point x="200.9918032786885" y="529.860655737705"/>
      <point x="200.9918032786885" y="500.08196721311475" type="qcurve" smooth="yes"/>
      <point x="200.9918032786885" y="446.41803278688525" type="line" smooth="yes"/>
      <point x="200.9918032786885" y="417.91803278688525"/>
      <point x="226.0655737704918" y="413.3032786885246" type="qcurve" smooth="yes"/>
      <point x="401.04918032786884" y="377.6393442622951" type="line" smooth="yes"/>
      <point x="521.0573770491803" y="352.827868852459"/>
      <point x="521.0573770491803" y="217.05737704918033" type="qcurve" smooth="yes"/>
      <point x="521.0573770491803" y="176.01639344262296" type="line" smooth="yes"/>
      <point x="521.0573770491803" y="0.0"/>
      <point x="364.0983606557377" y="0.0" type="qcurve" smooth="yes"/>
      <point x="349.4016393442623" y="0.0" type="line"/>
      <point x="349.4016393442623" y="-120.0" type="line"/>
      <point x="228.5983606557377" y="-120.0" type="line"/>
      <point x="228.5983606557377" y="0.0" type="line"/>
      <point x="124.00819672131148" y="0.0" type="line"/>
    </contour>
  </outline>
</glyph>
<glyph name="ampersand" format="2">
  <advance width="675.9180327868852"/>
  <unicode hex="0026"/>
  <outline>
    <contour>
      <point x="62.040983606557376" y="162.05737704918033" type="qcurve" smooth="yes"/>
      <point x="62.040983606557376" y="248.04098360655738" type="line" smooth="yes"/>
      <point x="62.040983606557376" y="300.0409836065574"/>
      <point x="95.04098360655738" y="328.0409836065574" type="qcurve" smooth="yes"/>
      <point x="137.04098360655738" y="363.0409836065574" type="line"/>
      <point x="102.04098360655738" y="405.0409836065574" type="line" smooth="yes"/>
      <point x="82.04098360655738" y="429.0409836065574"/>
      <point x="82.04098360655738" y="463.0409836065574" type="qcurve" smooth="yes"/>
      <point x="82.04098360655738" y="527.9426229508197" type="line" smooth="yes"/>
      <point x="82.04098360655738" y="690.0"/>
      <point x="244.0983606557377" y="690.0" type="qcurve" smooth="yes"/>
      <point x="425.9016393442623" y="690.0" type="line"/>
      <point x="485.91803278688525" y="645.3688524590164" type="line"/>
      <point x="485.91803278688525" y="569.9590163934427" type="line"/>
      <point x="252.05737704918033" y="569.9590163934427" type="line" smooth="yes"/>
      <point x="220.04098360655738" y="569.9590163934427"/>
      <point x="220.04098360655738" y="537.9426229508197" type="qcurve" smooth="yes"/>
      <point x="220.04098360655738" y="452.0327868852459" type="line" smooth="yes"/>
      <point x="220.04098360655738" y="420.0163934426229"/>
      <point x="252.05737704918033" y="420.0163934426229" type="qcurve" smooth="yes"/>
      <point x="635.9180327868852" y="420.0163934426229" type="line"/>
      <point x="635.9180327868852" y="299.9754098360656" type="line"/>
      <point x="535.9180327868852" y="299.9754098360656" type="line"/>
      <point x="535.9180327868852" y="0.0" type="line"/>
      <point x="224.0983606557377" y="0.0" type="line" smooth="yes"/>
      <point x="62.040983606557376" y="0.0"/>
    </contour>
    <contour>
      <point x="200.04098360655738" y="152.05737704918033" type="line" smooth="yes"/>
      <point x="200.04098360655738" y="120.04098360655738"/>
      <point x="232.05737704918033" y="120.04098360655738" type="qcurve" smooth="yes"/>
      <point x="397.91803278688525" y="120.04098360655738" type="line"/>
      <point x="397.91803278688525" y="299.9754098360656" type="line"/>
      <point x="232.05737704918033" y="299.9754098360656" type="line" smooth="yes"/>
      <point x="200.04098360655738" y="299.9754098360656"/>
      <point x="200.04098360655738" y="267.9590163934426" type="qcurve" smooth="yes"/>
    </contour>
  </outline>
</glyph>
<glyph name="quotesingle" format="2">
  <advance width="248.12295081967213"/>
  <unicode hex="0027"/>
  <outline>
    <contour>
      <point x="62.040983606557376" y="469.9836065573771" type="line"/>
      <point x="62.040983606557376" y="740.0" type="line"/>
      <point x="186.08196721311475" y="740.0" type="line"/>
      <point x="186.08196721311475" y="469.9836065573771" type="line"/>
    </contour>
  </outline>
</glyph>
<glyph name="parenleft" format="2">
  <advance width="348.22131147540983"/>
  <unicode hex="0028"/>
  <outline>
    <contour>
      <point x="224.61475409836066" y="780.0081967213115" type="qcurve"/>
      <point x="330.0327868852459" y="701.4098360655738" type="line"/>
      <point x="202.5655737704918" y="520.4180327868853"/>
      <point x="202.5655737704918" y="59.58196721311475"/>
      <point x="330.0327868852459" y="-121.40983606557377" type="qcurve"/>
      <point x="224.61475409836066" y="-200.00819672131146" type="line"/>
      <point x="64.56557377049181" y="18.37704918032787"/>
      <point x="64.56557377049181" y="561.6229508196722"/>
    </contour>
  </outline>
</glyph>
<glyph name="parenright" format="2">
  <advance width="348.22131147540983"/>
  <unicode hex="0029"/>
  <outline>
    <contour>
      <point x="18.188524590163937" y="-121.40983606557377" type="line"/>
      <point x="145.65573770491804" y="59.58196721311475"/>
      <point x="145.65573770491804" y="520.4180327868853"/>
      <point x="18.188524590163937" y="701.4098360655738" type="qcurve"/>
      <point x="122.84426229508196" y="780.0081967213115" type="line"/>
      <point x="283.655737704918" y="561.6229508196722"/>
      <point x="283.655737704918" y="18.37704918032787"/>
      <point x="122.84426229508196" y="-200.00819672131146" type="qcurve"/>
    </contour>
  </outline>
</glyph>
<glyph name="asterisk" format="2">
  <advance width="514.1065573770492"/>
  <unicode hex="002A"/>
  <outline>
    <contour>
      <point x="41.0" y="494.6967213114754" type="line"/>
      <point x="73.34426229508196" y="593.5409836065573" type="line"/>
      <point x="203.3688524590164" y="555.0245901639345" type="line"/>
      <point x="203.3688524590164" y="690.0" type="line"/>
      <point x="311.5" y="690.0" type="line"/>
      <point x="311.5" y="555.0245901639345" type="line"/>
      <point x="441.28688524590166" y="593.5409836065573" type="line"/>
      <point x="473.10655737704917" y="494.6967213114754" type="line"/>
      <point x="345.08196721311475" y="450.94262295081967" type="line"/>
      <point x="423.4016393442623" y="340.05737704918033" type="line"/>
      <point x="338.9918032786885" y="278.89344262295083" type="line"/>
      <point x="256.672131147541" y="387.0655737704918" type="line"/>
      <point x="175.11475409836066" y="278.89344262295083" type="line"/>
      <point x="91.4672131147541" y="340.05737704918033" type="line"/>
      <point x="169.02459016393442" y="450.94262295081967" type="line"/>
    </contour>
  </outline>
</glyph>
<glyph name="plus" format="2">
  <advance width="578.0"/>
  <unicode hex="002B"/>
  <outline>
    <contour>
      <point x="59.90163934426229" y="275.88524590163934" type="line"/>
      <point x="59.90163934426229" y="394.11475409836066" type="line"/>
      <point x="226.5983606557377" y="394.11475409836066" type="line"/>
      <point x="226.5983606557377" y="570.0" type="line"/>
      <point x="351.4016393442623" y="570.0" type="line"/>
      <point x="351.4016393442623" y="394.11475409836066" type="line"/>
      <point x="518.0983606557377" y="394.11475409836066" type="line"/>
      <point x="518.0983606557377" y="275.88524590163934" type="line"/>
      <point x="351.4016393442623" y="275.88524590163934" type="line"/>
      <point x="351.4016393442623" y="100.0" type="line"/>
      <point x="226.5983606557377" y="100.0" type="line"/>
      <point x="226.5983606557377" y="275.88524590163934" type="line"/>
    </contour>
  </outline>
</glyph>
<glyph name="comma" format="2">
  <advance width="277.9672131147541"/>
  <unicode hex="002C"/>
  <outline>
    <contour>
      <point x="21.991803278688526" y="-124.47540983606558" type="line"/>
      <point x="81.32786885245902" y="143.172131147541" type="line"/>
      <point x="212.3688524590164" y="143.172131147541" type="line"/>
      <point x="226.75409836065575" y="121.73770491803279" type="line"/>
      <point x="124.54918032786884" y="-150.00819672131146" type="line"/>
    </contour>
  </outline>
</glyph>
<glyph name="hyphen" format="2">
  <advance width="380.0163934426229"/>
  <unicode hex="002D"/>
  <outline>
    <contour>
      <point x="40.0" y="245.88524590163934" type="line"/>
      <point x="40.0" y="364.11475409836066" type="line"/>
      <point x="340.0163934426229" y="364.11475409836066" type="line"/>
      <point x="340.0163934426229" y="245.88524590163934" type="line"/>
    </contour>
  </outline>
</glyph>
<glyph name="period" format="2">
  <advance width="277.9672131147541"/>
  <unicode hex="002E"/>
  <outline>
    <contour>
      <point x="64.55737704918033" y="0.0" type="line"/>
      <point x="64.55737704918033" y="143.172131147541" type="line"/>
      <point x="213.64754098360655" y="143.172131147541" type="line"/>
      <point x="213.64754098360655" y="0.0" type="line"/>
    </contour>
  </outline>
</glyph>
<glyph name="slash" format="2">
  <advance width="435.94262295081967"/>
  <unicode hex="002F"/>
  <outline>
    <contour>
      <point x="20.0" y="-16.278688524590166" type="line"/>
      <point x="300.4754098360656" y="747.9590163934427" type="line"/>
      <point x="415.94262295081967" y="706.2786885245902" type="line"/>
      <point x="136.4672131147541" y="-57.959016393442624" type="line"/>
    </contour>
  </outline>
</glyph>
<glyph name="zero" format="2">
  <advance width="578.0"/>
  <unicode hex="0030"/>
  <outline>
    <contour>
      <point x="51.94262295081967" y="168.39344262295083" type="qcurve" smooth="yes"/>
      <point x="51.94262295081967" y="521.6065573770492" type="line" smooth="yes"/>
      <point x="51.94262295081967" y="690.0"/>
      <point x="220.3360655737705" y="690.0" type="qcurve" smooth="yes"/>
      <point x="357.6639344262295" y="690.0" type="line" smooth="yes"/>
      <point x="526.0573770491803" y="690.0"/>
      <point x="526.0573770491803" y="521.6065573770492" type="qcurve" smooth="yes"/>
      <point x="526.0573770491803" y="168.39344262295083" type="line" smooth="yes"/>
      <point x="526.0573770491803" y="0.0"/>
      <point x="357.6639344262295" y="0.0" type="qcurve" smooth="yes"/>
      <point x="220.3360655737705" y="0.0" type="line" smooth="yes"/>
      <point x="51.94262295081967" y="0.0"/>
    </contour>
    <contour>
      <point x="195.9918032786885" y="159.91803278688525" type="line" smooth="yes"/>
      <point x="195.9918032786885" y="130.13934426229508"/>
      <point x="226.00819672131146" y="130.13934426229508" type="qcurve" smooth="yes"/>
      <point x="351.9918032786885" y="130.13934426229508" type="line" smooth="yes"/>
      <point x="382.0081967213115" y="130.13934426229508"/>
      <point x="382.0081967213115" y="159.91803278688525" type="qcurve" smooth="yes"/>
      <point x="382.0081967213115" y="530.0819672131148" type="line" smooth="yes"/>
      <point x="382.0081967213115" y="559.860655737705"/>
      <point x="351.9918032786885" y="559.860655737705" type="qcurve" smooth="yes"/>
      <point x="226.00819672131146" y="559.860655737705" type="line" smooth="yes"/>
      <point x="195.9918032786885" y="559.860655737705"/>
      <point x="195.9918032786885" y="530.0819672131148" type="qcurve" smooth="yes"/>
    </contour>
  </outline>
</glyph>
<glyph name="one" format="2">
  <advance width="578.0"/>
  <unicode hex="0031"/>
  <outline>
    <contour>
      <point x="79.94262295081967" y="0.0" type="line"/>
      <point x="79.94262295081967" y="130.13934426229508" type="line"/>
      <point x="232.97540983606558" y="130.13934426229508" type="line"/>
      <point x="232.97540983606558" y="559.860655737705" type="line"/>
      <point x="104.9344262295082" y="559.860655737705" type="line"/>
      <point x="104.9344262295082" y="638.3196721311475" type="line"/>
      <point x="172.0" y="690.0" type="line"/>
      <point x="377.0245901639344" y="690.0" type="line"/>
      <point x="377.0245901639344" y="130.13934426229508" type="line"/>
      <point x="514.0573770491803" y="130.13934426229508" type="line"/>
      <point x="514.0573770491803" y="0.0" type="line"/>
    </contour>
  </outline>
</glyph>
<glyph name="two" format="2">
  <advance width="578.0"/>
  <unicode hex="0032"/>
  <outline>
    <contour>
      <point x="51.94262295081967" y="0.0" type="line"/>
      <point x="51.94262295081967" y="224.6311475409836" type="line" smooth="yes"/>
      <point x="51.94262295081967" y="361.92622950819674"/>
      <point x="171.95081967213116" y="385.9754098360656" type="qcurve" smooth="yes"/>
      <point x="356.9344262295082" y="423.11475409836066" type="line" smooth="yes"/>
      <point x="382.0081967213115" y="428.4918032786885"/>
      <point x="382.0081967213115" y="455.9918032786885" type="qcurve" smooth="yes"/>
      <point x="382.0081967213115" y="530.0819672131148" type="line" smooth="yes"/>
      <point x="382.0081967213115" y="559.860655737705"/>
      <point x="351.9918032786885" y="559.860655737705" type="qcurve" smooth="yes"/>
      <point x="71.94262295081967" y="559.860655737705" type="line"/>
      <point x="71.94262295081967" y="638.3196721311475" type="line"/>
      <point x="139.00819672131146" y="690.0" type="line"/>
      <point x="357.6639344262295" y="690.0" type="line" smooth="yes"/>
      <point x="526.0573770491803" y="690.0"/>
      <point x="526.0573770491803" y="521.6065573770492" type="qcurve" smooth="yes"/>
      <point x="526.0573770491803" y="457.3688524590164" type="line" smooth="yes"/>
      <point x="526.0573770491803" y="320.07377049180326"/>
      <point x="406.04918032786884" y="296.0245901639344" type="qcurve" smooth="yes"/>
      <point x="221.0655737704918" y="258.88524590163934" type="line" smooth="yes"/>
      <point x="195.9918032786885" y="253.5081967213115"/>
      <point x="195.9918032786885" y="226.00819672131146" type="qcurve" smooth="yes"/>
      <point x="195.9918032786885" y="130.13934426229508" type="line"/>
      <point x="526.0573770491803" y="130.13934426229508" type="line"/>
      <point x="526.0573770491803" y="0.0" type="line"/>
    </contour>
  </outline>
</glyph>
<glyph name="three" format="2">
  <advance width="578.0"/>
  <unicode hex="0033"/>
  <outline>
    <contour>
      <point x="61.94262295081967" y="51.68032786885246" type="line"/>
      <point x="61.94262295081967" y="130.13934426229508" type="line"/>
      <point x="351.9918032786885" y="130.13934426229508" type="line" smooth="yes"/>
      <point x="382.0081967213115" y="130.13934426229508"/>
      <point x="382.0081967213115" y="159.91803278688525" type="qcurve" smooth="yes"/>
      <point x="382.0081967213115" y="260.0983606557377" type="line" smooth="yes"/>
      <point x="382.0081967213115" y="289.87704918032784"/>
      <point x="351.9918032786885" y="289.87704918032784" type="qcurve" smooth="yes"/>
      <point x="135.94262295081967" y="289.87704918032784" type="line"/>
      <point x="135.94262295081967" y="420.0163934426229" type="line"/>
      <point x="351.9918032786885" y="420.0163934426229" type="line" smooth="yes"/>
      <point x="382.0081967213115" y="420.0163934426229"/>
      <point x="382.0081967213115" y="450.0327868852459" type="qcurve" smooth="yes"/>
      <point x="382.0081967213115" y="530.0819672131148" type="line" smooth="yes"/>
      <point x="382.0081967213115" y="559.860655737705"/>
      <point x="351.9918032786885" y="559.860655737705" type="qcurve" smooth="yes"/>
      <point x="71.94262295081967" y="559.860655737705" type="line"/>
      <point x="71.94262295081967" y="638.3196721311475" type="line"/>
      <point x="139.00819672131146" y="690.0" type="line"/>
      <point x="357.6639344262295" y="690.0" type="line" smooth="yes"/>
      <point x="526.0573770491803" y="690.0"/>
      <point x="526.0573770491803" y="521.6065573770492" type="qcurve" smooth="yes"/>
      <point x="526.0573770491803" y="458.09016393442624" type="line" smooth="yes"/>
      <point x="526.0573770491803" y="418.09016393442624"/>
      <point x="501.05737704918033" y="393.09016393442624" type="qcurve" smooth="yes"/>
      <point x="466.05737704918033" y="358.09016393442624" type="line"/>
      <point x="501.05737704918033" y="323.09016393442624" type="line" smooth="yes"/>
      <point x="526.0573770491803" y="298.09016393442624"/>
      <point x="526.0573770491803" y="258.09016393442624" type="qcurve" smooth="yes"/>
      <point x="526.0573770491803" y="168.39344262295083" type="line" smooth="yes"/>
      <point x="526.0573770491803" y="0.0"/>
      <point x="357.6639344262295" y="0.0" type="qcurve" smooth="yes"/>
      <point x="129.00819672131146" y="0.0" type="line"/>
    </contour>
  </outline>
</glyph>
<glyph name="four" format="2">
  <advance width="578.0"/>
  <unicode hex="0034"/>
  <outline>
    <contour>
      <point x="51.94262295081967" y="101.54918032786885" type="line"/>
      <point x="51.94262295081967" y="219.54098360655738" type="line"/>
      <point x="262.92622950819674" y="690.0" type="line"/>
      <point x="385.0163934426229" y="690.0" type="line"/>
      <point x="401.92622950819674" y="659.9918032786885" type="line"/>
      <point x="209.61475409836066" y="232.45081967213116" type="line"/>
      <point x="382.0081967213115" y="232.45081967213116" type="line"/>
      <point x="382.0081967213115" y="430.0" type="line"/>
      <point x="526.0573770491803" y="430.0" type="line"/>
      <point x="526.0573770491803" y="0.0" type="line"/>
      <point x="382.0081967213115" y="0.0" type="line"/>
      <point x="382.0081967213115" y="101.54918032786885" type="line"/>
    </contour>
  </outline>
</glyph>
<glyph name="five" format="2">
  <advance width="578.0"/>
  <unicode hex="0035"/>
  <outline>
    <contour>
      <point x="41.94262295081967" y="51.68032786885246" type="line"/>
      <point x="41.94262295081967" y="130.13934426229508" type="line"/>
      <point x="351.9918032786885" y="130.13934426229508" type="line" smooth="yes"/>
      <point x="382.0081967213115" y="130.13934426229508"/>
      <point x="382.0081967213115" y="159.91803278688525" type="qcurve" smooth="yes"/>
      <point x="382.0081967213115" y="270.0983606557377" type="line" smooth="yes"/>
      <point x="382.0081967213115" y="299.87704918032784"/>
      <point x="351.9918032786885" y="299.87704918032784" type="qcurve" smooth="yes"/>
      <point x="51.94262295081967" y="299.87704918032784" type="line"/>
      <point x="51.94262295081967" y="690.0" type="line"/>
      <point x="496.05737704918033" y="690.0" type="line"/>
      <point x="496.05737704918033" y="559.860655737705" type="line"/>
      <point x="195.9918032786885" y="559.860655737705" type="line"/>
      <point x="195.9918032786885" y="430.0163934426229" type="line"/>
      <point x="357.6639344262295" y="430.0163934426229" type="line" smooth="yes"/>
      <point x="526.0573770491803" y="430.0163934426229"/>
      <point x="526.0573770491803" y="261.62295081967216" type="qcurve" smooth="yes"/>
      <point x="526.0573770491803" y="168.39344262295083" type="line" smooth="yes"/>
      <point x="526.0573770491803" y="0.0"/>
      <point x="357.6639344262295" y="0.0" type="qcurve" smooth="yes"/>
      <point x="109.00819672131148" y="0.0" type="line"/>
    </contour>
  </outline>
</glyph>
<glyph name="six" format="2">
  <advance width="578.0"/>
  <unicode hex="0036"/>
  <outline>
    <contour>
      <point x="51.94262295081967" y="168.39344262295083" type="qcurve" smooth="yes"/>
      <point x="51.94262295081967" y="488.0327868852459" type="line" smooth="yes"/>
      <point x="51.94262295081967" y="690.0"/>
      <point x="253.90983606557376" y="690.0" type="qcurve" smooth="yes"/>
      <point x="418.9918032786885" y="690.0" type="line"/>
      <point x="486.05737704918033" y="638.3196721311475" type="line"/>
      <point x="486.05737704918033" y="559.860655737705" type="line"/>
      <point x="249.90983606557376" y="559.860655737705" type="line" smooth="yes"/>
      <point x="195.9918032786885" y="559.860655737705"/>
      <point x="195.9918032786885" y="505.94262295081967" type="qcurve" smooth="yes"/>
      <point x="195.9918032786885" y="430.0163934426229" type="line"/>
      <point x="357.6639344262295" y="430.0163934426229" type="line" smooth="yes"/>
      <point x="526.0573770491803" y="430.0163934426229"/>
      <point x="526.0573770491803" y="261.62295081967216" type="qcurve" smooth="yes"/>
      <point x="526.0573770491803" y="168.39344262295083" type="line" smooth="yes"/>
      <point x="526.0573770491803" y="0.0"/>
      <point x="357.6639344262295" y="0.0" type="qcurve" smooth="yes"/>
      <point x="220.3360655737705" y="0.0" type="line" smooth="yes"/>
      <point x="51.94262295081967" y="0.0"/>
    </contour>
    <contour>
      <point x="195.9918032786885" y="159.91803278688525" type="line" smooth="yes"/>
      <point x="195.9918032786885" y="130.13934426229508"/>
      <point x="226.00819672131146" y="130.13934426229508" type="qcurve" smooth="yes"/>
      <point x="351.9918032786885" y="130.13934426229508" type="line" smooth="yes"/>
      <point x="382.0081967213115" y="130.13934426229508"/>
      <point x="382.0081967213115" y="159.91803278688525" type="qcurve" smooth="yes"/>
      <point x="382.0081967213115" y="270.0983606557377" type="line" smooth="yes"/>
      <point x="382.0081967213115" y="299.87704918032784"/>
      <point x="351.9918032786885" y="299.87704918032784" type="qcurve" smooth="yes"/>
      <point x="195.9918032786885" y="299.87704918032784" type="line"/>
    </contour>
  </outline>
</glyph>
<glyph name="seven" format="2">
  <advance width="578.0"/>
  <unicode hex="0037"/>
  <outline>
    <contour>
      <point x="51.94262295081967" y="559.860655737705" type="line"/>
      <point x="51.94262295081967" y="690.0" type="line"/>
      <point x="526.0573770491803" y="690.0" type="line"/>
      <point x="526.0573770491803" y="474.9672131147541" type="line"/>
      <point x="277.3606557377049" y="0.0" type="line"/>
      <point x="148.45901639344262" y="0.0" type="line"/>
      <point x="131.31147540983608" y="30.008196721311474" type="line"/>
      <point x="382.0081967213115" y="504.5" type="line"/>
      <point x="382.0081967213115" y="559.860655737705" type="line"/>
    </contour>
  </outline>
</glyph>
<glyph name="nine" format="2">
  <advance width="578.0"/>
  <unicode hex="0039"/>
  <outline>
    <contour>
      <point x="51.94262295081967" y="427.61475409836066" type="qcurve" smooth="yes"/>
      <point x="51.94262295081967" y="521.6065573770492" type="line" smooth="yes"/>
      <point x="51.94262295081967" y="690.0"/>
      <point x="220.3360655737705" y="690.0" type="qcurve" smooth="yes"/>
      <point x="357.6639344262295" y="690.0" type="line" smooth="yes"/>
      <point x="526.0573770491803" y="690.0"/>
      <point x="526.0573770491803" y="521.6065573770492" type="qcurve" smooth="yes"/>
      <point x="526.0573770491803" y="201.9672131147541" type="line" smooth="yes"/>
      <point x="526.0573770491803" y="0.0"/>
      <point x="324.09016393442624" y="0.0" type="qcurve" smooth="yes"/>
      <point x="149.00819672131146" y="0.0" type="line"/>
      <point x="81.94262295081967" y="51.68032786885246" type="line"/>
      <point x="81.94262295081967" y="130.13934426229508" type="line"/>
      <point x="328.09016393442624" y="130.13934426229508" type="line" smooth="yes"/>
      <point x="382.0081967213115" y="130.13934426229508"/>
      <point x="382.0081967213115" y="184.05737704918033" type="qcurve" smooth="yes"/>
      <point x="382.0081967213115" y="259.9836065573771" type="line"/>
      <point x="220.3360655737705" y="259.9836065573771" type="line" smooth="yes"/>
      <point x="51.94262295081967" y="259.9836065573771"/>
    </contour>
    <contour>
      <point x="195.9918032786885" y="420.1393442622951" type="line" smooth="yes"/>
      <point x="195.9918032786885" y="390.12295081967216"/>
      <point x="226.00819672131146" y="390.12295081967216" type="qcurve" smooth="yes"/>
      <point x="382.0081967213115" y="390.12295081967216" type="line"/>
      <point x="382.0081967213115" y="530.0819672131148" type="line" smooth="yes"/>
      <point x="382.0081967213115" y="559.860655737705"/>
      <point x="351.9918032786885" y="559.860655737705" type="qcurve" smooth="yes"/>
      <point x="226.00819672131146" y="559.860655737705" type="line" smooth="yes"/>
      <point x="195.9918032786885" y="559.860655737705"/>
      <point x="195.9918032786885" y="530.0819672131148" type="qcurve" smooth="yes"/>
    </contour>
  </outline>
</glyph>
<glyph name="less" format="2">
  <advance width="578.0"/>
  <unicode hex="003C"/>
  <outline>
    <contour>
      <point x="64.0" y="270.07377049180326" type="line"/>
      <point x="64.0" y="399.92622950819674" type="line"/>
      <point x="473.9918032786885" y="595.5409836065573" type="line"/>
      <point x="524.0081967213115" y="490.6967213114754" type="line"/>
      <point x="190.6639344262295" y="335.0" type="line"/>
      <point x="524.0081967213115" y="179.30327868852459" type="line"/>
      <point x="473.9918032786885" y="74.45901639344262" type="line"/>
    </contour>
  </outline>
</glyph>
<glyph name="equal" format="2">
  <advance width="578.0"/>
  <unicode hex="003D"/>
  <outline>
    <contour>
      <point x="59.90163934426229" y="165.88524590163934" type="line"/>
      <point x="59.90163934426229" y="284.11475409836066" type="line"/>
      <point x="518.0983606557377" y="284.11475409836066" type="line"/>
      <point x="518.0983606557377" y="165.88524590163934" type="line"/>
    </contour>
    <contour>
      <point x="59.90163934426229" y="385.88524590163934" type="line"/>
      <point x="59.90163934426229" y="504.11475409836066" type="line"/>
      <point x="518.0983606557377" y="504.11475409836066" type="line"/>
      <point x="518.0983606557377" y="385.88524590163934" type="line"/>
    </contour>
  </outline>
</glyph>
<glyph name="greater" format="2">
  <advance width="578.0"/>
  <unicode hex="003E"/>
  <outline>
    <contour>
      <point x="53.99180327868852" y="179.30327868852459" type="line"/>
      <point x="387.3360655737705" y="335.0" type="line"/>
      <point x="53.99180327868852" y="490.6967213114754" type="line"/>
      <point x="104.00819672131148" y="595.5409836065573" type="line"/>
      <point x="514.0" y="399.92622950819674" type="line"/>
      <point x="514.0" y="270.07377049180326" type="line"/>
      <point x="104.00819672131148" y="74.45901639344262" type="line"/>
    </contour>
  </outline>
</glyph>
<glyph name="question" format="2">
  <advance width="524.1147540983607"/>
  <unicode hex="003F"/>
  <outline>
    <contour>
      <point x="40.0" y="559.860655737705" type="line"/>
      <point x="40.0" y="638.3196721311475" type="line"/>
      <point x="107.0655737704918" y="690.0" type="line"/>
      <point x="305.72131147540983" y="690.0" type="line" smooth="yes"/>
      <point x="474.11475409836066" y="690.0"/>
      <point x="474.11475409836066" y="521.6065573770492" type="qcurve" smooth="yes"/>
      <point x="474.11475409836066" y="445.9016393442623" type="line" smooth="yes"/>
      <point x="474.11475409836066" y="269.88524590163934"/>
      <point x="314.10655737704917" y="269.88524590163934" type="qcurve" smooth="yes"/>
      <point x="296.08196721311475" y="269.88524590163934" type="line"/>
      <point x="296.08196721311475" y="222.05737704918033" type="line"/>
      <point x="152.0327868852459" y="222.05737704918033" type="line"/>
      <point x="152.0327868852459" y="400.0245901639344" type="line"/>
      <point x="300.04918032786884" y="400.0245901639344" type="line" smooth="yes"/>
      <point x="330.0655737704918" y="400.0245901639344"/>
      <point x="330.0655737704918" y="430.0409836065574" type="qcurve" smooth="yes"/>
      <point x="330.0655737704918" y="530.0819672131148" type="line" smooth="yes"/>
      <point x="330.0655737704918" y="559.860655737705"/>
      <point x="300.04918032786884" y="559.860655737705" type="qcurve" smooth="yes"/>
    </contour>
    <contour>
      <point x="149.13114754098362" y="0.0" type="line"/>
      <point x="149.13114754098362" y="143.172131147541" type="line"/>
      <point x="298.983606557377" y="143.172131147541" type="line"/>
      <point x="298.983606557377" y="0.0" type="line"/>
    </contour>
  </outline>
</glyph>
<glyph name="at" format="2">
  <advance width="807.9590163934427"/>
  <unicode hex="0040"/>
  <outline>
    <contour>
      <point x="82.04098360655738" y="15.721311475409836" type="qcurve" smooth="yes"/>
      <point x="82.04098360655738" y="534.2786885245902" type="line" smooth="yes"/>
      <point x="82.04098360655738" y="690.0"/>
      <point x="237.52459016393442" y="690.0" type="qcurve" smooth="yes"/>
      <point x="725.9180327868852" y="690.0" type="line"/>
      <point x="725.9180327868852" y="60.0" type="line"/>
      <point x="464.0983606557377" y="60.0" type="line" smooth="yes"/>
      <point x="302.0409836065574" y="60.0"/>
      <point x="302.0409836065574" y="222.05737704918033" type="qcurve" smooth="yes"/>
      <point x="302.0409836065574" y="327.94262295081967" type="line" smooth="yes"/>
      <point x="302.0409836065574" y="490.0"/>
      <point x="464.0983606557377" y="490.0" type="qcurve" smooth="yes"/>
      <point x="601.8770491803278" y="490.0" type="line"/>
      <point x="601.8770491803278" y="581.8688524590164" type="line"/>
      <point x="241.62295081967213" y="581.8688524590164" type="line" smooth="yes"/>
      <point x="206.08196721311475" y="581.8688524590164"/>
      <point x="206.08196721311475" y="545.5655737704918" type="qcurve" smooth="yes"/>
      <point x="206.08196721311475" y="4.434426229508196" type="line" smooth="yes"/>
      <point x="206.08196721311475" y="-31.868852459016395"/>
      <point x="241.62295081967213" y="-31.868852459016395" type="qcurve" smooth="yes"/>
      <point x="705.9180327868852" y="-31.868852459016395" type="line"/>
      <point x="705.9180327868852" y="-95.3688524590164" type="line"/>
      <point x="645.9016393442623" y="-140.0" type="line"/>
      <point x="237.52459016393442" y="-140.0" type="line" smooth="yes"/>
      <point x="82.04098360655738" y="-140.0"/>
    </contour>
    <contour>
      <point x="440.04098360655735" y="212.05737704918033" type="line" smooth="yes"/>
      <point x="440.04098360655735" y="180.04098360655738"/>
      <point x="472.05737704918033" y="180.04098360655738" type="qcurve" smooth="yes"/>
      <point x="587.9180327868853" y="180.04098360655738" type="line"/>
      <point x="587.9180327868853" y="369.95901639344265" type="line"/>
      <point x="472.05737704918033" y="369.95901639344265" type="line" smooth="yes"/>
      <point x="440.04098360655735" y="369.95901639344265"/>
      <point x="440.04098360655735" y="337.94262295081967" type="qcurve" smooth="yes"/>
    </contour>
  </outline>
</glyph>
<glyph name="A" format="2">
  <advance width="665.9344262295082"/>
  <unicode hex="0041"/>
  <outline>
    <contour>
      <point x="17.950819672131146" y="27.483606557377048" type="line"/>
      <point x="223.40983606557376" y="690.0" type="line"/>
      <point x="442.7622950819672" y="690.0" type="line"/>
      <point x="647.983606557377" y="27.483606557377048" type="line"/>
      <point x="630.0737704918033" y="0.0" type="line"/>
      <point x="509.5081967213115" y="0.0" type="line"/>
      <point x="467.9016393442623" y="139.87704918032787" type="line"/>
      <point x="198.0327868852459" y="139.87704918032787" type="line"/>
      <point x="156.4262295081967" y="0.0" type="line"/>
      <point x="36.09836065573771" y="0.0" type="line"/>
    </contour>
    <contour>
      <point x="237.13934426229508" y="270.0163934426229" type="line"/>
      <point x="429.0327868852459" y="270.0163934426229" type="line"/>
      <point x="341.10655737704917" y="559.860655737705" type="line"/>
      <point x="325.0655737704918" y="559.860655737705" type="line"/>
    </contour>
  </outline>
</glyph>
<glyph name="B" format="2">
  <advance width="651.9590163934427"/>
  <unicode hex="0042"/>
  <outline>
    <contour>
      <point x="82.04098360655738" y="0.0" type="line"/>
      <point x="82.04098360655738" y="690.0" type="line"/>
      <point x="407.5245901639344" y="690.0" type="line" smooth="yes"/>
      <point x="575.9180327868852" y="690.0"/>
      <point x="575.9180327868852" y="521.6065573770492" type="qcurve" smooth="yes"/>
      <point x="575.9180327868852" y="462.09016393442624" type="line" smooth="yes"/>
      <point x="575.9180327868852" y="428.09016393442624"/>
      <point x="555.9180327868852" y="404.09016393442624" type="qcurve" smooth="yes"/>
      <point x="520.9180327868852" y="362.09016393442624" type="line"/>
      <point x="562.9180327868852" y="327.09016393442624" type="line" smooth="yes"/>
      <point x="595.9180327868852" y="300.09016393442624"/>
      <point x="595.9180327868852" y="247.09016393442624" type="qcurve" smooth="yes"/>
      <point x="595.9180327868852" y="168.39344262295083" type="line" smooth="yes"/>
      <point x="595.9180327868852" y="0.0"/>
      <point x="427.5245901639344" y="0.0" type="qcurve" smooth="yes"/>
    </contour>
    <contour>
      <point x="226.09016393442624" y="130.13934426229508" type="line"/>
      <point x="422.09016393442624" y="130.13934426229508" type="line" smooth="yes"/>
      <point x="451.8688524590164" y="130.13934426229508"/>
      <point x="451.8688524590164" y="159.91803278688525" type="qcurve" smooth="yes"/>
      <point x="451.8688524590164" y="260.0983606557377" type="line" smooth="yes"/>
      <point x="451.8688524590164" y="289.87704918032784"/>
      <point x="422.09016393442624" y="289.87704918032784" type="qcurve" smooth="yes"/>
      <point x="226.09016393442624" y="289.87704918032784" type="line"/>
    </contour>
    <contour>
      <point x="226.09016393442624" y="420.0163934426229" type="line"/>
      <point x="402.09016393442624" y="420.0163934426229" type="line" smooth="yes"/>
      <point x="431.8688524590164" y="420.0163934426229"/>
      <point x="431.8688524590164" y="450.0327868852459" type="qcurve" smooth="yes"/>
      <point x="431.8688524590164" y="530.0819672131148" type="line" smooth="yes"/>
      <point x="431.8688524590164" y="559.860655737705"/>
      <point x="402.09016393442624" y="559.860655737705" type="qcurve" smooth="yes"/>
      <point x="226.09016393442624" y="559.860655737705" type="line"/>
    </contour>
  </outline>
</glyph>
<glyph name="C" format="2">
  <advance width="624.1065573770492"/>
  <unicode hex="0043"/>
  <outline>
    <contour>
      <point x="72.04098360655738" y="168.39344262295083" type="qcurve" smooth="yes"/>
      <point x="72.04098360655738" y="521.6065573770492" type="line" smooth="yes"/>
      <point x="72.04098360655738" y="690.0"/>
      <point x="240.4344262295082" y="690.0" type="qcurve" smooth="yes"/>
      <point x="507.0409836065574" y="690.0" type="line"/>
      <point x="574.1065573770492" y="638.3196721311475" type="line"/>
      <point x="574.1065573770492" y="559.860655737705" type="line"/>
      <point x="246.10655737704917" y="559.860655737705" type="line" smooth="yes"/>
      <point x="216.09016393442624" y="559.860655737705"/>
      <point x="216.09016393442624" y="530.0819672131148" type="qcurve" smooth="yes"/>
      <point x="216.09016393442624" y="159.91803278688525" type="line" smooth="yes"/>
      <point x="216.09016393442624" y="130.13934426229508"/>
      <point x="246.10655737704917" y="130.13934426229508" type="qcurve" smooth="yes"/>
      <point x="574.1065573770492" y="130.13934426229508" type="line"/>
      <point x="574.1065573770492" y="51.68032786885246" type="line"/>
      <point x="507.0409836065574" y="0.0" type="line"/>
      <point x="240.4344262295082" y="0.0" type="line" smooth="yes"/>
      <point x="72.04098360655738" y="0.0"/>
    </contour>
  </outline>
</glyph>
<glyph name="D" format="2">
  <advance width="687.9590163934427"/>
  <unicode hex="0044"/>
  <outline>
    <contour>
      <point x="82.04098360655738" y="0.0" type="line"/>
      <point x="82.04098360655738" y="690.0" type="line"/>
      <point x="344.08196721311475" y="690.0" type="line" smooth="yes"/>
      <point x="625.9180327868852" y="690.0"/>
      <point x="625.9180327868852" y="407.92622950819674" type="qcurve" smooth="yes"/>
      <point x="625.9180327868852" y="282.07377049180326" type="line" smooth="yes"/>
      <point x="625.9180327868852" y="0.0"/>
      <point x="344.08196721311475" y="0.0" type="qcurve" smooth="yes"/>
    </contour>
    <contour>
      <point x="226.09016393442624" y="130.13934426229508" type="line"/>
      <point x="352.41803278688525" y="130.13934426229508" type="line" smooth="yes"/>
      <point x="481.8688524590164" y="130.13934426229508"/>
      <point x="481.8688524590164" y="260.3524590163934" type="qcurve" smooth="yes"/>
      <point x="481.8688524590164" y="429.6475409836066" type="line" smooth="yes"/>
      <point x="481.8688524590164" y="559.860655737705"/>
      <point x="352.41803278688525" y="559.860655737705" type="qcurve" smooth="yes"/>
      <point x="226.09016393442624" y="559.860655737705" type="line"/>
    </contour>
  </outline>
</glyph>
<glyph name="E" format="2">
  <advance width="604.1065573770492"/>
  <unicode hex="0045"/>
  <outline>
    <contour>
      <point x="82.04098360655738" y="0.0" type="line"/>
      <point x="82.04098360655738" y="690.0" type="line"/>
      <point x="554.1065573770492" y="690.0" type="line"/>
      <point x="554.1065573770492" y="559.860655737705" type="line"/>
      <point x="226.09016393442624" y="559.860655737705" type="line"/>
      <point x="226.09016393442624" y="420.0163934426229" type="line"/>
      <point x="524.1065573770492" y="420.0163934426229" type="line"/>
      <point x="524.1065573770492" y="289.87704918032784" type="line"/>
      <point x="226.09016393442624" y="289.87704918032784" type="line"/>
      <point x="226.09016393442624" y="130.13934426229508" type="line"/>
      <point x="554.1065573770492" y="130.13934426229508" type="line"/>
      <point x="554.1065573770492" y="0.0" type="line"/>
    </contour>
  </outline>
</glyph>
<glyph name="F" format="2">
  <advance width="584.1065573770492"/>
  <unicode hex="0046"/>
  <outline>
    <contour>
      <point x="82.04098360655738" y="0.0" type="line"/>
      <point x="82.04098360655738" y="690.0" type="line"/>
      <point x="554.1065573770492" y="690.0" type="line"/>
      <point x="554.1065573770492" y="559.860655737705" type="line"/>
      <point x="226.09016393442624" y="559.860655737705" type="line"/>
      <point x="226.09016393442624" y="390.0163934426229" type="line"/>
      <point x="524.1065573770492" y="390.0163934426229" type="line"/>
      <point x="524.1065573770492" y="259.87704918032784" type="line"/>
      <point x="226.09016393442624" y="259.87704918032784" type="line"/>
      <point x="226.09016393442624" y="0.0" type="line"/>
    </contour>
  </outline>
</glyph>
<glyph name="G" format="2">
  <advance width="677.9590163934427"/>
  <unicode hex="0047"/>
  <outline>
    <contour>
      <point x="72.04098360655738" y="168.39344262295083" type="qcurve" smooth="yes"/>
      <point x="72.04098360655738" y="521.6065573770492" type="line" smooth="yes"/>
      <point x="72.04098360655738" y="690.0"/>
      <point x="240.4344262295082" y="690.0" type="qcurve" smooth="yes"/>
      <point x="529.0901639344262" y="690.0" type="line"/>
      <point x="595.9180327868852" y="638.3196721311475" type="line"/>
      <point x="595.9180327868852" y="559.860655737705" type="line"/>
      <point x="246.10655737704917" y="559.860655737705" type="line" smooth="yes"/>
      <point x="216.09016393442624" y="559.860655737705"/>
      <point x="216.09016393442624" y="530.0819672131148" type="qcurve" smooth="yes"/>
      <point x="216.09016393442624" y="159.91803278688525" type="line" smooth="yes"/>
      <point x="216.09016393442624" y="130.13934426229508"/>
      <point x="246.10655737704917" y="130.13934426229508" type="qcurve" smooth="yes"/>
      <point x="471.8688524590164" y="130.13934426229508" type="line"/>
      <point x="471.8688524590164" y="289.87704918032784" type="line"/>
      <point x="340.09016393442624" y="289.87704918032784" type="line"/>
      <point x="340.09016393442624" y="420.0163934426229" type="line"/>
      <point x="615.9180327868852" y="420.0163934426229" type="line"/>
      <point x="615.9180327868852" y="0.0" type="line"/>
      <point x="240.4344262295082" y="0.0" type="line" smooth="yes"/>
      <point x="72.04098360655738" y="0.0"/>
    </contour>
  </outline>
</glyph>
<glyph name="H" format="2">
  <advance width="707.9590163934427"/>
  <unicode hex="0048"/>
  <outline>
    <contour>
      <point x="82.04098360655738" y="0.0" type="line"/>
      <point x="82.04098360655738" y="690.0" type="line"/>
      <point x="226.09016393442624" y="690.0" type="line"/>
      <point x="226.09016393442624" y="420.0163934426229" type="line"/>
      <point x="481.8688524590164" y="420.0163934426229" type="line"/>
      <point x="481.8688524590164" y="690.0" type="line"/>
      <point x="625.9180327868852" y="690.0" type="line"/>
      <point x="625.9180327868852" y="0.0" type="line"/>
      <point x="481.8688524590164" y="0.0" type="line"/>
      <point x="481.8688524590164" y="289.87704918032784" type="line"/>
      <point x="226.09016393442624" y="289.87704918032784" type="line"/>
      <point x="226.09016393442624" y="0.0" type="line"/>
    </contour>
  </outline>
</glyph>
<glyph name="I" format="2">
  <advance width="308.1311475409836"/>
  <unicode hex="0049"/>
  <outline>
    <contour>
      <point x="82.04098360655738" y="0.0" type="line"/>
      <point x="82.04098360655738" y="690.0" type="line"/>
      <point x="226.09016393442624" y="690.0" type="line"/>
      <point x="226.09016393442624" y="0.0" type="line"/>
    </contour>
  </outline>
</glyph>
<glyph name="J" format="2">
  <advance width="611.9590163934427"/>
  <unicode hex="004A"/>
  <outline>
    <contour>
      <point x="52.040983606557376" y="168.39344262295083" type="qcurve" smooth="yes"/>
      <point x="52.040983606557376" y="300.0327868852459" type="line"/>
      <point x="196.09016393442624" y="300.0327868852459" type="line"/>
      <point x="196.09016393442624" y="159.91803278688525" type="line" smooth="yes"/>
      <point x="196.09016393442624" y="130.13934426229508"/>
      <point x="226.10655737704917" y="130.13934426229508" type="qcurve" smooth="yes"/>
      <point x="362.09016393442624" y="130.13934426229508" type="line" smooth="yes"/>
      <point x="391.8688524590164" y="130.13934426229508"/>
      <point x="391.8688524590164" y="159.91803278688525" type="qcurve" smooth="yes"/>
      <point x="391.8688524590164" y="559.860655737705" type="line"/>
      <point x="204.09016393442624" y="559.860655737705" type="line"/>
      <point x="204.09016393442624" y="690.0" type="line"/>
      <point x="535.9180327868852" y="690.0" type="line"/>
      <point x="535.9180327868852" y="168.39344262295083" type="line" smooth="yes"/>
      <point x="535.9180327868852" y="0.0"/>
      <point x="367.5245901639344" y="0.0" type="qcurve" smooth="yes"/>
      <point x="220.4344262295082" y="0.0" type="line" smooth="yes"/>
      <point x="52.040983606557376" y="0.0"/>
    </contour>
  </outline>
</glyph>
<glyph name="K" format="2">
  <advance width="672.0819672131147"/>
  <unicode hex="004B"/>
  <outline>
    <contour>
      <point x="82.04098360655738" y="0.0" type="line"/>
      <point x="82.04098360655738" y="690.0" type="line"/>
      <point x="226.09016393442624" y="690.0" type="line"/>
      <point x="226.09016393442624" y="417.3524590163934" type="line"/>
      <point x="470.45901639344265" y="690.0" type="line"/>
      <point x="605.4590163934427" y="690.0" type="line"/>
      <point x="619.0819672131147" y="660.9918032786885" type="line"/>
      <point x="390.327868852459" y="406.0" type="line"/>
      <point x="644.1311475409836" y="29.008196721311474" type="line"/>
      <point x="630.5081967213115" y="0.0" type="line"/>
      <point x="498.08196721311475" y="0.0" type="line"/>
      <point x="297.344262295082" y="301.6311475409836" type="line"/>
      <point x="226.09016393442624" y="225.28688524590163" type="line"/>
      <point x="226.09016393442624" y="0.0" type="line"/>
    </contour>
  </outline>
</glyph>
<glyph name="L" format="2">
  <advance width="548.1065573770492"/>
  <unicode hex="004C"/>
  <outline>
    <contour>
      <point x="82.04098360655738" y="0.0" type="line"/>
      <point x="82.04098360655738" y="690.0" type="line"/>
      <point x="226.09016393442624" y="690.0" type="line"/>
      <point x="226.09016393442624" y="130.13934426229508" type="line"/>
      <point x="524.1065573770492" y="130.13934426229508" type="line"/>
      <point x="524.1065573770492" y="0.0" type="line"/>
    </contour>
  </outline>
</glyph>
<glyph name="M" format="2">
  <advance width="895.5983606557377"/>
  <unicode hex="004D"/>
  <outline>
    <contour>
      <point x="82.04098360655738" y="0.0" type="line"/>
      <point x="82.04098360655738" y="690.0" type="line"/>
      <point x="253.61475409836066" y="690.0" type="line"/>
      <point x="447.91803278688525" y="275.9672131147541" type="line"/>
      <point x="641.983606557377" y="690.0" type="line"/>
      <point x="813.5573770491803" y="690.0" type="line"/>
      <point x="813.5573770491803" y="0.0" type="line"/>
      <point x="669.5081967213115" y="0.0" type="line"/>
      <point x="669.5081967213115" y="435.94262295081967" type="line"/>
      <point x="507.6967213114754" y="89.99180327868852" type="line"/>
      <point x="387.9016393442623" y="89.99180327868852" type="line"/>
      <point x="226.09016393442624" y="435.94262295081967" type="line"/>
      <point x="226.09016393442624" y="0.0" type="line"/>
    </contour>
  </outline>
</glyph>
<glyph name="N" format="2">
  <advance width="737.9672131147541"/>
  <unicode hex="004E"/>
  <outline>
    <contour>
      <point x="82.04098360655738" y="0.0" type="line"/>
      <point x="82.04098360655738" y="690.0" type="line"/>
      <point x="238.4262295081967" y="690.0" type="line"/>
      <point x="511.87704918032784" y="236.75409836065572" type="line"/>
      <point x="511.87704918032784" y="690.0" type="line"/>
      <point x="655.9262295081967" y="690.0" type="line"/>
      <point x="655.9262295081967" y="0.0" type="line"/>
      <point x="500.3032786885246" y="0.0" type="line"/>
      <point x="226.09016393442624" y="453.2459016393443" type="line"/>
      <point x="226.09016393442624" y="0.0" type="line"/>
    </contour>
  </outline>
</glyph>
<glyph name="P" format="2">
  <advance width="637.9590163934427"/>
  <unicode hex="0050"/>
  <outline>
    <contour>
      <point x="82.04098360655738" y="0.0" type="line"/>
      <point x="82.04098360655738" y="690.0" type="line"/>
      <point x="417.5245901639344" y="690.0" type="line" smooth="yes"/>
      <point x="585.9180327868852" y="690.0"/>
      <point x="585.9180327868852" y="521.6065573770492" type="qcurve" smooth="yes"/>
      <point x="585.9180327868852" y="387.5081967213115" type="line" smooth="yes"/>
      <point x="585.9180327868852" y="219.87704918032787"/>
      <point x="417.5245901639344" y="219.87704918032787" type="qcurve" smooth="yes"/>
      <point x="226.09016393442624" y="219.87704918032787" type="line"/>
      <point x="226.09016393442624" y="0.0" type="line"/>
    </contour>
    <contour>
      <point x="226.09016393442624" y="350.0163934426229" type="line"/>
      <point x="412.09016393442624" y="350.0163934426229" type="line" smooth="yes"/>
      <point x="441.8688524590164" y="350.0163934426229"/>
      <point x="441.8688524590164" y="380.0327868852459" type="qcurve" smooth="yes"/>
      <point x="441.8688524590164" y="530.0819672131148" type="line" smooth="yes"/>
      <point x="441.8688524590164" y="559.860655737705"/>
      <point x="412.09016393442624" y="559.860655737705" type="qcurve" smooth="yes"/>
      <point x="226.09016393442624" y="559.860655737705" type="line"/>
    </contour>
  </outline>
</glyph>
<glyph name="Q" format="2">
  <advance width="707.9590163934427"/>
  <unicode hex="0051"/>
  <outline>
    <contour>
      <point x="72.04098360655738" y="168.39344262295083" type="qcurve" smooth="yes"/>
      <point x="72.04098360655738" y="521.6065573770492" type="line" smooth="yes"/>
      <point x="72.04098360655738" y="690.0"/>
      <point x="240.4344262295082" y="690.0" type="qcurve" smooth="yes"/>
      <point x="467.5245901639344" y="690.0" type="line" smooth="yes"/>
      <point x="635.9180327868852" y="690.0"/>
      <point x="635.9180327868852" y="521.6065573770492" type="qcurve" smooth="yes"/>
      <point x="635.9180327868852" y="168.15573770491804" type="line" smooth="yes"/>
      <point x="635.9180327868852" y="30.967213114754095"/>
      <point x="523.1229508196722" y="7.6229508196721305" type="qcurve"/>
      <point x="588.311475409836" y="-119.99180327868852" type="line"/>
      <point x="571.4016393442623" y="-150.0" type="line"/>
      <point x="447.0245901639344" y="-150.0" type="line"/>
      <point x="371.0245901639344" y="0.0" type="line"/>
      <point x="240.4344262295082" y="0.0" type="line" smooth="yes"/>
      <point x="72.04098360655738" y="0.0"/>
    </contour>
    <contour>
      <point x="216.09016393442624" y="159.91803278688525" type="line" smooth="yes"/>
      <point x="216.09016393442624" y="130.13934426229508"/>
      <point x="246.10655737704917" y="130.13934426229508" type="qcurve" smooth="yes"/>
      <point x="462.09016393442624" y="130.13934426229508" type="line" smooth="yes"/>
      <point x="491.8688524590164" y="130.13934426229508"/>
      <point x="491.8688524590164" y="159.91803278688525" type="qcurve" smooth="yes"/>
      <point x="491.8688524590164" y="530.0819672131148" type="line" smooth="yes"/>
      <point x="491.8688524590164" y="559.860655737705"/>
      <point x="462.09016393442624" y="559.860655737705" type="qcurve" smooth="yes"/>
      <point x="246.10655737704917" y="559.860655737705" type="line" smooth="yes"/>
      <point x="216.09016393442624" y="559.860655737705"/>
      <point x="216.09016393442624" y="530.0819672131148" type="qcurve" smooth="yes"/>
    </contour>
  </outline>
</glyph>
<glyph name="R" format="2">
  <advance width="647.9590163934427"/>
  <unicode hex="0052"/>
  <outline>
    <contour>
      <point x="82.04098360655738" y="0.0" type="line"/>
      <point x="82.04098360655738" y="690.0" type="line"/>
      <point x="417.5245901639344" y="690.0" type="line" smooth="yes"/>
      <point x="585.9180327868852" y="690.0"/>
      <point x="585.9180327868852" y="521.6065573770492" type="qcurve" smooth="yes"/>
      <point x="585.9180327868852" y="407.5081967213115" type="line" smooth="yes"/>
      <point x="585.9180327868852" y="282.89344262295083"/>
      <point x="492.88524590163934" y="251.54918032786884" type="qcurve"/>
      <point x="605.9180327868852" y="30.008196721311474" type="line"/>
      <point x="589.0081967213115" y="0.0" type="line"/>
      <point x="465.39344262295083" y="0.0" type="line"/>
      <point x="343.07377049180326" y="239.87704918032787" type="line"/>
      <point x="226.09016393442624" y="239.87704918032787" type="line"/>
      <point x="226.09016393442624" y="0.0" type="line"/>
    </contour>
    <contour>
      <point x="226.09016393442624" y="370.0163934426229" type="line"/>
      <point x="412.09016393442624" y="370.0163934426229" type="line" smooth="yes"/>
      <point x="441.8688524590164" y="370.0163934426229"/>
      <point x="441.8688524590164" y="400.0327868852459" type="qcurve" smooth="yes"/>
      <point x="441.8688524590164" y="530.0819672131148" type="line" smooth="yes"/>
      <point x="441.8688524590164" y="559.860655737705"/>
      <point x="412.09016393442624" y="559.860655737705" type="qcurve" smooth="yes"/>
      <point x="226.09016393442624" y="559.860655737705" type="line"/>
    </contour>
  </outline>
</glyph>
<glyph name="S" format="2">
  <advance width="587.9590163934427"/>
  <unicode hex="0053"/>
  <outline>
    <contour>
      <point x="52.040983606557376" y="51.68032786885246" type="line"/>
      <point x="52.040983606557376" y="130.13934426229508" type="line"/>
      <point x="362.09016393442624" y="130.13934426229508" type="line" smooth="yes"/>
      <point x="391.8688524590164" y="130.13934426229508"/>
      <point x="391.8688524590164" y="159.91803278688525" type="qcurve" smooth="yes"/>
      <point x="391.8688524590164" y="232.4344262295082" type="line" smooth="yes"/>
      <point x="391.8688524590164" y="260.6967213114754"/>
      <point x="367.0327868852459" y="265.3114754098361" type="qcurve" smooth="yes"/>
      <point x="172.04918032786884" y="305.21311475409834" type="line" smooth="yes"/>
      <point x="52.040983606557376" y="328.5"/>
      <point x="52.040983606557376" y="465.7950819672131" type="qcurve" smooth="yes"/>
      <point x="52.040983606557376" y="521.6065573770492" type="line" smooth="yes"/>
      <point x="52.040983606557376" y="690.0"/>
      <point x="220.4344262295082" y="690.0" type="qcurve" smooth="yes"/>
      <point x="449.09016393442624" y="690.0" type="line"/>
      <point x="515.9180327868852" y="638.3196721311475" type="line"/>
      <point x="515.9180327868852" y="559.860655737705" type="line"/>
      <point x="226.10655737704917" y="559.860655737705" type="line" smooth="yes"/>
      <point x="196.09016393442624" y="559.860655737705"/>
      <point x="196.09016393442624" y="530.0819672131148" type="qcurve" smooth="yes"/>
      <point x="196.09016393442624" y="464.655737704918" type="line" smooth="yes"/>
      <point x="196.09016393442624" y="436.91803278688525"/>
      <point x="220.9262295081967" y="431.54098360655735" type="qcurve" smooth="yes"/>
      <point x="415.90983606557376" y="393.4016393442623" type="line" smooth="yes"/>
      <point x="535.9180327868852" y="368.59016393442624"/>
      <point x="535.9180327868852" y="232.05737704918033" type="qcurve" smooth="yes"/>
      <point x="535.9180327868852" y="168.39344262295083" type="line" smooth="yes"/>
      <point x="535.9180327868852" y="0.0"/>
      <point x="367.5245901639344" y="0.0" type="qcurve" smooth="yes"/>
      <point x="119.10655737704917" y="0.0" type="line"/>
    </contour>
  </outline>
</glyph>
<glyph name="T" format="2">
  <advance width="612.016393442623"/>
  <unicode hex="0054"/>
  <outline>
    <contour>
      <point x="24.0" y="559.860655737705" type="line"/>
      <point x="24.0" y="690.0" type="line"/>
      <point x="588.016393442623" y="690.0" type="line"/>
      <point x="588.016393442623" y="559.860655737705" type="line"/>
      <point x="378.0327868852459" y="559.860655737705" type="line"/>
      <point x="378.0327868852459" y="0.0" type="line"/>
      <point x="233.98360655737704" y="0.0" type="line"/>
      <point x="233.98360655737704" y="559.860655737705" type="line"/>
    </contour>
  </outline>
</glyph>
<glyph name="U" format="2">
  <advance width="695.9590163934427"/>
  <unicode hex="0055"/>
  <outline>
    <contour>
      <point x="76.04098360655738" y="168.39344262295083" type="qcurve" smooth="yes"/>
      <point x="76.04098360655738" y="690.0" type="line"/>
      <point x="220.09016393442624" y="690.0" type="line"/>
      <point x="220.09016393442624" y="159.91803278688525" type="line" smooth="yes"/>
      <point x="220.09016393442624" y="130.13934426229508"/>
      <point x="250.10655737704917" y="130.13934426229508" type="qcurve" smooth="yes"/>
      <point x="446.09016393442624" y="130.13934426229508" type="line" smooth="yes"/>
      <point x="475.8688524590164" y="130.13934426229508"/>
      <point x="475.8688524590164" y="159.91803278688525" type="qcurve" smooth="yes"/>
      <point x="475.8688524590164" y="690.0" type="line"/>
      <point x="619.9180327868852" y="690.0" type="line"/>
      <point x="619.9180327868852" y="168.39344262295083" type="line" smooth="yes"/>
      <point x="619.9180327868852" y="0.0"/>
      <point x="451.5245901639344" y="0.0" type="qcurve" smooth="yes"/>
      <point x="244.4344262295082" y="0.0" type="line" smooth="yes"/>
      <point x="76.04098360655738" y="0.0"/>
    </contour>
  </outline>
</glyph>
<glyph name="V" format="2">
  <advance width="655.9344262295082"/>
  <unicode hex="0056"/>
  <outline>
    <contour>
      <point x="17.950819672131146" y="662.516393442623" type="line"/>
      <point x="36.09836065573771" y="690.0" type="line"/>
      <point x="162.52459016393442" y="690.0" type="line"/>
      <point x="320.0655737704918" y="130.13934426229508" type="line"/>
      <point x="336.10655737704917" y="130.13934426229508" type="line"/>
      <point x="493.6475409836066" y="690.0" type="line"/>
      <point x="620.0737704918033" y="690.0" type="line"/>
      <point x="637.983606557377" y="662.516393442623" type="line"/>
      <point x="442.04918032786884" y="0.0" type="line"/>
      <point x="213.88524590163934" y="0.0" type="line"/>
    </contour>
  </outline>
</glyph>
<glyph name="W" format="2">
  <advance width="955.9344262295082"/>
  <unicode hex="0057"/>
  <outline>
    <contour>
      <point x="27.950819672131146" y="662.516393442623" type="line"/>
      <point x="47.62295081967213" y="690.0" type="line"/>
      <point x="165.95081967213116" y="690.0" type="line"/>
      <point x="277.3524590163934" y="130.13934426229508" type="line"/>
      <point x="287.77868852459017" y="130.13934426229508" type="line"/>
      <point x="407.4672131147541" y="624.0081967213115" type="line"/>
      <point x="548.7049180327868" y="624.0081967213115" type="line"/>
      <point x="668.155737704918" y="130.13934426229508" type="line"/>
      <point x="678.8196721311475" y="130.13934426229508" type="line"/>
      <point x="789.983606557377" y="690.0" type="line"/>
      <point x="908.311475409836" y="690.0" type="line"/>
      <point x="927.983606557377" y="662.516393442623" type="line"/>
      <point x="793.0983606557377" y="0.0" type="line"/>
      <point x="564.0245901639345" y="0.0" type="line"/>
      <point x="477.9672131147541" y="364.8114754098361" type="line"/>
      <point x="391.90983606557376" y="0.0" type="line"/>
      <point x="163.0737704918033" y="0.0" type="line"/>
    </contour>
  </outline>
</glyph>
<glyph name="X" format="2">
  <advance width="645.9344262295082"/>
  <unicode hex="0058"/>
  <outline>
    <contour>
      <point x="27.950819672131146" y="29.008196721311474" type="line"/>
      <point x="243.89344262295083" y="355.0" type="line"/>
      <point x="40.950819672131146" y="660.9918032786885" type="line"/>
      <point x="54.57377049180328" y="690.0" type="line"/>
      <point x="180.95081967213116" y="690.0" type="line"/>
      <point x="322.9672131147541" y="470.04098360655735" type="line"/>
      <point x="464.9836065573771" y="690.0" type="line"/>
      <point x="591.360655737705" y="690.0" type="line"/>
      <point x="604.983606557377" y="660.9918032786885" type="line"/>
      <point x="402.04098360655735" y="355.0" type="line"/>
      <point x="617.983606557377" y="29.008196721311474" type="line"/>
      <point x="603.5983606557377" y="0.0" type="line"/>
      <point x="477.9836065573771" y="0.0" type="line"/>
      <point x="322.9672131147541" y="239.4344262295082" type="line"/>
      <point x="167.95081967213116" y="0.0" type="line"/>
      <point x="42.33606557377049" y="0.0" type="line"/>
    </contour>
  </outline>
</glyph>
<glyph name="Y" format="2">
  <advance width="615.9344262295082"/>
  <unicode hex="0059"/>
  <outline>
    <contour>
      <point x="17.950819672131146" y="662.516393442623" type="line"/>
      <point x="35.09836065573771" y="690.0" type="line"/>
      <point x="157.95081967213116" y="690.0" type="line"/>
      <point x="307.9672131147541" y="396.95081967213116" type="line"/>
      <point x="457.9836065573771" y="690.0" type="line"/>
      <point x="581.0737704918033" y="690.0" type="line"/>
      <point x="597.983606557377" y="662.516393442623" type="line"/>
      <point x="379.9918032786885" y="243.94262295081967" type="line"/>
      <point x="379.9918032786885" y="0.0" type="line"/>
      <point x="235.94262295081967" y="0.0" type="line"/>
      <point x="235.94262295081967" y="243.94262295081967" type="line"/>
    </contour>
  </outline>
</glyph>
<glyph name="Z" format="2">
  <advance width="607.9590163934427"/>
  <unicode hex="005A"/>
  <outline>
    <contour>
      <point x="42.040983606557376" y="0.0" type="line"/>
      <point x="42.040983606557376" y="111.65573770491802" type="line"/>
      <point x="373.9016393442623" y="559.860655737705" type="line"/>
      <point x="52.040983606557376" y="559.860655737705" type="line"/>
      <point x="52.040983606557376" y="690.0" type="line"/>
      <point x="555.9180327868852" y="690.0" type="line"/>
      <point x="555.9180327868852" y="578.344262295082" type="line"/>
      <point x="224.05737704918033" y="130.13934426229508" type="line"/>
      <point x="565.9180327868852" y="130.13934426229508" type="line"/>
      <point x="565.9180327868852" y="0.0" type="line"/>
    </contour>
  </outline>
</glyph>
<glyph name="bracketleft" format="2">
  <advance width="382.08196721311475"/>
  <unicode hex="005B"/>
  <outline>
    <contour>
      <point x="82.04098360655738" y="-180.0" type="line"/>
      <point x="82.04098360655738" y="760.0" type="line"/>
      <point x="352.08196721311475" y="760.0" type="line"/>
      <point x="352.08196721311475" y="639.9590163934427" type="line"/>
      <point x="220.04098360655738" y="639.9590163934427" type="line"/>
      <point x="220.04098360655738" y="-59.959016393442624" type="line"/>
      <point x="352.08196721311475" y="-59.959016393442624" type="line"/>
      <point x="352.08196721311475" y="-180.0" type="line"/>
    </contour>
  </outline>
</glyph>
<glyph name="bracketright" format="2">
  <advance width="382.08196721311475"/>
  <unicode hex="005D"/>
  <outline>
    <contour>
      <point x="30.0" y="-59.959016393442624" type="line"/>
      <point x="162.04098360655738" y="-59.959016393442624" type="line"/>
      <point x="162.04098360655738" y="639.9590163934427" type="line"/>
      <point x="30.0" y="639.9590163934427" type="line"/>
      <point x="30.0" y="760.0" type="line"/>
      <point x="300.04098360655735" y="760.0" type="line"/>
      <point x="300.04098360655735" y="-180.0" type="line"/>
      <point x="30.0" y="-180.0" type="line"/>
    </contour>
  </outline>
</glyph>
<glyph name="asciicircum" format="2">
  <advance width="564.1147540983607"/>
  <unicode hex="005E"/>
  <outline>
    <contour>
      <point x="32.040983606557376" y="356.2950819672131" type="line"/>
      <point x="215.60655737704917" y="690.0" type="line"/>
      <point x="348.5081967213115" y="690.0" type="line"/>
      <point x="532.0737704918033" y="356.2950819672131" type="line"/>
      <point x="426.9918032786885" y="297.94262295081967" type="line"/>
      <point x="282.05737704918033" y="563.672131147541" type="line"/>
      <point x="137.12295081967213" y="297.94262295081967" type="line"/>
    </contour>
  </outline>
</glyph>
<glyph name="underscore" format="2">
  <advance width="580.0"/>
  <unicode hex="005F"/>
  <outline>
    <contour>
      <point x="40.0" y="-82.00819672131148" type="line"/>
      <point x="540.0" y="-82.00819672131148" type="line"/>
      <point x="540.0" y="-200.0" type="line"/>
      <point x="40.0" y="-200.0" type="line"/>
    </contour>
  </outline>
</glyph>
<glyph name="a" format="2">
  <advance width="549.9590163934427"/>
  <unicode hex="0061"/>
  <outline>
    <contour>
      <point x="206.3360655737705" y="0.0" type="line" smooth="yes"/>
      <point x="44.040983606557376" y="0.0"/>
      <point x="44.040983606557376" y="317.91803278688525"/>
      <point x="206.3360655737705" y="317.91803278688525" type="qcurve" smooth="yes"/>
      <point x="343.91803278688525" y="317.91803278688525" type="line"/>
      <point x="343.91803278688525" y="375.9016393442623" type="line" smooth="yes"/>
      <point x="343.91803278688525" y="407.91803278688525"/>
      <point x="311.9016393442623" y="407.91803278688525" type="qcurve" smooth="yes"/>
      <point x="99.95081967213115" y="407.91803278688525" type="line"/>
      <point x="99.95081967213115" y="483.327868852459" type="line"/>
      <point x="159.9672131147541" y="527.9590163934427" type="line"/>
      <point x="320.0983606557377" y="527.9590163934427" type="line" smooth="yes"/>
      <point x="481.91803278688525" y="527.9590163934427"/>
      <point x="481.91803278688525" y="365.9016393442623" type="qcurve" smooth="yes"/>
      <point x="481.91803278688525" y="0.0" type="line"/>
    </contour>
    <contour>
      <point x="182.04098360655738" y="152.05737704918033" type="line" smooth="yes"/>
      <point x="182.04098360655738" y="120.04098360655738"/>
      <point x="214.05737704918033" y="120.04098360655738" type="qcurve" smooth="yes"/>
      <point x="343.91803278688525" y="120.04098360655738" type="line"/>
      <point x="343.91803278688525" y="212.36065573770492" type="line"/>
      <point x="214.05737704918033" y="212.36065573770492" type="line" smooth="yes"/>
      <point x="182.04098360655738" y="212.36065573770492"/>
      <point x="182.04098360655738" y="180.34426229508196" type="qcurve" smooth="yes"/>
    </contour>
  </outline>
</glyph>
<glyph name="b" format="2">
  <advance width="589.9590163934427"/>
  <unicode hex="0062"/>
  <outline>
    <contour>
      <point x="72.04098360655738" y="0.0" type="line"/>
      <point x="72.04098360655738" y="740.0" type="line"/>
      <point x="210.04098360655738" y="740.0" type="line"/>
      <point x="210.04098360655738" y="527.9590163934427" type="line"/>
      <point x="364.0983606557377" y="527.9590163934427" type="line" smooth="yes"/>
      <point x="525.9180327868852" y="527.9590163934427"/>
      <point x="525.9180327868852" y="365.9016393442623" type="qcurve" smooth="yes"/>
      <point x="525.9180327868852" y="162.05737704918033" type="line" smooth="yes"/>
      <point x="525.9180327868852" y="0.0"/>
      <point x="364.0983606557377" y="0.0" type="qcurve" smooth="yes"/>
    </contour>
    <contour>
      <point x="210.04098360655738" y="120.04098360655738" type="line"/>
      <point x="355.9016393442623" y="120.04098360655738" type="line" smooth="yes"/>
      <point x="387.91803278688525" y="120.04098360655738"/>
      <point x="387.91803278688525" y="152.05737704918033" type="qcurve" smooth="yes"/>
      <point x="387.91803278688525" y="375.9016393442623" type="line" smooth="yes"/>
      <point x="387.91803278688525" y="407.91803278688525"/>
      <point x="355.9016393442623" y="407.91803278688525" type="qcurve" smooth="yes"/>
      <point x="210.04098360655738" y="407.91803278688525" type="line"/>
    </contour>
  </outline>
</glyph>
<glyph name="c" format="2">
  <advance width="518.1065573770492"/>
  <unicode hex="0063"/>
  <outline>
    <contour>
      <point x="64.04098360655738" y="162.05737704918033" type="qcurve" smooth="yes"/>
      <point x="64.04098360655738" y="365.9016393442623" type="line" smooth="yes"/>
      <point x="64.04098360655738" y="527.9590163934427"/>
      <point x="226.0983606557377" y="527.9590163934427" type="qcurve" smooth="yes"/>
      <point x="412.09016393442624" y="527.9590163934427" type="line"/>
      <point x="472.10655737704917" y="483.327868852459" type="line"/>
      <point x="472.10655737704917" y="407.91803278688525" type="line"/>
      <point x="234.05737704918033" y="407.91803278688525" type="line" smooth="yes"/>
      <point x="202.04098360655738" y="407.91803278688525"/>
      <point x="202.04098360655738" y="375.9016393442623" type="qcurve" smooth="yes"/>
      <point x="202.04098360655738" y="152.05737704918033" type="line" smooth="yes"/>
      <point x="202.04098360655738" y="120.04098360655738"/>
      <point x="234.05737704918033" y="120.04098360655738" type="qcurve" smooth="yes"/>
      <point x="472.10655737704917" y="120.04098360655738" type="line"/>
      <point x="472.10655737704917" y="44.631147540983605" type="line"/>
      <point x="412.09016393442624" y="0.0" type="line"/>
      <point x="226.0983606557377" y="0.0" type="line" smooth="yes"/>
      <point x="64.04098360655738" y="0.0"/>
    </contour>
  </outline>
</glyph>
<glyph name="d" format="2">
  <advance width="589.9590163934427"/>
  <unicode hex="0064"/>
  <outline>
    <contour>
      <point x="64.04098360655738" y="162.05737704918033" type="qcurve" smooth="yes"/>
      <point x="64.04098360655738" y="365.9016393442623" type="line" smooth="yes"/>
      <point x="64.04098360655738" y="527.9590163934427"/>
      <point x="226.0983606557377" y="527.9590163934427" type="qcurve" smooth="yes"/>
      <point x="379.91803278688525" y="527.9590163934427" type="line"/>
      <point x="379.91803278688525" y="740.0" type="line"/>
      <point x="517.9180327868852" y="740.0" type="line"/>
      <point x="517.9180327868852" y="0.0" type="line"/>
      <point x="226.0983606557377" y="0.0" type="line" smooth="yes"/>
      <point x="64.04098360655738" y="0.0"/>
    </contour>
    <contour>
      <point x="202.04098360655738" y="152.05737704918033" type="line" smooth="yes"/>
      <point x="202.04098360655738" y="120.04098360655738"/>
      <point x="234.05737704918033" y="120.04098360655738" type="qcurve" smooth="yes"/>
      <point x="379.91803278688525" y="120.04098360655738" type="line"/>
      <point x="379.91803278688525" y="407.91803278688525" type="line"/>
      <point x="234.05737704918033" y="407.91803278688525" type="line" smooth="yes"/>
      <point x="202.04098360655738" y="407.91803278688525"/>
      <point x="202.04098360655738" y="375.9016393442623" type="qcurve" smooth="yes"/>
    </contour>
  </outline>
</glyph>
<glyph name="e" format="2">
  <advance width="581.9590163934427"/>
  <unicode hex="0065"/>
  <outline>
    <contour>
      <point x="64.04098360655738" y="162.05737704918033" type="qcurve" smooth="yes"/>
      <point x="64.04098360655738" y="365.9016393442623" type="line" smooth="yes"/>
      <point x="64.04098360655738" y="527.9590163934427"/>
      <point x="226.0983606557377" y="527.9590163934427" type="qcurve" smooth="yes"/>
      <point x="356.0983606557377" y="527.9590163934427" type="line" smooth="yes"/>
      <point x="517.9180327868852" y="527.9590163934427"/>
      <point x="517.9180327868852" y="365.9016393442623" type="qcurve" smooth="yes"/>
      <point x="517.9180327868852" y="213.08196721311475" type="line"/>
      <point x="202.04098360655738" y="213.08196721311475" type="line"/>
      <point x="202.04098360655738" y="152.05737704918033" type="line" smooth="yes"/>
      <point x="202.04098360655738" y="120.04098360655738"/>
      <point x="234.05737704918033" y="120.04098360655738" type="qcurve" smooth="yes"/>
      <point x="497.91803278688525" y="120.04098360655738" type="line"/>
      <point x="497.91803278688525" y="44.631147540983605" type="line"/>
      <point x="437.9016393442623" y="0.0" type="line"/>
      <point x="226.0983606557377" y="0.0" type="line" smooth="yes"/>
      <point x="64.04098360655738" y="0.0"/>
    </contour>
    <contour>
      <point x="202.04098360655738" y="318.6393442622951" type="line"/>
      <point x="379.91803278688525" y="318.6393442622951" type="line"/>
      <point x="379.91803278688525" y="375.9016393442623" type="line" smooth="yes"/>
      <point x="379.91803278688525" y="407.91803278688525"/>
      <point x="347.9016393442623" y="407.91803278688525" type="qcurve" smooth="yes"/>
      <point x="234.05737704918033" y="407.91803278688525" type="line" smooth="yes"/>
      <point x="202.04098360655738" y="407.91803278688525"/>
      <point x="202.04098360655738" y="375.9016393442623" type="qcurve" smooth="yes"/>
    </contour>
  </outline>
</glyph>
<glyph name="f" format="2">
  <advance width="412.07377049180326"/>
  <unicode hex="0066"/>
  <outline>
    <contour>
      <point x="72.04098360655738" y="0.0" type="line"/>
      <point x="72.04098360655738" y="577.9426229508197" type="line" smooth="yes"/>
      <point x="72.04098360655738" y="740.0"/>
      <point x="234.0983606557377" y="740.0" type="qcurve" smooth="yes"/>
      <point x="332.05737704918033" y="740.0" type="line"/>
      <point x="392.07377049180326" y="695.3688524590164" type="line"/>
      <point x="392.07377049180326" y="619.9590163934427" type="line"/>
      <point x="242.05737704918033" y="619.9590163934427" type="line" smooth="yes"/>
      <point x="210.04098360655738" y="619.9590163934427"/>
      <point x="210.04098360655738" y="587.9426229508197" type="qcurve" smooth="yes"/>
      <point x="210.04098360655738" y="527.9590163934427" type="line"/>
      <point x="382.07377049180326" y="527.9590163934427" type="line"/>
      <point x="382.07377049180326" y="407.91803278688525" type="line"/>
      <point x="210.04098360655738" y="407.91803278688525" type="line"/>
      <point x="210.04098360655738" y="0.0" type="line"/>
    </contour>
  </outline>
</glyph>
<glyph name="g" format="2">
  <advance width="582.0"/>
  <unicode hex="0067"/>
  <outline>
    <contour>
      <point x="59.94262295081967" y="162.05737704918033" type="qcurve" smooth="yes"/>
      <point x="59.94262295081967" y="365.9016393442623" type="line" smooth="yes"/>
      <point x="59.94262295081967" y="527.9590163934427"/>
      <point x="222.0" y="527.9590163934427" type="qcurve" smooth="yes"/>
      <point x="514.0573770491803" y="527.9590163934427" type="line"/>
      <point x="514.0573770491803" y="-37.94262295081967" type="line" smooth="yes"/>
      <point x="514.0573770491803" y="-200.0"/>
      <point x="352.0" y="-200.0" type="qcurve" smooth="yes"/>
      <point x="165.34426229508196" y="-200.0" type="line"/>
      <point x="105.32786885245902" y="-155.3688524590164" type="line"/>
      <point x="105.32786885245902" y="-79.95901639344262" type="line"/>
      <point x="344.0409836065574" y="-79.95901639344262" type="line" smooth="yes"/>
      <point x="376.05737704918033" y="-79.95901639344262"/>
      <point x="376.05737704918033" y="-47.94262295081967" type="qcurve" smooth="yes"/>
      <point x="376.05737704918033" y="0.0" type="line"/>
      <point x="222.0" y="0.0" type="line" smooth="yes"/>
      <point x="59.94262295081967" y="0.0"/>
    </contour>
    <contour>
      <point x="197.94262295081967" y="152.05737704918033" type="line" smooth="yes"/>
      <point x="197.94262295081967" y="120.04098360655738"/>
      <point x="229.95901639344262" y="120.04098360655738" type="qcurve" smooth="yes"/>
      <point x="376.05737704918033" y="120.04098360655738" type="line"/>
      <point x="376.05737704918033" y="407.91803278688525" type="line"/>
      <point x="229.95901639344262" y="407.91803278688525" type="line" smooth="yes"/>
      <point x="197.94262295081967" y="407.91803278688525"/>
      <point x="197.94262295081967" y="375.9016393442623" type="qcurve" smooth="yes"/>
    </contour>
  </outline>
</glyph>
<glyph name="i" format="2">
  <advance width="282.08196721311475"/>
  <unicode hex="0069"/>
  <outline>
    <contour>
      <point x="69.32786885245902" y="614.9508196721312" type="line"/>
      <point x="69.32786885245902" y="749.5081967213115" type="line"/>
      <point x="212.75409836065575" y="749.5081967213115" type="line"/>
      <point x="212.75409836065575" y="614.9508196721312" type="line"/>
    </contour>
    <contour>
      <point x="72.04098360655738" y="0.0" type="line"/>
      <point x="72.04098360655738" y="527.9590163934427" type="line"/>
      <point x="210.04098360655738" y="527.9590163934427" type="line"/>
      <point x="210.04098360655738" y="0.0" type="line"/>
    </contour>
  </outline>
</glyph>
<glyph name="j" format="2">
  <advance width="282.08196721311475"/>
  <unicode hex="006A"/>
  <outline>
    <contour>
      <point x="-10.049180327868852" y="-93.29508196721312" type="line"/>
      <point x="72.04098360655738" y="-88.24590163934427"/>
      <point x="72.04098360655738" y="-6.918032786885249" type="qcurve" smooth="yes"/>
      <point x="72.04098360655738" y="527.9590163934427" type="line"/>
      <point x="210.04098360655738" y="527.9590163934427" type="line"/>
      <point x="210.04098360655738" y="10.040983606557376" type="line" smooth="yes"/>
      <point x="210.04098360655738" y="-210.04918032786884"/>
      <point x="-10.049180327868852" y="-210.04918032786884" type="qcurve"/>
    </contour>
    <contour>
      <point x="69.32786885245902" y="614.9508196721312" type="line"/>
      <point x="69.32786885245902" y="749.5081967213115" type="line"/>
      <point x="212.75409836065575" y="749.5081967213115" type="line"/>
      <point x="212.75409836065575" y="614.9508196721312" type="line"/>
    </contour>
  </outline>
</glyph>
<glyph name="k" format="2">
  <advance width="580.0901639344262"/>
  <unicode hex="006B"/>
  <outline>
    <contour>
      <point x="72.04098360655738" y="0.0" type="line"/>
      <point x="72.04098360655738" y="740.0" type="line"/>
      <point x="210.04098360655738" y="740.0" type="line"/>
      <point x="210.04098360655738" y="329.155737704918" type="line"/>
      <point x="393.0409836065574" y="527.9590163934427" type="line"/>
      <point x="529.0409836065573" y="527.9590163934427" type="line"/>
      <point x="540.139344262295" y="505.0" type="line"/>
      <point x="357.4754098360656" y="307.90983606557376" type="line"/>
      <point x="554.139344262295" y="22.959016393442624" type="line"/>
      <point x="543.0409836065573" y="0.0" type="line"/>
      <point x="407.5655737704918" y="0.0" type="line"/>
      <point x="266.4918032786885" y="209.35245901639345" type="line"/>
      <point x="210.04098360655738" y="147.95081967213116" type="line"/>
      <point x="210.04098360655738" y="0.0" type="line"/>
    </contour>
  </outline>
</glyph>
<glyph name="l" format="2">
  <advance width="310.04098360655735"/>
  <unicode hex="006C"/>
  <outline>
    <contour>
      <point x="68.04098360655738" y="192.04098360655738" type="qcurve" smooth="yes"/>
      <point x="68.04098360655738" y="740.0" type="line"/>
      <point x="206.04098360655738" y="740.0" type="line"/>
      <point x="206.04098360655738" y="178.1311475409836" type="line" smooth="yes"/>
      <point x="206.04098360655738" y="115.5655737704918"/>
      <point x="270.1311475409836" y="109.75409836065573" type="qcurve"/>
      <point x="270.1311475409836" y="-10.049180327868852" type="line"/>
      <point x="68.04098360655738" y="-10.049180327868852"/>
    </contour>
  </outline>
</glyph>
<glyph name="m" format="2">
  <advance width="903.9590163934427"/>
  <unicode hex="006D"/>
  <outline>
    <contour>
      <point x="72.04098360655738" y="0.0" type="line"/>
      <point x="72.04098360655738" y="527.9590163934427" type="line"/>
      <point x="674.0983606557377" y="527.9590163934427" type="line" smooth="yes"/>
      <point x="835.9180327868852" y="527.9590163934427"/>
      <point x="835.9180327868852" y="365.9016393442623" type="qcurve" smooth="yes"/>
      <point x="835.9180327868852" y="0.0" type="line"/>
      <point x="697.9180327868853" y="0.0" type="line"/>
      <point x="697.9180327868853" y="375.9016393442623" type="line" smooth="yes"/>
      <point x="697.9180327868853" y="407.91803278688525"/>
      <point x="665.9016393442623" y="407.91803278688525" type="qcurve" smooth="yes"/>
      <point x="523.360655737705" y="407.91803278688525" type="line"/>
      <point x="523.360655737705" y="0.0" type="line"/>
      <point x="384.5983606557377" y="0.0" type="line"/>
      <point x="384.5983606557377" y="407.91803278688525" type="line"/>
      <point x="210.04098360655738" y="407.91803278688525" type="line"/>
      <point x="210.04098360655738" y="0.0" type="line"/>
    </contour>
  </outline>
</glyph>
<glyph name="o" format="2">
  <advance width="591.9590163934427"/>
  <unicode hex="006F"/>
  <outline>
    <contour>
      <point x="64.04098360655738" y="162.05737704918033" type="qcurve" smooth="yes"/>
      <point x="64.04098360655738" y="365.9016393442623" type="line" smooth="yes"/>
      <point x="64.04098360655738" y="527.9590163934427"/>
      <point x="226.0983606557377" y="527.9590163934427" type="qcurve" smooth="yes"/>
      <point x="366.0983606557377" y="527.9590163934427" type="line" smooth="yes"/>
      <point x="527.9180327868852" y="527.9590163934427"/>
      <point x="527.9180327868852" y="365.9016393442623" type="qcurve" smooth="yes"/>
      <point x="527.9180327868852" y="162.05737704918033" type="line" smooth="yes"/>
      <point x="527.9180327868852" y="0.0"/>
      <point x="366.0983606557377" y="0.0" type="qcurve" smooth="yes"/>
      <point x="226.0983606557377" y="0.0" type="line" smooth="yes"/>
      <point x="64.04098360655738" y="0.0"/>
    </contour>
    <contour>
      <point x="202.04098360655738" y="152.05737704918033" type="line" smooth="yes"/>
      <point x="202.04098360655738" y="120.04098360655738"/>
      <point x="234.05737704918033" y="120.04098360655738" type="qcurve" smooth="yes"/>
      <point x="357.9016393442623" y="120.04098360655738" type="line" smooth="yes"/>
      <point x="389.91803278688525" y="120.04098360655738"/>
      <point x="389.91803278688525" y="152.05737704918033" type="qcurve" smooth="yes"/>
      <point x="389.91803278688525" y="375.9016393442623" type="line" smooth="yes"/>
      <point x="389.91803278688525" y="407.91803278688525"/>
      <point x="357.9016393442623" y="407.91803278688525" type="qcurve" smooth="yes"/>
      <point x="234.05737704918033" y="407.91803278688525" type="line" smooth="yes"/>
      <point x="202.04098360655738" y="407.91803278688525"/>
      <point x="202.04098360655738" y="375.9016393442623" type="qcurve" smooth="yes"/>
    </contour>
  </outline>
</glyph>
<glyph name="r" format="2">
  <advance width="404.07377049180326"/>
  <unicode hex="0072"/>
  <outline>
    <contour>
      <point x="68.04098360655738" y="0.0" type="line"/>
      <point x="68.04098360655738" y="460.0" type="line"/>
      <point x="105.09016393442623" y="527.9590163934427"/>
      <point x="210.0983606557377" y="527.9590163934427" type="qcurve" smooth="yes"/>
      <point x="318.05737704918033" y="527.9590163934427" type="line"/>
      <point x="378.07377049180326" y="483.327868852459" type="line"/>
      <point x="378.07377049180326" y="407.91803278688525" type="line"/>
      <point x="247.02459016393442" y="407.91803278688525" type="line" smooth="yes"/>
      <point x="216.84426229508196" y="407.91803278688525"/>
      <point x="206.04098360655738" y="393.11475409836066" type="qcurve"/>
      <point x="206.04098360655738" y="0.0" type="line"/>
    </contour>
  </outline>
</glyph>
<glyph name="s" format="2">
  <advance width="507.9590163934426"/>
  <unicode hex="0073"/>
  <outline>
    <contour>
      <point x="53.85245901639344" y="44.631147540983605" type="line"/>
      <point x="53.85245901639344" y="120.04098360655738" type="line"/>
      <point x="284.327868852459" y="120.04098360655738" type="line" smooth="yes"/>
      <point x="318.155737704918" y="120.04098360655738"/>
      <point x="318.155737704918" y="157.9672131147541" type="qcurve" smooth="yes"/>
      <point x="318.155737704918" y="196.89344262295083"/>
      <point x="289.60655737704917" y="202.0327868852459" type="qcurve" smooth="yes"/>
      <point x="181.9016393442623" y="219.98360655737704" type="line" smooth="yes"/>
      <point x="53.85245901639344" y="241.74590163934425"/>
      <point x="53.85245901639344" y="367.5163934426229" type="qcurve" smooth="yes"/>
      <point x="53.85245901639344" y="527.9590163934427"/>
      <point x="216.14754098360655" y="527.9590163934427" type="qcurve" smooth="yes"/>
      <point x="370.8524590163934" y="527.9590163934427" type="line"/>
      <point x="430.8688524590164" y="483.327868852459" type="line"/>
      <point x="430.8688524590164" y="407.91803278688525" type="line"/>
      <point x="224.39344262295083" y="407.91803278688525" type="line" smooth="yes"/>
      <point x="190.327868852459" y="407.91803278688525"/>
      <point x="190.327868852459" y="369.9918032786885" type="qcurve" smooth="yes"/>
      <point x="190.327868852459" y="329.58196721311475"/>
      <point x="220.59016393442624" y="324.9672131147541" type="qcurve" smooth="yes"/>
      <point x="328.2950819672131" y="307.0163934426229" type="line" smooth="yes"/>
      <point x="454.8688524590164" y="286.25409836065575"/>
      <point x="454.8688524590164" y="160.68032786885246" type="qcurve" smooth="yes"/>
      <point x="454.8688524590164" y="0.0"/>
      <point x="292.3360655737705" y="0.0" type="qcurve" smooth="yes"/>
      <point x="113.8688524590164" y="0.0" type="line"/>
    </contour>
  </outline>
</glyph>
<glyph name="t" format="2">
  <advance width="424.07377049180326"/>
  <unicode hex="0074"/>
  <outline>
    <contour>
      <point x="68.04098360655738" y="162.05737704918033" type="qcurve" smooth="yes"/>
      <point x="68.04098360655738" y="690.0" type="line"/>
      <point x="206.04098360655738" y="690.0" type="line"/>
      <point x="206.04098360655738" y="527.9590163934427" type="line"/>
      <point x="378.07377049180326" y="527.9590163934427" type="line"/>
      <point x="378.07377049180326" y="407.91803278688525" type="line"/>
      <point x="206.04098360655738" y="407.91803278688525" type="line"/>
      <point x="206.04098360655738" y="152.05737704918033" type="line" smooth="yes"/>
      <point x="206.04098360655738" y="120.04098360655738"/>
      <point x="238.05737704918033" y="120.04098360655738" type="qcurve" smooth="yes"/>
      <point x="388.07377049180326" y="120.04098360655738" type="line"/>
      <point x="388.07377049180326" y="44.631147540983605" type="line"/>
      <point x="328.05737704918033" y="0.0" type="line"/>
      <point x="230.0983606557377" y="0.0" type="line" smooth="yes"/>
      <point x="68.04098360655738" y="0.0"/>
    </contour>
  </outline>
</glyph>
<glyph name="u" format="2">
  <advance width="593.9590163934427"/>
  <unicode hex="0075"/>
  <outline>
    <contour>
      <point x="68.04098360655738" y="162.05737704918033" type="qcurve" smooth="yes"/>
      <point x="68.04098360655738" y="527.9590163934427" type="line"/>
      <point x="206.04098360655738" y="527.9590163934427" type="line"/>
      <point x="206.04098360655738" y="152.05737704918033" type="line" smooth="yes"/>
      <point x="206.04098360655738" y="120.04098360655738"/>
      <point x="238.05737704918033" y="120.04098360655738" type="qcurve" smooth="yes"/>
      <point x="383.91803278688525" y="120.04098360655738" type="line"/>
      <point x="383.91803278688525" y="527.9590163934427" type="line"/>
      <point x="521.9180327868852" y="527.9590163934427" type="line"/>
      <point x="521.9180327868852" y="0.0" type="line"/>
      <point x="230.0983606557377" y="0.0" type="line" smooth="yes"/>
      <point x="68.04098360655738" y="0.0"/>
    </contour>
  </outline>
</glyph>
<glyph name="v" format="2">
  <advance width="555.9344262295082"/>
  <unicode hex="0076"/>
  <outline>
    <contour>
      <point x="17.950819672131146" y="507.28688524590166" type="line"/>
      <point x="32.33606557377049" y="527.9590163934427" type="line"/>
      <point x="151.37704918032784" y="527.9590163934427" type="line"/>
      <point x="272.59016393442624" y="120.04098360655738" type="line"/>
      <point x="283.344262295082" y="120.04098360655738" type="line"/>
      <point x="404.55737704918033" y="527.9590163934427" type="line"/>
      <point x="523.5983606557377" y="527.9590163934427" type="line"/>
      <point x="537.983606557377" y="507.28688524590166" type="line"/>
      <point x="379.1393442622951" y="0.0" type="line"/>
      <point x="177.0327868852459" y="0.0" type="line"/>
    </contour>
  </outline>
</glyph>
<glyph name="w" format="2">
  <advance width="825.5573770491803"/>
  <unicode hex="0077"/>
  <outline>
    <contour>
      <point x="21.950819672131146" y="507.28688524590166" type="line"/>
      <point x="36.57377049180328" y="527.9590163934427" type="line"/>
      <point x="152.61475409836066" y="527.9590163934427" type="line"/>
      <point x="232.68852459016392" y="120.04098360655738" type="line"/>
      <point x="240.01639344262296" y="120.04098360655738" type="line"/>
      <point x="336.2295081967213" y="527.9590163934427" type="line"/>
      <point x="489.327868852459" y="527.9590163934427" type="line"/>
      <point x="585.5409836065573" y="120.04098360655738" type="line"/>
      <point x="593.1065573770492" y="120.04098360655738" type="line"/>
      <point x="673.1803278688525" y="527.9590163934427" type="line"/>
      <point x="788.983606557377" y="527.9590163934427" type="line"/>
      <point x="803.6065573770492" y="507.28688524590166" type="line"/>
      <point x="697.7622950819672" y="0.0" type="line"/>
      <point x="491.5081967213115" y="0.0" type="line"/>
      <point x="412.77868852459017" y="362.8032786885246" type="line"/>
      <point x="334.04918032786884" y="0.0" type="line"/>
      <point x="128.0327868852459" y="0.0" type="line"/>
    </contour>
  </outline>
</glyph>
<glyph name="x" format="2">
  <advance width="555.9344262295082"/>
  <unicode hex="0078"/>
  <outline>
    <contour>
      <point x="27.950819672131146" y="22.959016393442624" type="line"/>
      <point x="200.65573770491804" y="267.04918032786884" type="line"/>
      <point x="32.90163934426229" y="505.0" type="line"/>
      <point x="44.0" y="527.9590163934427" type="line"/>
      <point x="171.37704918032784" y="527.9590163934427" type="line"/>
      <point x="277.9672131147541" y="370.4672131147541" type="line"/>
      <point x="384.55737704918033" y="527.9590163934427" type="line"/>
      <point x="511.9344262295082" y="527.9590163934427" type="line"/>
      <point x="523.0327868852459" y="505.0" type="line"/>
      <point x="355.5163934426229" y="267.04918032786884" type="line"/>
      <point x="527.983606557377" y="22.959016393442624" type="line"/>
      <point x="517.1229508196722" y="0.0" type="line"/>
      <point x="389.5081967213115" y="0.0" type="line"/>
      <point x="277.9672131147541" y="162.8688524590164" type="line"/>
      <point x="166.4262295081967" y="0.0" type="line"/>
      <point x="39.049180327868854" y="0.0" type="line"/>
    </contour>
  </outline>
</glyph>
<glyph name="y" format="2">
  <advance width="555.9344262295082"/>
  <unicode hex="0079"/>
  <outline>
    <contour>
      <point x="17.950819672131146" y="507.28688524590166" type="line"/>
      <point x="32.33606557377049" y="527.9590163934427" type="line"/>
      <point x="151.37704918032784" y="527.9590163934427" type="line"/>
      <point x="272.59016393442624" y="120.04098360655738" type="line"/>
      <point x="283.344262295082" y="120.04098360655738" type="line"/>
      <point x="404.55737704918033" y="527.9590163934427" type="line"/>
      <point x="523.5983606557377" y="527.9590163934427" type="line"/>
      <point x="537.983606557377" y="507.28688524590166" type="line"/>
      <point x="317.3360655737705" y="-200.0" type="line"/>
      <point x="198.29508196721312" y="-200.0" type="line"/>
      <point x="183.90983606557376" y="-179.327868852459" type="line"/>
      <point x="244.47540983606558" y="0.0" type="line"/>
      <point x="177.0327868852459" y="0.0" type="line"/>
    </contour>
  </outline>
</glyph>
<glyph name="z" format="2">
  <advance width="517.9590163934427"/>
  <unicode hex="007A"/>
  <outline>
    <contour>
      <point x="42.040983606557376" y="0.0" type="line"/>
      <point x="42.040983606557376" y="104.08196721311475" type="line"/>
      <point x="288.95081967213116" y="407.91803278688525" type="line"/>
      <point x="52.040983606557376" y="407.91803278688525" type="line"/>
      <point x="52.040983606557376" y="527.9590163934427" type="line"/>
      <point x="465.91803278688525" y="527.9590163934427" type="line"/>
      <point x="465.91803278688525" y="423.87704918032784" type="line"/>
      <point x="219.77049180327867" y="120.04098360655738" type="line"/>
      <point x="475.91803278688525" y="120.04098360655738" type="line"/>
      <point x="475.91803278688525" y="0.0" type="line"/>
    </contour>
  </outline>
</glyph>
<glyph name="braceleft" format="2">
  <advance width="420.0327868852459"/>
  <unicode hex="007B"/>
  <outline>
    <contour>
      <point x="50.0" y="251.2704918032787" type="line"/>
      <point x="50.0" y="319.4836065573771" type="line"/>
      <point x="129.99180327868854" y="398.71311475409834" type="line"/>
      <point x="129.99180327868854" y="597.9426229508197" type="line" smooth="yes"/>
      <point x="129.99180327868854" y="760.0"/>
      <point x="292.04918032786884" y="760.0" type="qcurve" smooth="yes"/>
      <point x="390.0327868852459" y="760.0" type="line"/>
      <point x="390.0327868852459" y="639.9590163934427" type="line"/>
      <point x="300.0081967213115" y="639.9590163934427" type="line" smooth="yes"/>
      <point x="267.9918032786885" y="639.9590163934427"/>
      <point x="267.9918032786885" y="607.9426229508197" type="qcurve" smooth="yes"/>
      <point x="267.9918032786885" y="366.655737704918" type="line"/>
      <point x="185.47540983606558" y="284.61475409836066" type="line"/>
      <point x="267.9918032786885" y="202.5737704918033" type="line"/>
      <point x="267.9918032786885" y="-27.942622950819672" type="line" smooth="yes"/>
      <point x="267.9918032786885" y="-59.959016393442624"/>
      <point x="300.0081967213115" y="-59.959016393442624" type="qcurve" smooth="yes"/>
      <point x="390.0327868852459" y="-59.959016393442624" type="line"/>
      <point x="390.0327868852459" y="-180.0" type="line"/>
      <point x="292.04918032786884" y="-180.0" type="line" smooth="yes"/>
      <point x="129.99180327868854" y="-180.0"/>
      <point x="129.99180327868854" y="-17.942622950819672" type="qcurve" smooth="yes"/>
      <point x="129.99180327868854" y="170.51639344262296" type="line"/>
    </contour>
  </outline>
</glyph>
<glyph name="bar" format="2">
  <advance width="311.983606557377"/>
  <unicode hex="007C"/>
  <outline>
    <contour>
      <point x="94.09016393442623" y="-200.0" type="line"/>
      <point x="94.09016393442623" y="740.0" type="line"/>
      <point x="218.1311475409836" y="740.0" type="line"/>
      <point x="218.1311475409836" y="-200.0" type="line"/>
    </contour>
  </outline>
</glyph>
<glyph name="braceright" format="2">
  <advance width="420.0327868852459"/>
  <unicode hex="007D"/>
  <outline>
    <contour>
      <point x="30.0" y="-59.959016393442624" type="line"/>
      <point x="120.02459016393442" y="-59.959016393442624" type="line" smooth="yes"/>
      <point x="152.04098360655738" y="-59.959016393442624"/>
      <point x="152.04098360655738" y="-27.942622950819672" type="qcurve" smooth="yes"/>
      <point x="152.04098360655738" y="202.5737704918033" type="line"/>
      <point x="234.55737704918033" y="284.61475409836066" type="line"/>
      <point x="152.04098360655738" y="366.655737704918" type="line"/>
      <point x="152.04098360655738" y="607.9426229508197" type="line" smooth="yes"/>
      <point x="152.04098360655738" y="639.9590163934427"/>
      <point x="120.02459016393442" y="639.9590163934427" type="qcurve" smooth="yes"/>
      <point x="30.0" y="639.9590163934427" type="line"/>
      <point x="30.0" y="760.0" type="line"/>
      <point x="127.98360655737704" y="760.0" type="line" smooth="yes"/>
      <point x="290.04098360655735" y="760.0"/>
      <point x="290.04098360655735" y="597.9426229508197" type="qcurve" smooth="yes"/>
      <point x="290.04098360655735" y="398.71311475409834" type="line"/>
      <point x="370.0327868852459" y="319.4836065573771" type="line"/>
      <point x="370.0327868852459" y="251.2704918032787" type="line"/>
      <point x="290.04098360655735" y="170.51639344262296" type="line"/>
      <point x="290.04098360655735" y="-17.942622950819672" type="line" smooth="yes"/>
      <point x="290.04098360655735" y="-180.0"/>
      <point x="127.98360655737704" y="-180.0" type="qcurve" smooth="yes"/>
      <point x="30.0" y="-180.0" type="line"/>
    </contour>
  </outline>
</glyph>
<glyph name="asciitilde" format="2">
  <advance width="578.0"/>
  <unicode hex="007E"/>
  <outline>
    <contour>
      <point x="32.31967213114754" y="321.6803278688525" type="line"/>
      <point x="126.18032786885246" y="415.3032786885246" type="line" smooth="yes"/>
      <point x="160.27868852459017" y="449.6393442622951"/>
      <point x="257.72131147540983" y="449.6393442622951"/>
      <point x="291.8196721311475" y="415.3032786885246" type="qcurve" smooth="yes"/>
      <point x="353.10655737704917" y="354.25409836065575" type="line" smooth="yes"/>
      <point x="361.672131147541" y="345.6885245901639"/>
      <point x="376.327868852459" y="345.6885245901639"/>
      <point x="384.89344262295083" y="354.25409836065575" type="qcurve" smooth="yes"/>
      <point x="462.3196721311475" y="431.6803278688525" type="line"/>
      <point x="545.6803278688525" y="348.3196721311475" type="line"/>
      <point x="451.8196721311475" y="254.69672131147541" type="line" smooth="yes"/>
      <point x="417.72131147540983" y="220.36065573770492"/>
      <point x="320.27868852459017" y="220.36065573770492"/>
      <point x="286.1803278688525" y="254.69672131147541" type="qcurve" smooth="yes"/>
      <point x="224.89344262295083" y="315.74590163934425" type="line" smooth="yes"/>
      <point x="216.327868852459" y="324.3114754098361"/>
      <point x="201.672131147541" y="324.3114754098361"/>
      <point x="193.10655737704917" y="315.74590163934425" type="qcurve" smooth="yes"/>
      <point x="115.68032786885246" y="238.31967213114754" type="line"/>
    </contour>
  </outline>
</glyph>
<glyph name="exclamdown" format="2">
  <advance width="277.9672131147541"/>
  <unicode hex="00A1"/>
  <outline>
    <contour>
      <point x="64.55737704918033" y="385.0245901639344" type="line"/>
      <point x="64.55737704918033" y="527.9590163934427" type="line"/>
      <point x="213.64754098360655" y="527.9590163934427" type="line"/>
      <point x="213.64754098360655" y="385.0245901639344" type="line"/>
    </contour>
    <contour>
      <point x="66.69672131147541" y="-162.04098360655738" type="line"/>
      <point x="66.69672131147541" y="305.9016393442623" type="line"/>
      <point x="210.74590163934425" y="305.9016393442623" type="line"/>
      <point x="210.74590163934425" y="-162.04098360655738" type="line"/>
    </contour>
  </outline>
</glyph>
<glyph name="cent" format="2">
  <advance width="578.0"/>
  <unicode hex="00A2"/>
  <outline>
    <contour>
      <point x="81.94262295081967" y="162.05737704918033" type="qcurve" smooth="yes"/>
      <point x="81.94262295081967" y="365.9016393442623" type="line" smooth="yes"/>
      <point x="81.94262295081967" y="527.9590163934427"/>
      <point x="244.0" y="527.9590163934427" type="qcurve" smooth="yes"/>
      <point x="258.88524590163934" y="527.9590163934427" type="line"/>
      <point x="258.88524590163934" y="637.9590163934427" type="line"/>
      <point x="373.11475409836066" y="637.9590163934427" type="line"/>
      <point x="373.11475409836066" y="527.9590163934427" type="line"/>
      <point x="429.9918032786885" y="527.9590163934427" type="line"/>
      <point x="490.0081967213115" y="483.327868852459" type="line"/>
      <point x="490.0081967213115" y="407.91803278688525" type="line"/>
      <point x="251.95901639344262" y="407.91803278688525" type="line" smooth="yes"/>
      <point x="219.94262295081967" y="407.91803278688525"/>
      <point x="219.94262295081967" y="375.9016393442623" type="qcurve" smooth="yes"/>
      <point x="219.94262295081967" y="152.05737704918033" type="line" smooth="yes"/>
      <point x="219.94262295081967" y="120.04098360655738"/>
      <point x="251.95901639344262" y="120.04098360655738" type="qcurve" smooth="yes"/>
      <point x="490.0081967213115" y="120.04098360655738" type="line"/>
      <point x="490.0081967213115" y="44.631147540983605" type="line"/>
      <point x="429.9918032786885" y="0.0" type="line"/>
      <point x="373.11475409836066" y="0.0" type="line"/>
      <point x="373.11475409836066" y="-110.0" type="line"/>
      <point x="258.88524590163934" y="-110.0" type="line"/>
      <point x="258.88524590163934" y="0.0" type="line"/>
      <point x="244.0" y="0.0" type="line" smooth="yes"/>
      <point x="81.94262295081967" y="0.0"/>
    </contour>
  </outline>
</glyph>
<glyph name="sterling" format="2">
  <advance width="578.0"/>
  <unicode hex="00A3"/>
  <outline>
    <contour>
      <point x="53.99180327868852" y="0.0" type="line"/>
      <point x="53.99180327868852" y="130.13934426229508" type="line"/>
      <point x="141.94262295081967" y="130.13934426229508" type="line"/>
      <point x="141.94262295081967" y="287.88524590163934" type="line"/>
      <point x="53.99180327868852" y="287.88524590163934" type="line"/>
      <point x="53.99180327868852" y="402.11475409836066" type="line"/>
      <point x="141.94262295081967" y="402.11475409836066" type="line"/>
      <point x="141.94262295081967" y="521.6065573770492" type="line" smooth="yes"/>
      <point x="141.94262295081967" y="690.0"/>
      <point x="310.3360655737705" y="690.0" type="qcurve" smooth="yes"/>
      <point x="446.94262295081967" y="690.0" type="line"/>
      <point x="514.0081967213115" y="638.3196721311475" type="line"/>
      <point x="514.0081967213115" y="559.860655737705" type="line"/>
      <point x="316.0081967213115" y="559.860655737705" type="line" smooth="yes"/>
      <point x="285.9918032786885" y="559.860655737705"/>
      <point x="285.9918032786885" y="530.0819672131148" type="qcurve" smooth="yes"/>
      <point x="285.9918032786885" y="402.11475409836066" type="line"/>
      <point x="428.0081967213115" y="402.11475409836066" type="line"/>
      <point x="428.0081967213115" y="287.88524590163934" type="line"/>
      <point x="285.9918032786885" y="287.88524590163934" type="line"/>
      <point x="285.9918032786885" y="130.13934426229508" type="line"/>
      <point x="534.0081967213115" y="130.13934426229508" type="line"/>
      <point x="534.0081967213115" y="0.0" type="line"/>
    </contour>
  </outline>
</glyph>
<glyph name="currency" format="2">
  <advance width="578.0"/>
  <unicode hex="00A4"/>
  <outline>
    <contour>
      <point x="43.368852459016395" y="172.39344262295083" type="line"/>
      <point x="128.09016393442624" y="257.11475409836066" type="line"/>
      <point x="128.09016393442624" y="442.88524590163934" type="line"/>
      <point x="43.368852459016395" y="527.6065573770492" type="line"/>
      <point x="116.39344262295081" y="600.6311475409836" type="line"/>
      <point x="201.11475409836066" y="515.9098360655738" type="line"/>
      <point x="376.88524590163934" y="515.9098360655738" type="line"/>
      <point x="461.60655737704917" y="600.6311475409836" type="line"/>
      <point x="534.6311475409836" y="527.6065573770492" type="line"/>
      <point x="449.90983606557376" y="442.88524590163934" type="line"/>
      <point x="449.90983606557376" y="257.11475409836066" type="line"/>
      <point x="534.6311475409836" y="172.39344262295083" type="line"/>
      <point x="461.60655737704917" y="99.3688524590164" type="line"/>
      <point x="376.88524590163934" y="184.09016393442624" type="line"/>
      <point x="201.11475409836066" y="184.09016393442624" type="line"/>
      <point x="116.39344262295081" y="99.3688524590164" type="line"/>
    </contour>
    <contour>
      <point x="235.98360655737704" y="300.25409836065575" type="line" smooth="yes"/>
      <point x="235.98360655737704" y="286.74590163934425"/>
      <point x="249.4918032786885" y="286.74590163934425" type="qcurve" smooth="yes"/>
      <point x="328.5081967213115" y="286.74590163934425" type="line" smooth="yes"/>
      <point x="342.016393442623" y="286.74590163934425"/>
      <point x="342.016393442623" y="300.25409836065575" type="qcurve" smooth="yes"/>
      <point x="342.016393442623" y="399.74590163934425" type="line" smooth="yes"/>
      <point x="342.016393442623" y="413.25409836065575"/>
      <point x="328.5081967213115" y="413.25409836065575" type="qcurve" smooth="yes"/>
      <point x="249.4918032786885" y="413.25409836065575" type="line" smooth="yes"/>
      <point x="235.98360655737704" y="413.25409836065575"/>
      <point x="235.98360655737704" y="399.74590163934425" type="qcurve" smooth="yes"/>
    </contour>
  </outline>
</glyph>
<glyph name="yen" format="2">
  <advance width="578.0"/>
  <unicode hex="00A5"/>
  <outline>
    <contour>
      <point x="8.696721311475414" y="662.516393442623" type="line"/>
      <point x="25.60655737704918" y="690.0" type="line"/>
      <point x="148.69672131147541" y="690.0" type="line"/>
      <point x="289.0" y="416.95081967213116" type="line"/>
      <point x="429.3032786885246" y="690.0" type="line"/>
      <point x="552.3934426229508" y="690.0" type="line"/>
      <point x="569.3032786885246" y="662.516393442623" type="line"/>
      <point x="394.60655737704917" y="328.8688524590164" type="line"/>
      <point x="491.0081967213115" y="328.8688524590164" type="line"/>
      <point x="491.0081967213115" y="248.99180327868854" type="line"/>
      <point x="361.0245901639344" y="248.99180327868854" type="line"/>
      <point x="361.0245901639344" y="181.86065573770492" type="line"/>
      <point x="491.0081967213115" y="181.86065573770492" type="line"/>
      <point x="491.0081967213115" y="101.98360655737704" type="line"/>
      <point x="361.0245901639344" y="101.98360655737704" type="line"/>
      <point x="361.0245901639344" y="0.0" type="line"/>
      <point x="216.97540983606558" y="0.0" type="line"/>
      <point x="216.97540983606558" y="101.98360655737704" type="line"/>
      <point x="86.99180327868852" y="101.98360655737704" type="line"/>
      <point x="86.99180327868852" y="181.86065573770492" type="line"/>
      <point x="216.97540983606558" y="181.86065573770492" type="line"/>
      <point x="216.97540983606558" y="248.99180327868854" type="line"/>
      <point x="86.99180327868852" y="248.99180327868854" type="line"/>
      <point x="86.99180327868852" y="328.8688524590164" type="line"/>
      <point x="183.39344262295083" y="328.8688524590164" type="line"/>
    </contour>
  </outline>
</glyph>
<glyph name="brokenbar" format="2">
  <advance width="311.983606557377"/>
  <unicode hex="00A6"/>
  <outline>
    <contour>
      <point x="94.09016393442623" y="175.90983606557376" type="line"/>
      <point x="218.1311475409836" y="175.90983606557376" type="line"/>
      <point x="218.1311475409836" y="-200.0" type="line"/>
      <point x="94.09016393442623" y="-200.0" type="line"/>
    </contour>
    <contour>
      <point x="94.09016393442623" y="364.09016393442624" type="line"/>
      <point x="94.09016393442623" y="740.0" type="line"/>
      <point x="218.1311475409836" y="740.0" type="line"/>
      <point x="218.1311475409836" y="364.09016393442624" type="line"/>
    </contour>
  </outline>
</glyph>
<glyph name="section" format="2">
  <advance width="544.0983606557377"/>
  <unicode hex="00A7"/>
  <outline>
    <contour>
      <point x="72.27868852459017" y="20.040983606557376" type="line"/>
      <point x="301.327868852459" y="20.040983606557376" type="line" smooth="yes"/>
      <point x="335.8688524590164" y="20.040983606557376"/>
      <point x="335.8688524590164" y="57.967213114754095" type="qcurve" smooth="yes"/>
      <point x="335.8688524590164" y="91.6639344262295"/>
      <point x="314.92622950819674" y="96.32786885245902" type="qcurve" smooth="yes"/>
      <point x="192.48360655737704" y="120.45901639344262" type="line" smooth="yes"/>
      <point x="72.27868852459017" y="142.69672131147541"/>
      <point x="72.27868852459017" y="267.5163934426229" type="qcurve" smooth="yes"/>
      <point x="72.27868852459017" y="376.3032786885246" type="line"/>
      <point x="115.76229508196721" y="419.78688524590166" type="line"/>
      <point x="72.27868852459017" y="456.12295081967216"/>
      <point x="72.27868852459017" y="529.0819672131148" type="qcurve" smooth="yes"/>
      <point x="72.27868852459017" y="690.0"/>
      <point x="233.38524590163934" y="690.0" type="qcurve" smooth="yes"/>
      <point x="389.5655737704918" y="690.0" type="line"/>
      <point x="449.58196721311475" y="645.3688524590164" type="line"/>
      <point x="449.58196721311475" y="569.9590163934427" type="line"/>
      <point x="244.29508196721312" y="569.9590163934427" type="line" smooth="yes"/>
      <point x="209.75409836065575" y="569.9590163934427"/>
      <point x="209.75409836065575" y="532.0327868852459" type="qcurve" smooth="yes"/>
      <point x="209.75409836065575" y="498.3360655737705"/>
      <point x="229.93442622950818" y="493.672131147541" type="qcurve" smooth="yes"/>
      <point x="352.37704918032784" y="469.54098360655735" type="line" smooth="yes"/>
      <point x="473.344262295082" y="447.3032786885246"/>
      <point x="473.344262295082" y="322.4836065573771" type="qcurve" smooth="yes"/>
      <point x="473.344262295082" y="213.69672131147541" type="line"/>
      <point x="429.8606557377049" y="170.21311475409834" type="line"/>
      <point x="473.344262295082" y="133.87704918032787"/>
      <point x="473.344262295082" y="60.91803278688525" type="qcurve" smooth="yes"/>
      <point x="473.344262295082" y="-100.0"/>
      <point x="312.23770491803276" y="-100.0" type="qcurve" smooth="yes"/>
      <point x="132.29508196721312" y="-100.0" type="line"/>
      <point x="72.27868852459017" y="-55.368852459016395" type="line"/>
    </contour>
    <contour>
      <point x="209.75409836065575" y="269.75409836065575" type="line" smooth="yes"/>
      <point x="209.75409836065575" y="230.5327868852459"/>
      <point x="235.1639344262295" y="225.20491803278688" type="qcurve" smooth="yes"/>
      <point x="335.8688524590164" y="204.98360655737704" type="line"/>
      <point x="335.8688524590164" y="320.24590163934425" type="line" smooth="yes"/>
      <point x="335.8688524590164" y="359.4672131147541"/>
      <point x="309.6967213114754" y="364.7950819672131" type="qcurve" smooth="yes"/>
      <point x="209.75409836065575" y="385.016393442623" type="line"/>
    </contour>
  </outline>
</glyph>
<glyph name="copyright" format="2">
  <advance width="844.0983606557377"/>
  <unicode hex="00A9"/>
  <outline>
    <contour>
      <point x="72.04098360655738" y="115.49180327868852" type="qcurve" smooth="yes"/>
      <point x="72.04098360655738" y="574.5081967213115" type="line" smooth="yes"/>
      <point x="72.04098360655738" y="690.0"/>
      <point x="187.5327868852459" y="690.0" type="qcurve" smooth="yes"/>
      <point x="656.5655737704918" y="690.0" type="line" smooth="yes"/>
      <point x="772.0573770491803" y="690.0"/>
      <point x="772.0573770491803" y="574.5081967213115" type="qcurve" smooth="yes"/>
      <point x="772.0573770491803" y="115.49180327868852" type="line" smooth="yes"/>
      <point x="772.0573770491803" y="0.0"/>
      <point x="656.5655737704918" y="0.0" type="qcurve" smooth="yes"/>
      <point x="187.5327868852459" y="0.0" type="line" smooth="yes"/>
      <point x="72.04098360655738" y="0.0"/>
    </contour>
    <contour>
      <point x="174.12295081967213" y="106.44262295081967" type="line" smooth="yes"/>
      <point x="174.12295081967213" y="91.98360655737704"/>
      <point x="188.34426229508196" y="91.98360655737704" type="qcurve" smooth="yes"/>
      <point x="655.516393442623" y="91.98360655737704" type="line" smooth="yes"/>
      <point x="669.9754098360655" y="91.98360655737704"/>
      <point x="669.9754098360655" y="106.44262295081967" type="qcurve" smooth="yes"/>
      <point x="669.9754098360655" y="583.5573770491803" type="line" smooth="yes"/>
      <point x="669.9754098360655" y="598.016393442623"/>
      <point x="655.516393442623" y="598.016393442623" type="qcurve" smooth="yes"/>
      <point x="188.34426229508196" y="598.016393442623" type="line" smooth="yes"/>
      <point x="174.12295081967213" y="598.016393442623"/>
      <point x="174.12295081967213" y="583.5573770491803" type="qcurve" smooth="yes"/>
    </contour>
    <contour>
      <point x="257.42622950819674" y="279.78688524590166" type="qcurve" smooth="yes"/>
      <point x="257.42622950819674" y="410.21311475409834" type="line" smooth="yes"/>
      <point x="257.42622950819674" y="532.0409836065573"/>
      <point x="378.4918032786885" y="532.0409836065573" type="qcurve" smooth="yes"/>
      <point x="510.0409836065574" y="532.0409836065573" type="line"/>
      <point x="556.672131147541" y="494.9836065573771" type="line"/>
      <point x="556.672131147541" y="434.0081967213115" type="line"/>
      <point x="379.3032786885246" y="434.0081967213115" type="line" smooth="yes"/>
      <point x="365.3196721311475" y="434.0081967213115"/>
      <point x="365.3196721311475" y="420.0245901639344" type="qcurve" smooth="yes"/>
      <point x="365.3196721311475" y="269.9754098360656" type="line" smooth="yes"/>
      <point x="365.3196721311475" y="255.9918032786885"/>
      <point x="379.3032786885246" y="255.9918032786885" type="qcurve" smooth="yes"/>
      <point x="556.672131147541" y="255.9918032786885" type="line"/>
      <point x="556.672131147541" y="195.01639344262296" type="line"/>
      <point x="510.0409836065574" y="157.95901639344262" type="line"/>
      <point x="378.4918032786885" y="157.95901639344262" type="line" smooth="yes"/>
      <point x="257.42622950819674" y="157.95901639344262"/>
    </contour>
  </outline>
</glyph>
<glyph name="ordfeminine" format="2">
  <advance width="404.0983606557377"/>
  <unicode hex="00AA"/>
  <outline>
    <contour>
      <point x="34.09016393442623" y="410.10655737704917" type="qcurve" smooth="yes"/>
      <point x="34.09016393442623" y="423.75409836065575" type="line" smooth="yes"/>
      <point x="34.09016393442623" y="537.9590163934427"/>
      <point x="163.54098360655738" y="537.9590163934427" type="qcurve" smooth="yes"/>
      <point x="251.87704918032787" y="537.9590163934427" type="line"/>
      <point x="251.87704918032787" y="577.983606557377" type="line" smooth="yes"/>
      <point x="251.87704918032787" y="591.9672131147541"/>
      <point x="237.89344262295083" y="591.9672131147541" type="qcurve" smooth="yes"/>
      <point x="72.04918032786885" y="591.9672131147541" type="line"/>
      <point x="72.04918032786885" y="652.9426229508197" type="line"/>
      <point x="119.44262295081967" y="690.0" type="line"/>
      <point x="238.18032786885246" y="690.0" type="line" smooth="yes"/>
      <point x="360.0081967213115" y="690.0"/>
      <point x="360.0081967213115" y="568.172131147541" type="qcurve" smooth="yes"/>
      <point x="360.0081967213115" y="295.9016393442623" type="line"/>
      <point x="163.54098360655738" y="295.9016393442623" type="line" smooth="yes"/>
      <point x="34.09016393442623" y="295.9016393442623"/>
    </contour>
    <contour>
      <point x="141.98360655737704" y="407.91803278688525" type="line" smooth="yes"/>
      <point x="141.98360655737704" y="393.9344262295082"/>
      <point x="155.9672131147541" y="393.9344262295082" type="qcurve" smooth="yes"/>
      <point x="251.87704918032787" y="393.9344262295082" type="line"/>
      <point x="251.87704918032787" y="453.6475409836066" type="line"/>
      <point x="155.9672131147541" y="453.6475409836066" type="line" smooth="yes"/>
      <point x="141.98360655737704" y="453.6475409836066"/>
      <point x="141.98360655737704" y="439.6639344262295" type="qcurve" smooth="yes"/>
    </contour>
  </outline>
</glyph>
<glyph name="logicalnot" format="2">
  <advance width="578.0"/>
  <unicode hex="00AC"/>
  <outline>
    <contour>
      <point x="59.90163934426229" y="325.88524590163934" type="line"/>
      <point x="59.90163934426229" y="444.11475409836066" type="line"/>
      <point x="518.0983606557377" y="444.11475409836066" type="line"/>
      <point x="518.0983606557377" y="145.9016393442623" type="line"/>
      <point x="394.05737704918033" y="145.9016393442623" type="line"/>
      <point x="394.05737704918033" y="325.88524590163934" type="line"/>
    </contour>
  </outline>
</glyph>
<glyph name="registered" format="2">
  <advance width="844.0983606557377"/>
  <unicode hex="00AE"/>
  <outline>
    <contour>
      <point x="72.04098360655738" y="115.49180327868852" type="qcurve" smooth="yes"/>
      <point x="72.04098360655738" y="574.5081967213115" type="line" smooth="yes"/>
      <point x="72.04098360655738" y="690.0"/>
      <point x="187.5327868852459" y="690.0" type="qcurve" smooth="yes"/>
      <point x="656.5655737704918" y="690.0" type="line" smooth="yes"/>
      <point x="772.0573770491803" y="690.0"/>
      <point x="772.0573770491803" y="574.5081967213115" type="qcurve" smooth="yes"/>
      <point x="772.0573770491803" y="115.49180327868852" type="line" smooth="yes"/>
      <point x="772.0573770491803" y="0.0"/>
      <point x="656.5655737704918" y="0.0" type="qcurve" smooth="yes"/>
      <point x="187.5327868852459" y="0.0" type="line" smooth="yes"/>
      <point x="72.04098360655738" y="0.0"/>
    </contour>
    <contour>
      <point x="174.12295081967213" y="106.44262295081967" type="line" smooth="yes"/>
      <point x="174.12295081967213" y="91.98360655737704"/>
      <point x="188.34426229508196" y="91.98360655737704" type="qcurve" smooth="yes"/>
      <point x="655.516393442623" y="91.98360655737704" type="line" smooth="yes"/>
      <point x="669.9754098360655" y="91.98360655737704"/>
      <point x="669.9754098360655" y="106.44262295081967" type="qcurve" smooth="yes"/>
      <point x="669.9754098360655" y="583.5573770491803" type="line" smooth="yes"/>
      <point x="669.9754098360655" y="598.016393442623"/>
      <point x="655.516393442623" y="598.016393442623" type="qcurve" smooth="yes"/>
      <point x="188.34426229508196" y="598.016393442623" type="line" smooth="yes"/>
      <point x="174.12295081967213" y="598.016393442623"/>
      <point x="174.12295081967213" y="583.5573770491803" type="qcurve" smooth="yes"/>
    </contour>
    <contour>
      <point x="271.5655737704918" y="157.95901639344262" type="line"/>
      <point x="271.5655737704918" y="532.0409836065573" type="line"/>
      <point x="454.89344262295083" y="532.0409836065573" type="line" smooth="yes"/>
      <point x="577.483606557377" y="532.0409836065573"/>
      <point x="577.483606557377" y="410.21311475409834" type="qcurve" smooth="yes"/>
      <point x="577.483606557377" y="391.42622950819674" type="line" smooth="yes"/>
      <point x="577.483606557377" y="315.42622950819674"/>
      <point x="528.2540983606557" y="285.844262295082" type="qcurve"/>
      <point x="580.5737704918033" y="180.91803278688525" type="line"/>
      <point x="568.7131147540983" y="157.95901639344262" type="line"/>
      <point x="474.44262295081967" y="157.95901639344262" type="line"/>
      <point x="417.6475409836066" y="270.3606557377049" type="line"/>
      <point x="379.6967213114754" y="270.3606557377049" type="line"/>
      <point x="379.6967213114754" y="157.95901639344262" type="line"/>
    </contour>
    <contour>
      <point x="379.6967213114754" y="368.39344262295083" type="line"/>
      <point x="455.3688524590164" y="368.39344262295083" type="line" smooth="yes"/>
      <point x="469.3524590163934" y="368.39344262295083"/>
      <point x="469.3524590163934" y="382.37704918032784" type="qcurve" smooth="yes"/>
      <point x="469.3524590163934" y="420.0245901639344" type="line" smooth="yes"/>
      <point x="469.3524590163934" y="434.0081967213115"/>
      <point x="455.3688524590164" y="434.0081967213115" type="qcurve" smooth="yes"/>
      <point x="379.6967213114754" y="434.0081967213115" type="line"/>
    </contour>
  </outline>
</glyph>
<glyph name="degree" format="2">
  <advance width="412.04918032786884"/>
  <unicode hex="00B0"/>
  <outline>
    <contour>
      <point x="52.040983606557376" y="485.7295081967213" type="qcurve" smooth="yes"/>
      <point x="52.040983606557376" y="574.2704918032787" type="line" smooth="yes"/>
      <point x="52.040983606557376" y="690.0"/>
      <point x="167.77049180327867" y="690.0" type="qcurve" smooth="yes"/>
      <point x="244.27868852459017" y="690.0" type="line" smooth="yes"/>
      <point x="360.0081967213115" y="690.0"/>
      <point x="360.0081967213115" y="574.2704918032787" type="qcurve" smooth="yes"/>
      <point x="360.0081967213115" y="485.7295081967213" type="line" smooth="yes"/>
      <point x="360.0081967213115" y="370.0"/>
      <point x="244.27868852459017" y="370.0" type="qcurve" smooth="yes"/>
      <point x="167.77049180327867" y="370.0" type="line" smooth="yes"/>
      <point x="52.040983606557376" y="370.0"/>
    </contour>
    <contour>
      <point x="154.12295081967213" y="476.91803278688525" type="line" smooth="yes"/>
      <point x="154.12295081967213" y="461.983606557377"/>
      <point x="169.05737704918033" y="461.983606557377" type="qcurve" smooth="yes"/>
      <point x="242.99180327868854" y="461.983606557377" type="line" smooth="yes"/>
      <point x="257.92622950819674" y="461.983606557377"/>
      <point x="257.92622950819674" y="476.91803278688525" type="qcurve" smooth="yes"/>
      <point x="257.92622950819674" y="583.0819672131148" type="line" smooth="yes"/>
      <point x="257.92622950819674" y="598.016393442623"/>
      <point x="242.99180327868854" y="598.016393442623" type="qcurve" smooth="yes"/>
      <point x="169.05737704918033" y="598.016393442623" type="line" smooth="yes"/>
      <point x="154.12295081967213" y="598.016393442623"/>
      <point x="154.12295081967213" y="583.0819672131148" type="qcurve" smooth="yes"/>
    </contour>
  </outline>
</glyph>
<glyph name="plusminus" format="2">
  <advance width="578.0"/>
  <unicode hex="00B1"/>
  <outline>
    <contour>
      <point x="59.90163934426229" y="0.0" type="line"/>
      <point x="59.90163934426229" y="117.99180327868852" type="line"/>
      <point x="518.0983606557377" y="117.99180327868852" type="line"/>
      <point x="518.0983606557377" y="0.0" type="line"/>
    </contour>
    <contour>
      <point x="59.90163934426229" y="315.9016393442623" type="line"/>
      <point x="59.90163934426229" y="434.1311475409836" type="line"/>
      <point x="226.5983606557377" y="434.1311475409836" type="line"/>
      <point x="226.5983606557377" y="595.9180327868852" type="line"/>
      <point x="351.4016393442623" y="595.9180327868852" type="line"/>
      <point x="351.4016393442623" y="434.1311475409836" type="line"/>
      <point x="518.0983606557377" y="434.1311475409836" type="line"/>
      <point x="518.0983606557377" y="315.9016393442623" type="line"/>
      <point x="351.4016393442623" y="315.9016393442623" type="line"/>
      <point x="351.4016393442623" y="154.11475409836066" type="line"/>
      <point x="226.5983606557377" y="154.11475409836066" type="line"/>
      <point x="226.5983606557377" y="315.9016393442623" type="line"/>
    </contour>
  </outline>
</glyph>
<glyph name="uni00B2" format="2">
  <advance width="365.90983606557376"/>
  <unicode hex="00B2"/>
  <outline>
    <contour>
      <point x="34.09016393442623" y="274.09016393442624" type="line"/>
      <point x="34.09016393442623" y="406.8606557377049" type="line" smooth="yes"/>
      <point x="34.09016393442623" y="499.155737704918"/>
      <point x="123.72131147540983" y="516.7295081967213" type="qcurve" smooth="yes"/>
      <point x="209.08196721311475" y="533.344262295082" type="line" smooth="yes"/>
      <point x="223.92622950819674" y="536.0081967213115"/>
      <point x="223.92622950819674" y="552.139344262295" type="qcurve" smooth="yes"/>
      <point x="223.92622950819674" y="577.983606557377" type="line" smooth="yes"/>
      <point x="223.92622950819674" y="591.9672131147541"/>
      <point x="209.94262295081967" y="591.9672131147541" type="qcurve" smooth="yes"/>
      <point x="46.09016393442623" y="591.9672131147541" type="line"/>
      <point x="46.09016393442623" y="652.9426229508197" type="line"/>
      <point x="93.48360655737704" y="690.0" type="line"/>
      <point x="210.22950819672133" y="690.0" type="line" smooth="yes"/>
      <point x="332.05737704918033" y="690.0"/>
      <point x="332.05737704918033" y="568.172131147541" type="qcurve" smooth="yes"/>
      <point x="332.05737704918033" y="549.4672131147541" type="line" smooth="yes"/>
      <point x="332.05737704918033" y="456.172131147541"/>
      <point x="241.6639344262295" y="438.5983606557377" type="qcurve" smooth="yes"/>
      <point x="157.0655737704918" y="421.9836065573771" type="line" smooth="yes"/>
      <point x="141.98360655737704" y="419.3196721311475"/>
      <point x="141.98360655737704" y="403.95081967213116" type="qcurve" smooth="yes"/>
      <point x="141.98360655737704" y="372.12295081967216" type="line"/>
      <point x="332.05737704918033" y="372.12295081967216" type="line"/>
      <point x="332.05737704918033" y="274.09016393442624" type="line"/>
    </contour>
  </outline>
</glyph>
<glyph name="uni00B3" format="2">
  <advance width="365.90983606557376"/>
  <unicode hex="00B3"/>
  <outline>
    <contour>
      <point x="40.09016393442623" y="310.90983606557376" type="line"/>
      <point x="40.09016393442623" y="372.12295081967216" type="line"/>
      <point x="209.94262295081967" y="372.12295081967216" type="line" smooth="yes"/>
      <point x="223.92622950819674" y="372.12295081967216"/>
      <point x="223.92622950819674" y="386.10655737704917" type="qcurve" smooth="yes"/>
      <point x="223.92622950819674" y="422.09016393442624" type="line" smooth="yes"/>
      <point x="223.92622950819674" y="436.07377049180326"/>
      <point x="209.94262295081967" y="436.07377049180326" type="qcurve" smooth="yes"/>
      <point x="84.09016393442623" y="436.07377049180326" type="line"/>
      <point x="84.09016393442623" y="534.1065573770492" type="line"/>
      <point x="209.94262295081967" y="534.1065573770492" type="line" smooth="yes"/>
      <point x="223.92622950819674" y="534.1065573770492"/>
      <point x="223.92622950819674" y="548.0901639344262" type="qcurve" smooth="yes"/>
      <point x="223.92622950819674" y="577.983606557377" type="line" smooth="yes"/>
      <point x="223.92622950819674" y="591.9672131147541"/>
      <point x="209.94262295081967" y="591.9672131147541" type="qcurve" smooth="yes"/>
      <point x="46.09016393442623" y="591.9672131147541" type="line"/>
      <point x="46.09016393442623" y="652.9426229508197" type="line"/>
      <point x="93.48360655737704" y="690.0" type="line"/>
      <point x="210.22950819672133" y="690.0" type="line" smooth="yes"/>
      <point x="332.05737704918033" y="690.0"/>
      <point x="332.05737704918033" y="568.172131147541" type="qcurve" smooth="yes"/>
      <point x="332.05737704918033" y="552.0409836065573" type="line" smooth="yes"/>
      <point x="332.05737704918033" y="525.0409836065573"/>
      <point x="315.05737704918033" y="508.0409836065574" type="qcurve" smooth="yes"/>
      <point x="292.05737704918033" y="485.0409836065574" type="line"/>
      <point x="315.05737704918033" y="462.0409836065574" type="line" smooth="yes"/>
      <point x="332.05737704918033" y="445.0409836065574"/>
      <point x="332.05737704918033" y="418.0409836065574" type="qcurve" smooth="yes"/>
      <point x="332.05737704918033" y="395.6803278688525" type="line" smooth="yes"/>
      <point x="332.05737704918033" y="274.09016393442624"/>
      <point x="210.22950819672133" y="274.09016393442624" type="qcurve" smooth="yes"/>
      <point x="87.48360655737704" y="274.09016393442624" type="line"/>
    </contour>
  </outline>
</glyph>
<glyph name="mu" format="2">
  <advance width="593.9590163934427"/>
  <unicode hex="00B5"/>
  <outline>
    <contour>
      <point x="72.04098360655738" y="-200.0" type="line"/>
      <point x="72.04098360655738" y="527.9590163934427" type="line"/>
      <point x="210.04098360655738" y="527.9590163934427" type="line"/>
      <point x="210.04098360655738" y="120.04098360655738" type="line"/>
      <point x="355.9016393442623" y="120.04098360655738" type="line" smooth="yes"/>
      <point x="387.91803278688525" y="120.04098360655738"/>
      <point x="387.91803278688525" y="152.05737704918033" type="qcurve" smooth="yes"/>
      <point x="387.91803278688525" y="527.9590163934427" type="line"/>
      <point x="525.9180327868852" y="527.9590163934427" type="line"/>
      <point x="525.9180327868852" y="162.05737704918033" type="line" smooth="yes"/>
      <point x="525.9180327868852" y="0.0"/>
      <point x="364.0983606557377" y="0.0" type="qcurve" smooth="yes"/>
      <point x="210.04098360655738" y="0.0" type="line"/>
      <point x="210.04098360655738" y="-200.0" type="line"/>
    </contour>
  </outline>
</glyph>
<glyph name="paragraph" format="2">
  <advance width="652.1065573770492"/>
  <unicode hex="00B6"/>
  <outline>
    <contour>
      <point x="62.040983606557376" y="359.9754098360656" type="qcurve" smooth="yes"/>
      <point x="62.040983606557376" y="540.0" type="line" smooth="yes"/>
      <point x="62.040983606557376" y="690.0"/>
      <point x="212.04098360655738" y="690.0" type="qcurve" smooth="yes"/>
      <point x="352.0655737704918" y="690.0" type="line"/>
      <point x="352.0655737704918" y="209.97540983606558" type="line"/>
      <point x="212.04098360655738" y="209.97540983606558" type="line" smooth="yes"/>
      <point x="62.040983606557376" y="209.97540983606558"/>
    </contour>
    <contour>
      <point x="422.0655737704918" y="-170.0" type="line"/>
      <point x="422.0655737704918" y="690.0" type="line"/>
      <point x="560.0655737704918" y="690.0" type="line"/>
      <point x="560.0655737704918" y="-170.0" type="line"/>
    </contour>
  </outline>
</glyph>
<glyph name="uni00B9" format="2">
  <advance width="365.90983606557376"/>
  <unicode hex="00B9"/>
  <outline>
    <contour>
      <point x="52.09016393442623" y="274.09016393442624" type="line"/>
      <point x="52.09016393442623" y="372.12295081967216" type="line"/>
      <point x="139.5081967213115" y="372.12295081967216" type="line"/>
      <point x="139.5081967213115" y="591.9672131147541" type="line"/>
      <point x="66.94262295081967" y="591.9672131147541" type="line"/>
      <point x="66.94262295081967" y="652.9426229508197" type="line"/>
      <point x="114.3360655737705" y="690.0" type="line"/>
      <point x="247.63934426229508" y="690.0" type="line"/>
      <point x="247.63934426229508" y="372.12295081967216" type="line"/>
      <point x="326.05737704918033" y="372.12295081967216" type="line"/>
      <point x="326.05737704918033" y="274.09016393442624" type="line"/>
    </contour>
  </outline>
</glyph>
<glyph name="ordmasculine" format="2">
  <advance width="434.0983606557377"/>
  <unicode hex="00BA"/>
  <outline>
    <contour>
      <point x="44.09016393442623" y="417.7295081967213" type="qcurve" smooth="yes"/>
      <point x="44.09016393442623" y="568.172131147541" type="line" smooth="yes"/>
      <point x="44.09016393442623" y="690.0"/>
      <point x="165.91803278688525" y="690.0" type="qcurve" smooth="yes"/>
      <point x="268.1803278688525" y="690.0" type="line" smooth="yes"/>
      <point x="390.0081967213115" y="690.0"/>
      <point x="390.0081967213115" y="568.172131147541" type="qcurve" smooth="yes"/>
      <point x="390.0081967213115" y="417.7295081967213" type="line" smooth="yes"/>
      <point x="390.0081967213115" y="295.9016393442623"/>
      <point x="268.1803278688525" y="295.9016393442623" type="qcurve" smooth="yes"/>
      <point x="165.91803278688525" y="295.9016393442623" type="line" smooth="yes"/>
      <point x="44.09016393442623" y="295.9016393442623"/>
    </contour>
    <contour>
      <point x="151.98360655737704" y="407.91803278688525" type="line" smooth="yes"/>
      <point x="151.98360655737704" y="393.9344262295082"/>
      <point x="165.9672131147541" y="393.9344262295082" type="qcurve" smooth="yes"/>
      <point x="267.89344262295083" y="393.9344262295082" type="line" smooth="yes"/>
      <point x="281.87704918032784" y="393.9344262295082"/>
      <point x="281.87704918032784" y="407.91803278688525" type="qcurve" smooth="yes"/>
      <point x="281.87704918032784" y="577.983606557377" type="line" smooth="yes"/>
      <point x="281.87704918032784" y="591.9672131147541"/>
      <point x="267.89344262295083" y="591.9672131147541" type="qcurve" smooth="yes"/>
      <point x="165.9672131147541" y="591.9672131147541" type="line" smooth="yes"/>
      <point x="151.98360655737704" y="591.9672131147541"/>
      <point x="151.98360655737704" y="577.983606557377" type="qcurve" smooth="yes"/>
    </contour>
  </outline>
</glyph>
<glyph name="questiondown" format="2">
  <advance width="504.11475409836066"/>
  <unicode hex="00BF"/>
  <outline>
    <contour>
      <point x="50.0" y="6.352459016393439" type="qcurve" smooth="yes"/>
      <point x="50.0" y="82.05737704918033" type="line" smooth="yes"/>
      <point x="50.0" y="258.07377049180326"/>
      <point x="210.77049180327867" y="258.07377049180326" type="qcurve" smooth="yes"/>
      <point x="228.31967213114754" y="258.07377049180326" type="line"/>
      <point x="228.31967213114754" y="305.9016393442623" type="line"/>
      <point x="372.08196721311475" y="305.9016393442623" type="line"/>
      <point x="372.08196721311475" y="127.9344262295082" type="line"/>
      <point x="224.0655737704918" y="127.9344262295082" type="line" smooth="yes"/>
      <point x="194.04918032786884" y="127.9344262295082"/>
      <point x="194.04918032786884" y="97.91803278688525" type="qcurve" smooth="yes"/>
      <point x="194.04918032786884" y="-1.885245901639344" type="line" smooth="yes"/>
      <point x="194.04918032786884" y="-31.901639344262307"/>
      <point x="224.0655737704918" y="-31.901639344262307" type="qcurve" smooth="yes"/>
      <point x="484.11475409836066" y="-31.901639344262307" type="line"/>
      <point x="484.11475409836066" y="-110.36065573770492" type="line"/>
      <point x="417.04918032786884" y="-162.04098360655738" type="line"/>
      <point x="218.39344262295083" y="-162.04098360655738" type="line" smooth="yes"/>
      <point x="50.0" y="-162.04098360655738"/>
    </contour>
    <contour>
      <point x="225.13114754098362" y="385.0245901639344" type="line"/>
      <point x="225.13114754098362" y="527.9590163934427" type="line"/>
      <point x="374.983606557377" y="527.9590163934427" type="line"/>
      <point x="374.983606557377" y="385.0245901639344" type="line"/>
    </contour>
  </outline>
</glyph>
<glyph name="AE" format="2">
  <advance width="927.983606557377"/>
  <unicode hex="00C6"/>
  <outline>
    <contour>
      <point x="17.950819672131146" y="27.483606557377048" type="line"/>
      <point x="223.40983606557376" y="690.0" type="line"/>
      <point x="877.983606557377" y="690.0" type="line"/>
      <point x="877.983606557377" y="559.860655737705" type="line"/>
      <point x="562.0" y="559.860655737705" type="line"/>
      <point x="562.0" y="420.0163934426229" type="line"/>
      <point x="847.983606557377" y="420.0163934426229" type="line"/>
      <point x="847.983606557377" y="289.87704918032784" type="line"/>
      <point x="562.0" y="289.87704918032784" type="line"/>
      <point x="562.0" y="130.13934426229508" type="line"/>
      <point x="877.983606557377" y="130.13934426229508" type="line"/>
      <point x="877.983606557377" y="0.0" type="line"/>
      <point x="417.95081967213116" y="0.0" type="line"/>
      <point x="417.95081967213116" y="139.87704918032787" type="line"/>
      <point x="198.0327868852459" y="139.87704918032787" type="line"/>
      <point x="156.4262295081967" y="0.0" type="line"/>
      <point x="36.09836065573771" y="0.0" type="line"/>
    </contour>
    <contour>
      <point x="237.13934426229508" y="270.0163934426229" type="line"/>
      <point x="417.95081967213116" y="270.0163934426229" type="line"/>
      <point x="417.95081967213116" y="559.860655737705" type="line"/>
      <point x="325.0655737704918" y="559.860655737705" type="line"/>
    </contour>
  </outline>
</glyph>
<glyph name="Eth" format="2">
  <advance width="704.1065573770492"/>
  <unicode hex="00D0"/>
  <outline>
    <contour>
      <point x="20.0" y="287.88524590163934" type="line"/>
      <point x="20.0" y="402.11475409836066" type="line"/>
      <point x="97.95081967213115" y="402.11475409836066" type="line"/>
      <point x="97.95081967213115" y="690.0" type="line"/>
      <point x="388.0409836065574" y="690.0" type="line" smooth="yes"/>
      <point x="642.0655737704918" y="690.0"/>
      <point x="642.0655737704918" y="435.9754098360656" type="qcurve" smooth="yes"/>
      <point x="642.0655737704918" y="254.02459016393442" type="line" smooth="yes"/>
      <point x="642.0655737704918" y="0.0"/>
      <point x="388.0409836065574" y="0.0" type="qcurve" smooth="yes"/>
      <point x="97.95081967213115" y="0.0" type="line"/>
      <point x="97.95081967213115" y="287.88524590163934" type="line"/>
    </contour>
    <contour>
      <point x="242.0" y="130.13934426229508" type="line"/>
      <point x="388.0409836065574" y="130.13934426229508" type="line" smooth="yes"/>
      <point x="498.016393442623" y="130.13934426229508"/>
      <point x="498.016393442623" y="240.11475409836066" type="qcurve" smooth="yes"/>
      <point x="498.016393442623" y="449.88524590163934" type="line" smooth="yes"/>
      <point x="498.016393442623" y="559.860655737705"/>
      <point x="388.0409836065574" y="559.860655737705" type="qcurve" smooth="yes"/>
      <point x="242.0" y="559.860655737705" type="line"/>
      <point x="242.0" y="402.11475409836066" type="line"/>
      <point x="370.0081967213115" y="402.11475409836066" type="line"/>
      <point x="370.0081967213115" y="287.88524590163934" type="line"/>
      <point x="242.0" y="287.88524590163934" type="line"/>
    </contour>
  </outline>
</glyph>
<glyph name="multiply" format="2">
  <advance width="578.0"/>
  <unicode hex="00D7"/>
  <outline>
    <contour>
      <point x="66.55737704918033" y="197.44262295081967" type="line"/>
      <point x="204.87704918032787" y="335.0" type="line"/>
      <point x="66.55737704918033" y="472.55737704918033" type="line"/>
      <point x="151.44262295081967" y="557.4426229508197" type="line"/>
      <point x="289.0" y="419.12295081967216" type="line"/>
      <point x="426.55737704918033" y="557.4426229508197" type="line"/>
      <point x="511.44262295081967" y="472.55737704918033" type="line"/>
      <point x="373.12295081967216" y="335.0" type="line"/>
      <point x="511.44262295081967" y="197.44262295081967" type="line"/>
      <point x="426.55737704918033" y="112.55737704918033" type="line"/>
      <point x="289.0" y="250.87704918032787" type="line"/>
      <point x="151.44262295081967" y="112.55737704918033" type="line"/>
    </contour>
  </outline>
</glyph>
<glyph name="Oslash" format="2">
  <advance width="707.9590163934427"/>
  <unicode hex="00D8"/>
  <outline>
    <contour>
      <point x="72.04098360655738" y="168.39344262295083" type="qcurve" smooth="yes"/>
      <point x="72.04098360655738" y="521.6065573770492" type="line" smooth="yes"/>
      <point x="72.04098360655738" y="690.0"/>
      <point x="240.4344262295082" y="690.0" type="qcurve" smooth="yes"/>
      <point x="467.5245901639344" y="690.0" type="line" smooth="yes"/>
      <point x="635.9180327868852" y="690.0"/>
      <point x="635.9180327868852" y="521.6065573770492" type="qcurve" smooth="yes"/>
      <point x="635.9180327868852" y="168.39344262295083" type="line" smooth="yes"/>
      <point x="635.9180327868852" y="0.0"/>
      <point x="467.5245901639344" y="0.0" type="qcurve" smooth="yes"/>
      <point x="240.4344262295082" y="0.0" type="line" smooth="yes"/>
      <point x="72.04098360655738" y="0.0"/>
    </contour>
    <contour>
      <point x="216.09016393442624" y="276.04918032786884" type="line"/>
      <point x="491.6311475409836" y="535.5081967213115" type="line"/>
      <point x="489.155737704918" y="559.860655737705"/>
      <point x="462.09016393442624" y="559.860655737705" type="qcurve" smooth="yes"/>
      <point x="246.10655737704917" y="559.860655737705" type="line" smooth="yes"/>
      <point x="216.09016393442624" y="559.860655737705"/>
      <point x="216.09016393442624" y="530.0819672131148" type="qcurve" smooth="yes"/>
    </contour>
    <contour>
      <point x="216.327868852459" y="154.4918032786885" type="line"/>
      <point x="218.80327868852459" y="130.13934426229508"/>
      <point x="246.10655737704917" y="130.13934426229508" type="qcurve" smooth="yes"/>
      <point x="462.09016393442624" y="130.13934426229508" type="line" smooth="yes"/>
      <point x="491.8688524590164" y="130.13934426229508"/>
      <point x="491.8688524590164" y="159.91803278688525" type="qcurve" smooth="yes"/>
      <point x="491.8688524590164" y="413.95081967213116" type="line"/>
    </contour>
  </outline>
</glyph>
<glyph name="Thorn" format="2">
  <advance width="637.9590163934427"/>
  <unicode hex="00DE"/>
  <outline>
    <contour>
      <point x="82.04098360655738" y="0.0" type="line"/>
      <point x="82.04098360655738" y="690.0" type="line"/>
      <point x="226.09016393442624" y="690.0" type="line"/>
      <point x="226.09016393442624" y="590.016393442623" type="line"/>
      <point x="417.5245901639344" y="590.016393442623" type="line" smooth="yes"/>
      <point x="585.9180327868852" y="590.016393442623"/>
      <point x="585.9180327868852" y="421.62295081967216" type="qcurve" smooth="yes"/>
      <point x="585.9180327868852" y="282.37704918032784" type="line" smooth="yes"/>
      <point x="585.9180327868852" y="113.98360655737704"/>
      <point x="417.5245901639344" y="113.98360655737704" type="qcurve" smooth="yes"/>
      <point x="226.09016393442624" y="113.98360655737704" type="line"/>
      <point x="226.09016393442624" y="0.0" type="line"/>
    </contour>
    <contour>
      <point x="226.09016393442624" y="244.12295081967213" type="line"/>
      <point x="412.09016393442624" y="244.12295081967213" type="line" smooth="yes"/>
      <point x="441.8688524590164" y="244.12295081967213"/>
      <point x="441.8688524590164" y="273.9016393442623" type="qcurve" smooth="yes"/>
      <point x="441.8688524590164" y="430.0983606557377" type="line" smooth="yes"/>
      <point x="441.8688524590164" y="459.87704918032784"/>
      <point x="412.09016393442624" y="459.87704918032784" type="qcurve" smooth="yes"/>
      <point x="226.09016393442624" y="459.87704918032784" type="line"/>
    </contour>
  </outline>
</glyph>
<glyph name="germandbls" format="2">
  <advance width="619.9672131147541"/>
  <unicode hex="00DF"/>
  <outline>
    <contour>
      <point x="72.04098360655738" y="0.0" type="line"/>
      <point x="72.04098360655738" y="577.9426229508197" type="line" smooth="yes"/>
      <point x="72.04098360655738" y="740.0"/>
      <point x="234.0983606557377" y="740.0" type="qcurve" smooth="yes"/>
      <point x="374.10655737704917" y="740.0" type="line" smooth="yes"/>
      <point x="535.9262295081967" y="740.0"/>
      <point x="535.9262295081967" y="577.9426229508197" type="qcurve" smooth="yes"/>
      <point x="535.9262295081967" y="491.0" type="line" smooth="yes"/>
      <point x="535.9262295081967" y="457.0"/>
      <point x="515.9262295081967" y="433.0" type="qcurve" smooth="yes"/>
      <point x="480.92622950819674" y="391.0" type="line"/>
      <point x="522.9262295081967" y="356.0" type="line" smooth="yes"/>
      <point x="555.9262295081967" y="328.0"/>
      <point x="555.9262295081967" y="276.0" type="qcurve" smooth="yes"/>
      <point x="555.9262295081967" y="162.05737704918033" type="line" smooth="yes"/>
      <point x="555.9262295081967" y="0.0"/>
      <point x="394.10655737704917" y="0.0" type="qcurve" smooth="yes"/>
      <point x="332.08196721311475" y="0.0" type="line"/>
      <point x="272.0655737704918" y="44.631147540983605" type="line"/>
      <point x="272.0655737704918" y="120.04098360655738" type="line"/>
      <point x="385.90983606557376" y="120.04098360655738" type="line" smooth="yes"/>
      <point x="417.92622950819674" y="120.04098360655738"/>
      <point x="417.92622950819674" y="152.05737704918033" type="qcurve" smooth="yes"/>
      <point x="417.92622950819674" y="293.344262295082" type="line" smooth="yes"/>
      <point x="417.92622950819674" y="324.5983606557377"/>
      <point x="385.90983606557376" y="324.5983606557377" type="qcurve" smooth="yes"/>
      <point x="282.0655737704918" y="324.5983606557377" type="line"/>
      <point x="282.0655737704918" y="445.4016393442623" type="line"/>
      <point x="365.90983606557376" y="445.4016393442623" type="line" smooth="yes"/>
      <point x="397.92622950819674" y="445.4016393442623"/>
      <point x="397.92622950819674" y="476.655737704918" type="qcurve" smooth="yes"/>
      <point x="397.92622950819674" y="587.9426229508197" type="line" smooth="yes"/>
      <point x="397.92622950819674" y="619.9590163934427"/>
      <point x="365.90983606557376" y="619.9590163934427" type="qcurve" smooth="yes"/>
      <point x="242.05737704918033" y="619.9590163934427" type="line" smooth="yes"/>
      <point x="210.04098360655738" y="619.9590163934427"/>
      <point x="210.04098360655738" y="587.9426229508197" type="qcurve" smooth="yes"/>
      <point x="210.04098360655738" y="0.0" type="line"/>
    </contour>
  </outline>
</glyph>
<glyph name="ae" format="2">
  <advance width="861.9426229508197"/>
  <unicode hex="00E6"/>
  <outline>
    <contour>
      <point x="206.3360655737705" y="0.0" type="line" smooth="yes"/>
      <point x="44.040983606557376" y="0.0"/>
      <point x="44.040983606557376" y="317.91803278688525"/>
      <point x="206.3360655737705" y="317.91803278688525" type="qcurve" smooth="yes"/>
      <point x="344.016393442623" y="317.91803278688525" type="line"/>
      <point x="344.016393442623" y="375.9016393442623" type="line" smooth="yes"/>
      <point x="344.016393442623" y="407.91803278688525"/>
      <point x="312.0" y="407.91803278688525" type="qcurve" smooth="yes"/>
      <point x="99.95081967213115" y="407.91803278688525" type="line"/>
      <point x="99.95081967213115" y="483.327868852459" type="line"/>
      <point x="159.9672131147541" y="527.9590163934427" type="line"/>
      <point x="300.37704918032784" y="527.9590163934427" type="line" smooth="yes"/>
      <point x="373.94262295081967" y="527.9590163934427"/>
      <point x="412.75409836065575" y="485.10655737704917" type="qcurve"/>
      <point x="451.5655737704918" y="527.9590163934427"/>
      <point x="526.655737704918" y="527.9590163934427" type="qcurve" smooth="yes"/>
      <point x="636.0819672131148" y="527.9590163934427" type="line" smooth="yes"/>
      <point x="797.9016393442623" y="527.9590163934427"/>
      <point x="797.9016393442623" y="365.9016393442623" type="qcurve" smooth="yes"/>
      <point x="797.9016393442623" y="213.08196721311475" type="line"/>
      <point x="482.0163934426229" y="213.08196721311475" type="line"/>
      <point x="482.0163934426229" y="152.05737704918033" type="line" smooth="yes"/>
      <point x="482.0163934426229" y="120.04098360655738"/>
      <point x="514.0327868852459" y="120.04098360655738" type="qcurve" smooth="yes"/>
      <point x="777.9016393442623" y="120.04098360655738" type="line"/>
      <point x="777.9016393442623" y="44.631147540983605" type="line"/>
      <point x="717.8852459016393" y="0.0" type="line"/>
      <point x="526.655737704918" y="0.0" type="line" smooth="yes"/>
      <point x="451.5655737704918" y="0.0"/>
      <point x="412.75409836065575" y="42.85245901639344" type="qcurve"/>
      <point x="373.94262295081967" y="0.0"/>
      <point x="300.37704918032784" y="0.0" type="qcurve" smooth="yes"/>
    </contour>
    <contour>
      <point x="182.04098360655738" y="152.05737704918033" type="line" smooth="yes"/>
      <point x="182.04098360655738" y="120.04098360655738"/>
      <point x="214.05737704918033" y="120.04098360655738" type="qcurve" smooth="yes"/>
      <point x="312.0" y="120.04098360655738" type="line" smooth="yes"/>
      <point x="344.016393442623" y="120.04098360655738"/>
      <point x="344.016393442623" y="152.05737704918033" type="qcurve" smooth="yes"/>
      <point x="344.016393442623" y="212.36065573770492" type="line"/>
      <point x="214.05737704918033" y="212.36065573770492" type="line" smooth="yes"/>
      <point x="182.04098360655738" y="212.36065573770492"/>
      <point x="182.04098360655738" y="180.34426229508196" type="qcurve" smooth="yes"/>
    </contour>
    <contour>
      <point x="482.0163934426229" y="318.6393442622951" type="line"/>
      <point x="659.9016393442623" y="318.6393442622951" type="line"/>
      <point x="659.9016393442623" y="375.9016393442623" type="line" smooth="yes"/>
      <point x="659.9016393442623" y="407.91803278688525"/>
      <point x="627.8852459016393" y="407.91803278688525" type="qcurve" smooth="yes"/>
      <point x="514.0327868852459" y="407.91803278688525" type="line" smooth="yes"/>
      <point x="482.0163934426229" y="407.91803278688525"/>
      <point x="482.0163934426229" y="375.9016393442623" type="qcurve" smooth="yes"/>
    </contour>
  </outline>
</glyph>
<glyph name="eth" format="2">
  <advance width="591.9590163934427"/>
  <unicode hex="00F0"/>
  <outline>
    <contour>
      <point x="64.04098360655738" y="162.05737704918033" type="qcurve" smooth="yes"/>
      <point x="64.04098360655738" y="287.94262295081967" type="line" smooth="yes"/>
      <point x="64.04098360655738" y="450.0"/>
      <point x="226.0983606557377" y="450.0" type="qcurve" smooth="yes"/>
      <point x="373.4918032786885" y="450.0" type="line"/>
      <point x="318.55737704918033" y="541.688524590164" type="line"/>
      <point x="210.31967213114754" y="489.6885245901639" type="line"/>
      <point x="165.59016393442624" y="584.9590163934427" type="line"/>
      <point x="262.9672131147541" y="631.9098360655738" type="line"/>
      <point x="223.31147540983608" y="701.2295081967213" type="line"/>
      <point x="335.77868852459017" y="764.1065573770492" type="line"/>
      <point x="379.9590163934426" y="687.7377049180328" type="line"/>
      <point x="467.9918032786885" y="729.016393442623" type="line"/>
      <point x="511.9590163934426" y="633.5081967213115" type="line"/>
      <point x="436.54918032786884" y="599.327868852459" type="line"/>
      <point x="498.672131147541" y="491.45081967213116" type="line" smooth="yes"/>
      <point x="527.9180327868852" y="438.9590163934426"/>
      <point x="527.9180327868852" y="369.7049180327869" type="qcurve" smooth="yes"/>
      <point x="527.9180327868852" y="162.05737704918033" type="line" smooth="yes"/>
      <point x="527.9180327868852" y="0.0"/>
      <point x="366.0983606557377" y="0.0" type="qcurve" smooth="yes"/>
      <point x="226.0983606557377" y="0.0" type="line" smooth="yes"/>
      <point x="64.04098360655738" y="0.0"/>
    </contour>
    <contour>
      <point x="202.04098360655738" y="152.05737704918033" type="line" smooth="yes"/>
      <point x="202.04098360655738" y="120.04098360655738"/>
      <point x="234.05737704918033" y="120.04098360655738" type="qcurve" smooth="yes"/>
      <point x="357.9016393442623" y="120.04098360655738" type="line" smooth="yes"/>
      <point x="389.91803278688525" y="120.04098360655738"/>
      <point x="389.91803278688525" y="152.05737704918033" type="qcurve" smooth="yes"/>
      <point x="389.91803278688525" y="329.95901639344265" type="line"/>
      <point x="234.05737704918033" y="329.95901639344265" type="line" smooth="yes"/>
      <point x="202.04098360655738" y="329.95901639344265"/>
      <point x="202.04098360655738" y="297.94262295081967" type="qcurve" smooth="yes"/>
    </contour>
  </outline>
</glyph>
<glyph name="divide" format="2">
  <advance width="578.0"/>
  <unicode hex="00F7"/>
  <outline>
    <contour>
      <point x="59.90163934426229" y="275.88524590163934" type="line"/>
      <point x="59.90163934426229" y="394.11475409836066" type="line"/>
      <point x="518.0983606557377" y="394.11475409836066" type="line"/>
      <point x="518.0983606557377" y="275.88524590163934" type="line"/>
    </contour>
    <contour>
      <point x="229.3688524590164" y="85.3688524590164" type="line"/>
      <point x="229.3688524590164" y="204.6311475409836" type="line"/>
      <point x="348.6311475409836" y="204.6311475409836" type="line"/>
      <point x="348.6311475409836" y="85.3688524590164" type="line"/>
    </contour>
    <contour>
      <point x="229.3688524590164" y="465.3688524590164" type="line"/>
      <point x="229.3688524590164" y="584.6311475409836" type="line"/>
      <point x="348.6311475409836" y="584.6311475409836" type="line"/>
      <point x="348.6311475409836" y="465.3688524590164" type="line"/>
    </contour>
  </outline>
</glyph>
<glyph name="oslash" format="2">
  <advance width="591.9590163934427"/>
  <unicode hex="00F8"/>
  <outline>
    <contour>
      <point x="64.04098360655738" y="162.05737704918033" type="qcurve" smooth="yes"/>
      <point x="64.04098360655738" y="365.9016393442623" type="line" smooth="yes"/>
      <point x="64.04098360655738" y="527.9590163934427"/>
      <point x="226.0983606557377" y="527.9590163934427" type="qcurve" smooth="yes"/>
      <point x="366.0983606557377" y="527.9590163934427" type="line" smooth="yes"/>
      <point x="527.9180327868852" y="527.9590163934427"/>
      <point x="527.9180327868852" y="365.9016393442623" type="qcurve" smooth="yes"/>
      <point x="527.9180327868852" y="162.05737704918033" type="line" smooth="yes"/>
      <point x="527.9180327868852" y="0.0"/>
      <point x="366.0983606557377" y="0.0" type="qcurve" smooth="yes"/>
      <point x="226.0983606557377" y="0.0" type="line" smooth="yes"/>
      <point x="64.04098360655738" y="0.0"/>
    </contour>
    <contour>
      <point x="202.04098360655738" y="234.38524590163934" type="line"/>
      <point x="385.9672131147541" y="393.22131147540983" type="line"/>
      <point x="379.1639344262295" y="407.91803278688525"/>
      <point x="357.9016393442623" y="407.91803278688525" type="qcurve" smooth="yes"/>
      <point x="234.05737704918033" y="407.91803278688525" type="line" smooth="yes"/>
      <point x="202.04098360655738" y="407.91803278688525"/>
      <point x="202.04098360655738" y="375.9016393442623" type="qcurve" smooth="yes"/>
    </contour>
    <contour>
      <point x="205.9918032786885" y="134.7377049180328" type="line"/>
      <point x="212.7950819672131" y="120.04098360655738"/>
      <point x="234.05737704918033" y="120.04098360655738" type="qcurve" smooth="yes"/>
      <point x="357.9016393442623" y="120.04098360655738" type="line" smooth="yes"/>
      <point x="389.91803278688525" y="120.04098360655738"/>
      <point x="389.91803278688525" y="152.05737704918033" type="qcurve" smooth="yes"/>
      <point x="389.91803278688525" y="293.5737704918033" type="line"/>
    </contour>
  </outline>
</glyph>
<glyph name="dotlessi" format="2">
  <advance width="282.08196721311475"/>
  <unicode hex="0131"/>
  <outline>
    <contour>
      <point x="72.04098360655738" y="0.0" type="line"/>
      <point x="72.04098360655738" y="527.9590163934427" type="line"/>
      <point x="210.04098360655738" y="527.9590163934427" type="line"/>
      <point x="210.04098360655738" y="0.0" type="line"/>
    </contour>
  </outline>
</glyph>
<glyph name="Lslash" format="2">
  <advance width="577.360655737705"/>
  <unicode hex="0141"/>
  <outline>
    <contour>
      <point x="10.0" y="302.4918032786885" type="line"/>
      <point x="110.5327868852459" y="359.6393442622951" type="line"/>
      <point x="110.5327868852459" y="690.0" type="line"/>
      <point x="254.58196721311475" y="690.0" type="line"/>
      <point x="254.58196721311475" y="443.04918032786884" type="line"/>
      <point x="370.04098360655735" y="509.9918032786885" type="line"/>
      <point x="425.6311475409836" y="412.9590163934426" type="line"/>
      <point x="254.58196721311475" y="313.90983606557376" type="line"/>
      <point x="254.58196721311475" y="130.13934426229508" type="line"/>
      <point x="553.360655737705" y="130.13934426229508" type="line"/>
      <point x="553.360655737705" y="0.0" type="line"/>
      <point x="110.5327868852459" y="0.0" type="line"/>
      <point x="110.5327868852459" y="231.02459016393442" type="line"/>
      <point x="66.35245901639344" y="204.69672131147541" type="line"/>
    </contour>
  </outline>
</glyph>
<glyph name="lslash" format="2">
  <advance width="334.0"/>
  <unicode hex="0142"/>
  <outline>
    <contour>
      <point x="-5.721311475409836" y="347.58196721311475" type="line"/>
      <point x="86.0" y="400.9672131147541" type="line"/>
      <point x="86.0" y="740.0" type="line"/>
      <point x="224.0" y="740.0" type="line"/>
      <point x="224.0" y="480.327868852459" type="line"/>
      <point x="286.70491803278685" y="517.4180327868853" type="line"/>
      <point x="339.0081967213115" y="425.9590163934426" type="line"/>
      <point x="224.0" y="360.04918032786884" type="line"/>
      <point x="224.0" y="178.1311475409836" type="line" smooth="yes"/>
      <point x="224.0" y="115.5655737704918"/>
      <point x="288.09016393442624" y="109.75409836065573" type="qcurve"/>
      <point x="288.09016393442624" y="-10.049180327868852" type="line"/>
      <point x="86.0" y="-10.049180327868852"/>
      <point x="86.0" y="192.04098360655738" type="qcurve" smooth="yes"/>
      <point x="86.0" y="279.92622950819674" type="line"/>
      <point x="46.05737704918033" y="256.88524590163934" type="line"/>
    </contour>
  </outline>
</glyph>
<glyph name="OE" format="2">
  <advance width="976.1065573770492"/>
  <unicode hex="0152"/>
  <outline>
    <contour>
      <point x="72.04098360655738" y="168.39344262295083" type="qcurve" smooth="yes"/>
      <point x="72.04098360655738" y="521.6065573770492" type="line" smooth="yes"/>
      <point x="72.04098360655738" y="690.0"/>
      <point x="240.4344262295082" y="690.0" type="qcurve" smooth="yes"/>
      <point x="926.1065573770492" y="690.0" type="line"/>
      <point x="926.1065573770492" y="559.860655737705" type="line"/>
      <point x="610.1229508196722" y="559.860655737705" type="line"/>
      <point x="610.1229508196722" y="420.0163934426229" type="line"/>
      <point x="896.1065573770492" y="420.0163934426229" type="line"/>
      <point x="896.1065573770492" y="289.87704918032784" type="line"/>
      <point x="610.1229508196722" y="289.87704918032784" type="line"/>
      <point x="610.1229508196722" y="130.13934426229508" type="line"/>
      <point x="926.1065573770492" y="130.13934426229508" type="line"/>
      <point x="926.1065573770492" y="0.0" type="line"/>
      <point x="240.4344262295082" y="0.0" type="line" smooth="yes"/>
      <point x="72.04098360655738" y="0.0"/>
    </contour>
    <contour>
      <point x="216.09016393442624" y="159.91803278688525" type="line" smooth="yes"/>
      <point x="216.09016393442624" y="130.13934426229508"/>
      <point x="246.10655737704917" y="130.13934426229508" type="qcurve" smooth="yes"/>
      <point x="466.07377049180326" y="130.13934426229508" type="line"/>
      <point x="466.07377049180326" y="559.860655737705" type="line"/>
      <point x="246.10655737704917" y="559.860655737705" type="line" smooth="yes"/>
      <point x="216.09016393442624" y="559.860655737705"/>
      <point x="216.09016393442624" y="530.0819672131148" type="qcurve" smooth="yes"/>
    </contour>
  </outline>
</glyph>
<glyph name="oe" format="2">
  <advance width="908.0901639344262"/>
  <unicode hex="0153"/>
  <outline>
    <contour>
      <point x="64.04098360655738" y="162.05737704918033" type="qcurve" smooth="yes"/>
      <point x="64.04098360655738" y="365.9016393442623" type="line" smooth="yes"/>
      <point x="64.04098360655738" y="527.9590163934427"/>
      <point x="226.0983606557377" y="527.9590163934427" type="qcurve" smooth="yes"/>
      <point x="347.04918032786884" y="527.9590163934427" type="line" smooth="yes"/>
      <point x="420.61475409836066" y="527.9590163934427"/>
      <point x="459.42622950819674" y="485.10655737704917" type="qcurve"/>
      <point x="498.23770491803276" y="527.9590163934427"/>
      <point x="571.8032786885246" y="527.9590163934427" type="qcurve" smooth="yes"/>
      <point x="681.9918032786885" y="527.9590163934427" type="line" smooth="yes"/>
      <point x="844.0491803278688" y="527.9590163934427"/>
      <point x="844.0491803278688" y="365.9016393442623" type="qcurve" smooth="yes"/>
      <point x="844.0491803278688" y="213.08196721311475" type="line"/>
      <point x="527.9262295081967" y="213.08196721311475" type="line"/>
      <point x="527.9262295081967" y="152.05737704918033" type="line" smooth="yes"/>
      <point x="527.9262295081967" y="120.04098360655738"/>
      <point x="559.9426229508197" y="120.04098360655738" type="qcurve" smooth="yes"/>
      <point x="824.0491803278688" y="120.04098360655738" type="line"/>
      <point x="824.0491803278688" y="44.631147540983605" type="line"/>
      <point x="764.0327868852459" y="0.0" type="line"/>
      <point x="571.8032786885246" y="0.0" type="line" smooth="yes"/>
      <point x="498.23770491803276" y="0.0"/>
      <point x="459.42622950819674" y="42.85245901639344" type="qcurve"/>
      <point x="420.61475409836066" y="0.0"/>
      <point x="347.04918032786884" y="0.0" type="qcurve" smooth="yes"/>
      <point x="226.0983606557377" y="0.0" type="line" smooth="yes"/>
      <point x="64.04098360655738" y="0.0"/>
    </contour>
    <contour>
      <point x="202.04098360655738" y="152.05737704918033" type="line" smooth="yes"/>
      <point x="202.04098360655738" y="120.04098360655738"/>
      <point x="234.05737704918033" y="120.04098360655738" type="qcurve" smooth="yes"/>
      <point x="357.90983606557376" y="120.04098360655738" type="line" smooth="yes"/>
      <point x="389.92622950819674" y="120.04098360655738"/>
      <point x="389.92622950819674" y="152.05737704918033" type="qcurve" smooth="yes"/>
      <point x="389.92622950819674" y="375.9016393442623" type="line" smooth="yes"/>
      <point x="389.92622950819674" y="407.91803278688525"/>
      <point x="357.90983606557376" y="407.91803278688525" type="qcurve" smooth="yes"/>
      <point x="234.05737704918033" y="407.91803278688525" type="line" smooth="yes"/>
      <point x="202.04098360655738" y="407.91803278688525"/>
      <point x="202.04098360655738" y="375.9016393442623" type="qcurve" smooth="yes"/>
    </contour>
    <contour>
      <point x="527.9262295081967" y="318.6393442622951" type="line"/>
      <point x="706.0491803278688" y="318.6393442622951" type="line"/>
      <point x="706.0491803278688" y="375.9016393442623" type="line" smooth="yes"/>
      <point x="706.0491803278688" y="407.91803278688525"/>
      <point x="674.0327868852459" y="407.91803278688525" type="qcurve" smooth="yes"/>
      <point x="559.9426229508197" y="407.91803278688525" type="line" smooth="yes"/>
      <point x="527.9262295081967" y="407.91803278688525"/>
      <point x="527.9262295081967" y="375.9016393442623" type="qcurve" smooth="yes"/>
    </contour>
  </outline>
</glyph>
<glyph name="florin" format="2">
  <advance width="577.9590163934427"/>
  <unicode hex="0192"/>
  <outline>
    <contour>
      <point x="40.0" y="-42.02459016393443" type="line"/>
      <point x="150.02459016393442" y="-42.02459016393443" type="line" smooth="yes"/>
      <point x="182.04098360655738" y="-42.02459016393443"/>
      <point x="182.04098360655738" y="-10.008196721311474" type="qcurve" smooth="yes"/>
      <point x="182.04098360655738" y="577.9426229508197" type="line" smooth="yes"/>
      <point x="182.04098360655738" y="740.0"/>
      <point x="344.0983606557377" y="740.0" type="qcurve" smooth="yes"/>
      <point x="442.05737704918033" y="740.0" type="line"/>
      <point x="502.07377049180326" y="695.3688524590164" type="line"/>
      <point x="502.07377049180326" y="619.9590163934427" type="line"/>
      <point x="352.05737704918033" y="619.9590163934427" type="line" smooth="yes"/>
      <point x="320.04098360655735" y="619.9590163934427"/>
      <point x="320.04098360655735" y="587.9426229508197" type="qcurve" smooth="yes"/>
      <point x="320.04098360655735" y="527.9590163934427" type="line"/>
      <point x="492.07377049180326" y="527.9590163934427" type="line"/>
      <point x="492.07377049180326" y="407.91803278688525" type="line"/>
      <point x="320.04098360655735" y="407.91803278688525" type="line"/>
      <point x="320.04098360655735" y="-0.00819672131147442" type="line" smooth="yes"/>
      <point x="320.04098360655735" y="-162.0655737704918"/>
      <point x="157.98360655737704" y="-162.0655737704918" type="qcurve" smooth="yes"/>
      <point x="100.01639344262296" y="-162.0655737704918" type="line"/>
      <point x="40.0" y="-116.67213114754098" type="line"/>
    </contour>
  </outline>
</glyph>
<glyph name="uni0237" format="2">
  <advance width="282.08196721311475"/>
  <unicode hex="0237"/>
  <outline>
    <contour>
      <point x="-10.049180327868852" y="-93.29508196721312" type="line"/>
      <point x="72.04098360655738" y="-88.24590163934427"/>
      <point x="72.04098360655738" y="-6.918032786885249" type="qcurve" smooth="yes"/>
      <point x="72.04098360655738" y="527.9590163934427" type="line"/>
      <point x="210.04098360655738" y="527.9590163934427" type="line"/>
      <point x="210.04098360655738" y="10.040983606557376" type="line" smooth="yes"/>
      <point x="210.04098360655738" y="-210.04918032786884"/>
      <point x="-10.049180327868852" y="-210.04918032786884" type="qcurve"/>
    </contour>
  </outline>
</glyph>
<glyph name="uni0300" format="2">
  <unicode hex="0300"/>
  <outline>
    <contour>
      <point x="-417.91803278688525" y="724.6311475409836" type="line"/>
      <point x="-342.9918032786885" y="795.7459016393443" type="line"/>
      <point x="-205.2704918032787" y="638.9262295081967" type="line"/>
      <point x="-270.62295081967216" y="576.0983606557377" type="line"/>
    </contour>
  </outline>
</glyph>
<glyph name="uni0301" format="2">
  <unicode hex="0301"/>
  <outline>
    <contour>
      <point x="-374.6885245901639" y="638.9262295081967" type="line"/>
      <point x="-236.9672131147541" y="795.7459016393443" type="line"/>
      <point x="-162.04098360655738" y="724.6311475409836" type="line"/>
      <point x="-309.57377049180326" y="576.3360655737705" type="line"/>
    </contour>
  </outline>
</glyph>
<glyph name="uni0302" format="2">
  <unicode hex="0302"/>
  <outline>
    <contour>
      <point x="-446.59016393442624" y="642.4918032786885" type="line"/>
      <point x="-290.0983606557377" y="795.983606557377" type="line"/>
      <point x="-133.3688524590164" y="642.4918032786885" type="line"/>
      <point x="-191.62295081967213" y="579.9508196721312" type="line"/>
      <point x="-290.0983606557377" y="673.4262295081967" type="line"/>
      <point x="-388.3360655737705" y="579.9508196721312" type="line"/>
    </contour>
  </outline>
</glyph>
<glyph name="uni0303" format="2">
  <unicode hex="0303"/>
  <outline>
    <contour>
      <point x="-466.92622950819674" y="652.1065573770492" type="line"/>
      <point x="-401.344262295082" y="717.688524590164" type="line" smooth="yes"/>
      <point x="-378.8688524590164" y="739.9262295081967"/>
      <point x="-308.57377049180326" y="739.9262295081967"/>
      <point x="-286.57377049180326" y="717.688524590164" type="qcurve" smooth="yes"/>
      <point x="-245.04098360655738" y="676.155737704918" type="line" smooth="yes"/>
      <point x="-239.9016393442623" y="671.016393442623"/>
      <point x="-232.0983606557377" y="671.016393442623"/>
      <point x="-226.95901639344262" y="676.155737704918" type="qcurve" smooth="yes"/>
      <point x="-172.04918032786884" y="731.0655737704918" type="line"/>
      <point x="-113.03278688524591" y="672.0491803278688" type="line"/>
      <point x="-178.61475409836066" y="606.4672131147541" type="line" smooth="yes"/>
      <point x="-200.85245901639345" y="584.2295081967213"/>
      <point x="-271.1475409836066" y="584.2295081967213"/>
      <point x="-293.38524590163934" y="606.4672131147541" type="qcurve" smooth="yes"/>
      <point x="-334.91803278688525" y="648.0" type="line" smooth="yes"/>
      <point x="-339.8196721311475" y="653.139344262295"/>
      <point x="-347.62295081967216" y="653.139344262295"/>
      <point x="-353.0" y="648.0" type="qcurve" smooth="yes"/>
      <point x="-407.90983606557376" y="593.0901639344262" type="line"/>
    </contour>
  </outline>
</glyph>
<glyph name="uni0304" format="2">
  <unicode hex="0304"/>
  <outline>
    <contour>
      <point x="-436.0163934426229" y="617.5655737704918" type="line"/>
      <point x="-436.0163934426229" y="713.639344262295" type="line"/>
      <point x="-143.94262295081967" y="713.639344262295" type="line"/>
      <point x="-143.94262295081967" y="617.5655737704918" type="line"/>
    </contour>
  </outline>
</glyph>
<glyph name="uni0306" format="2">
  <unicode hex="0306"/>
  <outline>
    <contour>
      <point x="-427.6803278688525" y="680.5327868852459" type="qcurve" smooth="yes"/>
      <point x="-427.6803278688525" y="745.9672131147541" type="line"/>
      <point x="-348.27868852459017" y="745.9672131147541" type="line"/>
      <point x="-348.27868852459017" y="684.8688524590164" type="line" smooth="yes"/>
      <point x="-348.27868852459017" y="676.1147540983607"/>
      <point x="-339.5245901639344" y="676.1147540983607" type="qcurve" smooth="yes"/>
      <point x="-240.4344262295082" y="676.1147540983607" type="line" smooth="yes"/>
      <point x="-231.68032786885246" y="676.1147540983607"/>
      <point x="-231.68032786885246" y="684.8688524590164" type="qcurve" smooth="yes"/>
      <point x="-231.68032786885246" y="745.9672131147541" type="line"/>
      <point x="-152.27868852459017" y="745.9672131147541" type="line"/>
      <point x="-152.27868852459017" y="680.5327868852459" type="line" smooth="yes"/>
      <point x="-152.27868852459017" y="595.9508196721312"/>
      <point x="-237.0983606557377" y="595.9508196721312" type="qcurve" smooth="yes"/>
      <point x="-343.0983606557377" y="595.9508196721312" type="line" smooth="yes"/>
      <point x="-427.6803278688525" y="595.9508196721312"/>
    </contour>
  </outline>
</glyph>
<glyph name="uni0307" format="2">
  <unicode hex="0307"/>
  <outline>
    <contour>
      <point x="-362.07377049180326" y="614.9508196721312" type="line"/>
      <point x="-362.07377049180326" y="749.5081967213115" type="line"/>
      <point x="-217.88524590163934" y="749.5081967213115" type="line"/>
      <point x="-217.88524590163934" y="614.9508196721312" type="line"/>
    </contour>
  </outline>
</glyph>
<glyph name="uni0308" format="2">
  <unicode hex="0308"/>
  <outline>
    <contour>
      <point x="-449.88524590163934" y="603.2295081967213" type="line"/>
      <point x="-449.88524590163934" y="727.1639344262295" type="line"/>
      <point x="-330.09016393442624" y="727.1639344262295" type="line"/>
      <point x="-330.09016393442624" y="603.2295081967213" type="line"/>
    </contour>
    <contour>
      <point x="-250.10655737704917" y="603.2295081967213" type="line"/>
      <point x="-250.10655737704917" y="727.1639344262295" type="line"/>
      <point x="-130.31147540983608" y="727.1639344262295" type="line"/>
      <point x="-130.31147540983608" y="603.2295081967213" type="line"/>
    </contour>
  </outline>
</glyph>
<glyph name="uni030A" format="2">
  <unicode hex="030A"/>
  <outline>
    <contour>
      <point x="-405.9672131147541" y="648.4344262295082" type="qcurve" smooth="yes"/>
      <point x="-405.9672131147541" y="707.7213114754098" type="line" smooth="yes"/>
      <point x="-405.9672131147541" y="786.7295081967213"/>
      <point x="-326.1967213114754" y="786.7295081967213" type="qcurve" smooth="yes"/>
      <point x="-253.7622950819672" y="786.7295081967213" type="line" smooth="yes"/>
      <point x="-173.99180327868854" y="786.7295081967213"/>
      <point x="-173.99180327868854" y="707.7213114754098" type="qcurve" smooth="yes"/>
      <point x="-173.99180327868854" y="648.4344262295082" type="line" smooth="yes"/>
      <point x="-173.99180327868854" y="569.4262295081967"/>
      <point x="-253.7622950819672" y="569.4262295081967" type="qcurve" smooth="yes"/>
      <point x="-326.1967213114754" y="569.4262295081967" type="line" smooth="yes"/>
      <point x="-405.9672131147541" y="569.4262295081967"/>
    </contour>
    <contour>
      <point x="-328.0409836065574" y="646.1967213114754" type="line" smooth="yes"/>
      <point x="-328.0409836065574" y="636.7295081967213"/>
      <point x="-318.57377049180326" y="636.7295081967213" type="qcurve" smooth="yes"/>
      <point x="-261.62295081967216" y="636.7295081967213" type="line" smooth="yes"/>
      <point x="-251.91803278688525" y="636.7295081967213"/>
      <point x="-251.91803278688525" y="646.1967213114754" type="qcurve" smooth="yes"/>
      <point x="-251.91803278688525" y="709.9590163934427" type="line" smooth="yes"/>
      <point x="-251.91803278688525" y="719.4262295081967"/>
      <point x="-261.62295081967216" y="719.4262295081967" type="qcurve" smooth="yes"/>
      <point x="-318.57377049180326" y="719.4262295081967" type="line" smooth="yes"/>
      <point x="-328.0409836065574" y="719.4262295081967"/>
      <point x="-328.0409836065574" y="709.9590163934427" type="qcurve" smooth="yes"/>
    </contour>
  </outline>
</glyph>
<glyph name="uni030B" format="2">
  <unicode hex="030B"/>
  <outline>
    <contour>
      <point x="-454.0327868852459" y="631.0655737704918" type="line"/>
      <point x="-337.9344262295082" y="795.983606557377" type="line"/>
      <point x="-257.4836065573771" y="734.016393442623" type="line"/>
      <point x="-384.10655737704917" y="576.0983606557377" type="line"/>
    </contour>
    <contour>
      <point x="-269.0163934426229" y="631.0655737704918" type="line"/>
      <point x="-152.91803278688525" y="795.983606557377" type="line"/>
      <point x="-71.70491803278688" y="734.016393442623" type="line"/>
      <point x="-199.09016393442624" y="576.0983606557377" type="line"/>
    </contour>
  </outline>
</glyph>
<glyph name="uni030C" format="2">
  <unicode hex="030C"/>
  <outline>
    <contour>
      <point x="-446.59016393442624" y="723.6803278688525" type="line"/>
      <point x="-388.3360655737705" y="785.983606557377" type="line"/>
      <point x="-290.0983606557377" y="692.7459016393443" type="line"/>
      <point x="-191.62295081967213" y="785.983606557377" type="line"/>
      <point x="-133.3688524590164" y="723.6803278688525" type="line"/>
      <point x="-290.0983606557377" y="569.9508196721312" type="line"/>
    </contour>
  </outline>
</glyph>
<glyph name="uni0326" format="2">
  <unicode hex="0326"/>
  <outline>
    <contour>
      <point x="-378.0655737704918" y="-178.61475409836066" type="line"/>
      <point x="-347.1639344262295" y="-50.0" type="line"/>
      <point x="-244.75409836065575" y="-50.0" type="line"/>
      <point x="-230.3688524590164" y="-70.67213114754098" type="line"/>
      <point x="-284.89344262295083" y="-205.38524590163934" type="line"/>
    </contour>
  </outline>
</glyph>
<glyph name="uni0327" format="2">
  <unicode hex="0327"/>
  <outline>
    <contour>
      <point x="-401.90983606557376" y="-89.92622950819673" type="line"/>
      <point x="-302.0983606557377" y="-89.92622950819673" type="line" smooth="yes"/>
      <point x="-288.11475409836066" y="-89.92622950819673"/>
      <point x="-288.11475409836066" y="-75.94262295081967" type="qcurve" smooth="yes"/>
      <point x="-288.11475409836066" y="59.63934426229508" type="line"/>
      <point x="-182.0327868852459" y="59.63934426229508" type="line"/>
      <point x="-182.0327868852459" y="-64.08196721311475" type="line" smooth="yes"/>
      <point x="-182.0327868852459" y="-185.90983606557376"/>
      <point x="-303.8606557377049" y="-185.90983606557376" type="qcurve" smooth="yes"/>
      <point x="-354.5163934426229" y="-185.90983606557376" type="line"/>
      <point x="-401.90983606557376" y="-149.09016393442624" type="line"/>
    </contour>
  </outline>
</glyph>
<glyph name="uni0328" format="2">
  <unicode hex="0328"/>
  <outline>
    <contour>
      <point x="-385.92622950819674" y="-25.84426229508197" type="line" smooth="yes"/>
      <point x="-385.92622950819674" y="95.98360655737704"/>
      <point x="-264.0983606557377" y="95.98360655737704" type="qcurve" smooth="yes"/>
      <point x="-243.95901639344262" y="95.98360655737704" type="line"/>
      <point x="-243.95901639344262" y="0.0" type="line"/>
      <point x="-266.57377049180326" y="0.0" type="line" smooth="yes"/>
      <point x="-280.08196721311475" y="0.0"/>
      <point x="-280.08196721311475" y="-13.508196721311478" type="qcurve" smooth="yes"/>
      <point x="-280.08196721311475" y="-76.41803278688525" type="line" smooth="yes"/>
      <point x="-280.08196721311475" y="-89.92622950819673"/>
      <point x="-266.57377049180326" y="-89.92622950819673" type="qcurve" smooth="yes"/>
      <point x="-170.04918032786884" y="-89.92622950819673" type="line"/>
      <point x="-170.04918032786884" y="-149.09016393442624" type="line"/>
      <point x="-217.44262295081967" y="-185.90983606557376" type="line"/>
      <point x="-264.0983606557377" y="-185.90983606557376" type="line" smooth="yes"/>
      <point x="-385.92622950819674" y="-185.90983606557376"/>
      <point x="-385.92622950819674" y="-64.08196721311475" type="qcurve" smooth="yes"/>
    </contour>
  </outline>
</glyph>
<glyph name="pi" format="2">
  <advance width="597.9590163934427"/>
  <unicode hex="03C0"/>
  <outline>
    <contour>
      <point x="72.04098360655738" y="0.0" type="line"/>
      <point x="72.04098360655738" y="527.9590163934427" type="line"/>
      <point x="525.9180327868852" y="527.9590163934427" type="line"/>
      <point x="525.9180327868852" y="0.0" type="line"/>
      <point x="387.91803278688525" y="0.0" type="line"/>
      <point x="387.91803278688525" y="407.91803278688525" type="line"/>
      <point x="210.04098360655738" y="407.91803278688525" type="line"/>
      <point x="210.04098360655738" y="0.0" type="line"/>
    </contour>
  </outline>
</glyph>
<glyph name="uni1E9E" format="2">
  <advance width="701.9672131147541"/>
  <unicode hex="1E9E"/>
  <outline>
    <contour>
      <point x="76.04098360655738" y="0.0" type="line"/>
      <point x="76.04098360655738" y="521.6065573770492" type="line" smooth="yes"/>
      <point x="76.04098360655738" y="690.0"/>
      <point x="244.4344262295082" y="690.0" type="qcurve" smooth="yes"/>
      <point x="579.9180327868852" y="690.0" type="line"/>
      <point x="579.9180327868852" y="578.344262295082" type="line"/>
      <point x="462.7704918032787" y="420.0163934426229" type="line"/>
      <point x="492.2049180327869" y="420.0163934426229" type="line" smooth="yes"/>
      <point x="649.9262295081967" y="420.0163934426229"/>
      <point x="649.9262295081967" y="244.0" type="qcurve" smooth="yes"/>
      <point x="649.9262295081967" y="168.39344262295083" type="line" smooth="yes"/>
      <point x="649.9262295081967" y="0.0"/>
      <point x="482.2950819672131" y="0.0" type="qcurve" smooth="yes"/>
      <point x="354.9344262295082" y="0.0" type="line"/>
      <point x="288.10655737704917" y="51.68032786885246" type="line"/>
      <point x="288.10655737704917" y="130.13934426229508" type="line"/>
      <point x="476.0983606557377" y="130.13934426229508" type="line" smooth="yes"/>
      <point x="505.87704918032784" y="130.13934426229508"/>
      <point x="505.87704918032784" y="159.91803278688525" type="qcurve" smooth="yes"/>
      <point x="505.87704918032784" y="260.0983606557377" type="line" smooth="yes"/>
      <point x="505.87704918032784" y="289.87704918032784"/>
      <point x="476.0983606557377" y="289.87704918032784" type="qcurve" smooth="yes"/>
      <point x="298.0983606557377" y="289.87704918032784" type="line"/>
      <point x="298.0983606557377" y="402.2950819672131" type="line"/>
      <point x="415.24590163934425" y="559.860655737705" type="line"/>
      <point x="250.10655737704917" y="559.860655737705" type="line" smooth="yes"/>
      <point x="220.09016393442624" y="559.860655737705"/>
      <point x="220.09016393442624" y="530.0819672131148" type="qcurve" smooth="yes"/>
      <point x="220.09016393442624" y="0.0" type="line"/>
    </contour>
  </outline>
</glyph>
<glyph name="endash" format="2">
  <advance width="580.0"/>
  <unicode hex="2013"/>
  <outline>
    <contour>
      <point x="40.0" y="245.88524590163934" type="line"/>
      <point x="40.0" y="364.11475409836066" type="line"/>
      <point x="540.0" y="364.11475409836066" type="line"/>
      <point x="540.0" y="245.88524590163934" type="line"/>
    </contour>
  </outline>
</glyph>
<glyph name="emdash" format="2">
  <advance width="1000.0"/>
  <unicode hex="2014"/>
  <outline>
    <contour>
      <point x="40.0" y="245.88524590163934" type="line"/>
      <point x="40.0" y="364.11475409836066" type="line"/>
      <point x="960.0" y="364.11475409836066" type="line"/>
      <point x="960.0" y="245.88524590163934" type="line"/>
    </contour>
  </outline>
</glyph>
<glyph name="quoteleft" format="2">
  <advance width="277.9672131147541"/>
  <unicode hex="2018"/>
  <outline>
    <contour>
      <point x="36.8360655737705" y="488.26229508196724" type="line"/>
      <point x="139.99180327868854" y="760.0081967213115" type="line"/>
      <point x="242.07377049180326" y="734.4754098360655" type="line"/>
      <point x="171.63934426229508" y="466.827868852459" type="line"/>
      <point x="50.459016393442624" y="466.827868852459" type="line"/>
    </contour>
  </outline>
</glyph>
<glyph name="quoteright" format="2">
  <advance width="277.9672131147541"/>
  <unicode hex="2019"/>
  <outline>
    <contour>
      <point x="31.885245901639344" y="473.3524590163934" type="line"/>
      <point x="102.31967213114754" y="740.0" type="line"/>
      <point x="223.5" y="740.0" type="line"/>
      <point x="237.12295081967213" y="719.327868852459" type="line"/>
      <point x="133.9672131147541" y="446.8196721311475" type="line"/>
    </contour>
  </outline>
</glyph>
<glyph name="quotesinglbase" format="2">
  <advance width="277.9672131147541"/>
  <unicode hex="201A"/>
  <outline>
    <contour>
      <point x="21.991803278688526" y="-124.47540983606558" type="line"/>
      <point x="92.42622950819673" y="143.172131147541" type="line"/>
      <point x="212.60655737704917" y="143.172131147541" type="line"/>
      <point x="226.9918032786885" y="121.73770491803279" type="line"/>
      <point x="124.07377049180327" y="-150.00819672131146" type="line"/>
    </contour>
  </outline>
</glyph>
<glyph name="dagger" format="2">
  <advance width="497.9590163934426"/>
  <unicode hex="2020"/>
  <outline>
    <contour>
      <point x="50.0" y="395.88524590163934" type="line"/>
      <point x="50.0" y="514.1147540983607" type="line"/>
      <point x="186.69672131147541" y="514.1147540983607" type="line"/>
      <point x="186.69672131147541" y="690.0" type="line"/>
      <point x="311.5" y="690.0" type="line"/>
      <point x="311.5" y="514.1147540983607" type="line"/>
      <point x="447.9590163934426" y="514.1147540983607" type="line"/>
      <point x="447.9590163934426" y="395.88524590163934" type="line"/>
      <point x="311.5" y="395.88524590163934" type="line"/>
      <point x="311.5" y="-100.0" type="line"/>
      <point x="186.69672131147541" y="-100.0" type="line"/>
      <point x="186.69672131147541" y="395.88524590163934" type="line"/>
    </contour>
  </outline>
</glyph>
<glyph name="daggerdbl" format="2">
  <advance width="497.9590163934426"/>
  <unicode hex="2021"/>
  <outline>
    <contour>
      <point x="50.0" y="75.88524590163934" type="line"/>
      <point x="50.0" y="194.11475409836066" type="line"/>
      <point x="186.69672131147541" y="194.11475409836066" type="line"/>
      <point x="186.69672131147541" y="395.88524590163934" type="line"/>
      <point x="50.0" y="395.88524590163934" type="line"/>
      <point x="50.0" y="514.1147540983607" type="line"/>
      <point x="186.69672131147541" y="514.1147540983607" type="line"/>
      <point x="186.69672131147541" y="690.0" type="line"/>
      <point x="311.5" y="690.0" type="line"/>
      <point x="311.5" y="514.1147540983607" type="line"/>
      <point x="447.9590163934426" y="514.1147540983607" type="line"/>
      <point x="447.9590163934426" y="395.88524590163934" type="line"/>
      <point x="311.5" y="395.88524590163934" type="line"/>
      <point x="311.5" y="194.11475409836066" type="line"/>
      <point x="447.9590163934426" y="194.11475409836066" type="line"/>
      <point x="447.9590163934426" y="75.88524590163934" type="line"/>
      <point x="311.5" y="75.88524590163934" type="line"/>
      <point x="311.5" y="-100.0" type="line"/>
      <point x="186.69672131147541" y="-100.0" type="line"/>
      <point x="186.69672131147541" y="75.88524590163934" type="line"/>
    </contour>
  </outline>
</glyph>
<glyph name="bullet" format="2">
  <advance width="367.9590163934426"/>
  <unicode hex="2022"/>
  <outline>
    <contour>
      <point x="65.98360655737704" y="240.9344262295082" type="line"/>
      <point x="65.98360655737704" y="479.0655737704918" type="line"/>
      <point x="302.21311475409834" y="479.0655737704918" type="line"/>
      <point x="302.21311475409834" y="240.9344262295082" type="line"/>
    </contour>
  </outline>
</glyph>
<glyph name="guilsinglleft" format="2">
  <advance width="345.41803278688525"/>
  <unicode hex="2039"/>
  <outline>
    <contour>
      <point x="30.0" y="315.0" type="line"/>
      <point x="220.29508196721312" y="554.1065573770492" type="line"/>
      <point x="305.41803278688525" y="483.89344262295083" type="line"/>
      <point x="174.95081967213116" y="315.0" type="line"/>
      <point x="305.41803278688525" y="146.10655737704917" type="line"/>
      <point x="220.29508196721312" y="75.89344262295083" type="line"/>
    </contour>
  </outline>
</glyph>
<glyph name="guilsinglright" format="2">
  <advance width="345.41803278688525"/>
  <unicode hex="203A"/>
  <outline>
    <contour>
      <point x="40.0" y="146.10655737704917" type="line"/>
      <point x="169.70491803278688" y="315.0" type="line"/>
      <point x="40.0" y="483.89344262295083" type="line"/>
      <point x="125.12295081967213" y="554.1065573770492" type="line"/>
      <point x="315.41803278688525" y="315.0" type="line"/>
      <point x="125.12295081967213" y="75.89344262295083" type="line"/>
    </contour>
  </outline>
</glyph>
<glyph name="fraction" format="2">
  <advance width="150.00819672131146"/>
  <unicode hex="2044"/>
  <outline>
    <contour>
      <point x="-140.39344262295083" y="40.00819672131148" type="line"/>
      <point x="189.60655737704917" y="700.0081967213115" type="line"/>
      <point x="289.6393442622951" y="649.9918032786885" type="line"/>
      <point x="-40.36065573770492" y="-10.008196721311474" type="line"/>
    </contour>
  </outline>
</glyph>
<glyph name="uni2070" format="2">
  <advance width="365.90983606557376"/>
  <unicode hex="2070"/>
  <outline>
    <contour>
      <point x="34.09016393442623" y="395.91803278688525" type="qcurve" smooth="yes"/>
      <point x="34.09016393442623" y="568.172131147541" type="line" smooth="yes"/>
      <point x="34.09016393442623" y="690.0"/>
      <point x="155.91803278688525" y="690.0" type="qcurve" smooth="yes"/>
      <point x="210.22950819672133" y="690.0" type="line" smooth="yes"/>
      <point x="332.05737704918033" y="690.0"/>
      <point x="332.05737704918033" y="568.172131147541" type="qcurve" smooth="yes"/>
      <point x="332.05737704918033" y="395.91803278688525" type="line" smooth="yes"/>
      <point x="332.05737704918033" y="274.09016393442624"/>
      <point x="210.22950819672133" y="274.09016393442624" type="qcurve" smooth="yes"/>
      <point x="155.91803278688525" y="274.09016393442624" type="line" smooth="yes"/>
      <point x="34.09016393442623" y="274.09016393442624"/>
    </contour>
    <contour>
      <point x="141.98360655737704" y="386.10655737704917" type="line" smooth="yes"/>
      <point x="141.98360655737704" y="372.12295081967216"/>
      <point x="155.9672131147541" y="372.12295081967216" type="qcurve" smooth="yes"/>
      <point x="209.94262295081967" y="372.12295081967216" type="line" smooth="yes"/>
      <point x="223.92622950819674" y="372.12295081967216"/>
      <point x="223.92622950819674" y="386.10655737704917" type="qcurve" smooth="yes"/>
      <point x="223.92622950819674" y="577.983606557377" type="line" smooth="yes"/>
      <point x="223.92622950819674" y="591.9672131147541"/>
      <point x="209.94262295081967" y="591.9672131147541" type="qcurve" smooth="yes"/>
      <point x="155.9672131147541" y="591.9672131147541" type="line" smooth="yes"/>
      <point x="141.98360655737704" y="591.9672131147541"/>
      <point x="141.98360655737704" y="577.983606557377" type="qcurve" smooth="yes"/>
    </contour>
  </outline>
</glyph>
<glyph name="uni2074" format="2">
  <advance width="365.90983606557376"/>
  <unicode hex="2074"/>
  <outline>
    <contour>
      <point x="34.09016393442623" y="326.07377049180326" type="line"/>
      <point x="34.09016393442623" y="416.2950819672131" type="line"/>
      <point x="140.02459016393442" y="690.0" type="line"/>
      <point x="232.24590163934425" y="690.0" type="line"/>
      <point x="244.34426229508196" y="669.327868852459" type="line"/>
      <point x="154.55737704918033" y="424.10655737704917" type="line"/>
      <point x="223.92622950819674" y="424.10655737704917" type="line"/>
      <point x="223.92622950819674" y="516.4590163934427" type="line"/>
      <point x="332.05737704918033" y="516.4590163934427" type="line"/>
      <point x="332.05737704918033" y="274.09016393442624" type="line"/>
      <point x="223.92622950819674" y="274.09016393442624" type="line"/>
      <point x="223.92622950819674" y="326.07377049180326" type="line"/>
    </contour>
  </outline>
</glyph>
<glyph name="Euro" format="2">
  <advance width="578.0"/>
  <unicode hex="20AC"/>
  <outline>
    <contour>
      <point x="23.991803278688526" y="234.60655737704917" type="line"/>
      <point x="23.991803278688526" y="314.4836065573771" type="line"/>
      <point x="91.94262295081967" y="314.4836065573771" type="line"/>
      <point x="91.94262295081967" y="375.5163934426229" type="line"/>
      <point x="23.991803278688526" y="375.5163934426229" type="line"/>
      <point x="23.991803278688526" y="455.39344262295083" type="line"/>
      <point x="91.94262295081967" y="455.39344262295083" type="line"/>
      <point x="91.94262295081967" y="521.6065573770492" type="line" smooth="yes"/>
      <point x="91.94262295081967" y="690.0"/>
      <point x="260.3360655737705" y="690.0" type="qcurve" smooth="yes"/>
      <point x="476.94262295081967" y="690.0" type="line"/>
      <point x="544.0081967213115" y="638.3196721311475" type="line"/>
      <point x="544.0081967213115" y="559.860655737705" type="line"/>
      <point x="266.0081967213115" y="559.860655737705" type="line" smooth="yes"/>
      <point x="235.9918032786885" y="559.860655737705"/>
      <point x="235.9918032786885" y="530.0819672131148" type="qcurve" smooth="yes"/>
      <point x="235.9918032786885" y="455.39344262295083" type="line"/>
      <point x="470.0081967213115" y="455.39344262295083" type="line"/>
      <point x="470.0081967213115" y="375.5163934426229" type="line"/>
      <point x="235.9918032786885" y="375.5163934426229" type="line"/>
      <point x="235.9918032786885" y="314.4836065573771" type="line"/>
      <point x="426.0081967213115" y="314.4836065573771" type="line"/>
      <point x="426.0081967213115" y="234.60655737704917" type="line"/>
      <point x="235.9918032786885" y="234.60655737704917" type="line"/>
      <point x="235.9918032786885" y="159.91803278688525" type="line" smooth="yes"/>
      <point x="235.9918032786885" y="130.13934426229508"/>
      <point x="266.0081967213115" y="130.13934426229508" type="qcurve" smooth="yes"/>
      <point x="544.0081967213115" y="130.13934426229508" type="line"/>
      <point x="544.0081967213115" y="51.68032786885246" type="line"/>
      <point x="476.94262295081967" y="0.0" type="line"/>
      <point x="260.3360655737705" y="0.0" type="line" smooth="yes"/>
      <point x="91.94262295081967" y="0.0"/>
      <point x="91.94262295081967" y="168.39344262295083" type="qcurve" smooth="yes"/>
      <point x="91.94262295081967" y="234.60655737704917" type="line"/>
    </contour>
  </outline>
</glyph>
<glyph name="uni20BA" format="2">
  <advance width="578.0"/>
  <unicode hex="20BA"/>
  <outline>
    <contour>
      <point x="21.950819672131146" y="307.90983606557376" type="line"/>
      <point x="111.94262295081967" y="344.04918032786884" type="line"/>
      <point x="111.94262295081967" y="407.94262295081967" type="line"/>
      <point x="51.67213114754098" y="383.9016393442623" type="line"/>
      <point x="21.950819672131146" y="457.9672131147541" type="line"/>
      <point x="111.94262295081967" y="494.10655737704917" type="line"/>
      <point x="111.94262295081967" y="690.0" type="line"/>
      <point x="255.9918032786885" y="690.0" type="line"/>
      <point x="255.9918032786885" y="551.983606557377" type="line"/>
      <point x="411.44262295081967" y="614.4016393442623" type="line"/>
      <point x="441.1639344262295" y="540.0983606557377" type="line"/>
      <point x="255.9918032786885" y="465.8196721311475" type="line"/>
      <point x="255.9918032786885" y="401.92622950819674" type="line"/>
      <point x="411.44262295081967" y="464.344262295082" type="line"/>
      <point x="441.1639344262295" y="390.0409836065574" type="line"/>
      <point x="255.9918032786885" y="315.76229508196724" type="line"/>
      <point x="255.9918032786885" y="130.13934426229508" type="line"/>
      <point x="285.1885245901639" y="130.13934426229508" type="line" smooth="yes"/>
      <point x="397.29508196721315" y="130.13934426229508"/>
      <point x="397.29508196721315" y="253.68032786885246" type="qcurve" smooth="yes"/>
      <point x="397.29508196721315" y="300.0" type="line"/>
      <point x="536.0573770491803" y="300.0" type="line"/>
      <point x="536.0573770491803" y="266.827868852459" type="line" smooth="yes"/>
      <point x="536.0573770491803" y="0.0"/>
      <point x="276.8524590163934" y="0.0" type="qcurve" smooth="yes"/>
      <point x="111.94262295081967" y="0.0" type="line"/>
      <point x="111.94262295081967" y="257.88524590163934" type="line"/>
      <point x="51.67213114754098" y="233.84426229508196" type="line"/>
    </contour>
  </outline>
</glyph>
